<svg xmlns="http://www.w3.org/2000/svg" xmlns:xlink="http://www.w3.org/1999/xlink" width="500" zoomAndPan="magnify" viewBox="0 0 375 374.999991" height="500" preserveAspectRatio="xMidYMid meet" version="1.0"><defs><clipPath id="7e2e7e9bbc"><path d="M 26 88 L 214 88 L 214 276 L 26 276 Z M 26 88 " clip-rule="nonzero"/></clipPath><clipPath id="d57b647b68"><path d="M 213.15625 -19.679688 L 386.300781 182.582031 L 161.820312 374.75 L -11.328125 172.492188 Z M 213.15625 -19.679688 " clip-rule="nonzero"/></clipPath><clipPath id="5cc3652062"><path d="M 213.15625 -19.679688 L 386.300781 182.582031 L 161.820312 374.75 L -11.328125 172.492188 Z M 213.15625 -19.679688 " clip-rule="nonzero"/></clipPath><clipPath id="ef3f665c20"><path d="M 69 131 L 171 131 L 171 233 L 69 233 Z M 69 131 " clip-rule="nonzero"/></clipPath><clipPath id="26fdfcaad3"><path d="M 213.15625 -19.679688 L 386.300781 182.582031 L 161.820312 374.75 L -11.328125 172.492188 Z M 213.15625 -19.679688 " clip-rule="nonzero"/></clipPath><clipPath id="c73a84e815"><path d="M 213.15625 -19.679688 L 386.300781 182.582031 L 161.820312 374.75 L -11.328125 172.492188 Z M 213.15625 -19.679688 " clip-rule="nonzero"/></clipPath><clipPath id="82b3f8241f"><path d="M 192 64 L 316 64 L 316 187 L 192 187 Z M 192 64 " clip-rule="nonzero"/></clipPath><clipPath id="ab80821015"><path d="M 213.15625 -19.679688 L 386.300781 182.582031 L 161.820312 374.75 L -11.328125 172.492188 Z M 213.15625 -19.679688 " clip-rule="nonzero"/></clipPath><clipPath id="75f2233112"><path d="M 213.15625 -19.679688 L 386.300781 182.582031 L 161.820312 374.75 L -11.328125 172.492188 Z M 213.15625 -19.679688 " clip-rule="nonzero"/></clipPath><clipPath id="1014f32402"><path d="M 219 91 L 288 91 L 288 161 L 219 161 Z M 219 91 " clip-rule="nonzero"/></clipPath><clipPath id="99bed3cc89"><path d="M 213.15625 -19.679688 L 386.300781 182.582031 L 161.820312 374.75 L -11.328125 172.492188 Z M 213.15625 -19.679688 " clip-rule="nonzero"/></clipPath><clipPath id="32def3a6bc"><path d="M 213.15625 -19.679688 L 386.300781 182.582031 L 161.820312 374.75 L -11.328125 172.492188 Z M 213.15625 -19.679688 " clip-rule="nonzero"/></clipPath><clipPath id="d9640eeb7e"><path d="M 199 182 L 300 182 L 300 284 L 199 284 Z M 199 182 " clip-rule="nonzero"/></clipPath><clipPath id="5b6ee5692d"><path d="M 213.15625 -19.679688 L 386.300781 182.582031 L 161.820312 374.75 L -11.328125 172.492188 Z M 213.15625 -19.679688 " clip-rule="nonzero"/></clipPath><clipPath id="2e96b15ee3"><path d="M 213.15625 -19.679688 L 386.300781 182.582031 L 161.820312 374.75 L -11.328125 172.492188 Z M 213.15625 -19.679688 " clip-rule="nonzero"/></clipPath><clipPath id="85908aa36b"><path d="M 221 205 L 278 205 L 278 262 L 221 262 Z M 221 205 " clip-rule="nonzero"/></clipPath><clipPath id="afb2a0aeea"><path d="M 213.15625 -19.679688 L 386.300781 182.582031 L 161.820312 374.75 L -11.328125 172.492188 Z M 213.15625 -19.679688 " clip-rule="nonzero"/></clipPath><clipPath id="3fde1cb26f"><path d="M 213.15625 -19.679688 L 386.300781 182.582031 L 161.820312 374.75 L -11.328125 172.492188 Z M 213.15625 -19.679688 " clip-rule="nonzero"/></clipPath></defs><g clip-path="url(#7e2e7e9bbc)"><g clip-path="url(#d57b647b68)"><g clip-path="url(#5cc3652062)"><path fill="#fff9f4" d="M 189.382812 241.203125 L 182.019531 223.515625 C 185.550781 218.550781 188.0625 213.15625 190.257812 207.386719 L 209.117188 202.914062 C 210.882812 202.699219 211.683594 201.363281 212.164062 199.65625 L 213.460938 178.449219 C 213.566406 177.058594 212.660156 175.242188 210.953125 174.761719 L 193.007812 167.429688 C 191.730469 161.394531 190.078125 155.675781 187.675781 150.601562 L 198.050781 133.941406 C 198.851562 132.605469 198.640625 130.84375 197.679688 129.71875 L 183.585938 113.257812 C 182.625 112.132812 180.914062 111.652344 179.472656 112.238281 L 161.414062 119.921875 C 156.445312 116.390625 151.050781 113.878906 145.605469 112.058594 L 141.128906 93.199219 C 140.917969 91.433594 139.582031 90.632812 137.871094 90.152344 L 116.34375 88.480469 C 114.957031 88.375 113.140625 89.28125 112.65625 90.988281 L 105.328125 108.933594 C 99.289062 110.210938 93.574219 111.863281 88.121094 114.585938 L 72.15625 104.265625 C 70.820312 103.464844 69.058594 103.675781 67.9375 104.636719 L 51.472656 118.730469 C 50.351562 119.691406 49.871094 121.398438 50.457031 122.84375 L 57.816406 140.53125 C 54.289062 145.496094 51.773438 150.890625 49.582031 156.65625 L 31.09375 160.8125 C 29.332031 161.023438 28.527344 162.359375 28.046875 164.070312 L 26.378906 185.597656 C 26.269531 186.984375 27.175781 188.800781 28.886719 189.285156 L 46.511719 196.238281 C 47.789062 202.277344 49.441406 207.996094 52.164062 213.445312 L 42.164062 229.785156 C 41.359375 231.121094 41.574219 232.882812 42.535156 234.003906 L 56.625 250.46875 C 57.585938 251.589844 59.296875 252.074219 60.738281 251.484375 L 78.425781 244.125 C 83.390625 247.652344 88.785156 250.167969 94.554688 252.363281 L 98.707031 270.847656 C 98.921875 272.609375 100.257812 273.414062 101.964844 273.894531 L 123.492188 275.5625 C 124.882812 275.671875 126.699219 274.765625 127.179688 273.054688 L 134.136719 255.429688 C 140.171875 254.152344 145.890625 252.5 151.339844 249.78125 L 167.679688 259.78125 C 169.015625 260.582031 170.78125 260.367188 171.902344 259.410156 L 188.363281 245.316406 C 189.488281 244.355469 189.96875 242.644531 189.382812 241.203125 Z M 169.34375 251.875 L 153.695312 241.929688 C 152.683594 241.5 151.292969 241.394531 150.222656 241.660156 C 144.398438 244.699219 137.613281 246.621094 131.203125 248.21875 C 130.132812 248.484375 129.011719 249.445312 128.582031 250.460938 L 121.683594 267.390625 L 105.710938 266.152344 L 101.5 248.359375 C 101.234375 247.289062 100.273438 246.167969 99.257812 245.742188 C 92.796875 243.492188 87.082031 240.605469 81.101562 236.648438 C 79.765625 235.84375 78.378906 235.738281 77.628906 236.378906 L 60.636719 243.792969 L 50.066406 231.445312 L 59.320312 215.746094 C 59.746094 214.730469 59.855469 213.34375 59.589844 212.273438 C 56.546875 206.449219 54.628906 199.664062 53.402344 192.933594 C 53.136719 191.863281 52.175781 190.742188 51.160156 190.3125 L 34.230469 183.410156 L 35.46875 167.441406 L 53.261719 163.230469 C 54.332031 162.964844 55.453125 162.003906 55.882812 160.988281 C 58.128906 154.527344 61.015625 148.8125 65.292969 143.207031 C 66.097656 141.871094 66.203125 140.480469 65.5625 139.734375 L 58.148438 122.742188 L 70.496094 112.171875 L 86.140625 122.117188 C 87.15625 122.546875 88.546875 122.652344 89.613281 122.386719 C 95.4375 119.34375 102.222656 117.425781 108.261719 116.148438 C 109.328125 115.882812 110.453125 114.921875 110.878906 113.90625 L 117.835938 96.28125 L 133.808594 97.519531 L 137.964844 116.007812 C 138.230469 117.074219 139.191406 118.199219 140.207031 118.625 C 146.347656 120.5 152.382812 123.761719 157.667969 127.664062 C 159.003906 128.464844 160.390625 128.574219 161.140625 127.933594 L 178.132812 120.519531 L 188.703125 132.867188 L 178.757812 148.511719 C 178.328125 149.527344 178.21875 150.914062 178.488281 151.984375 C 181.527344 157.808594 183.820312 164.273438 184.726562 170.632812 C 184.992188 171.699219 185.953125 172.824219 186.96875 173.25 L 204.589844 180.207031 L 203.351562 196.179688 L 184.867188 200.332031 C 183.796875 200.601562 182.675781 201.5625 182.246094 202.574219 C 180 209.039062 177.113281 214.753906 173.207031 220.039062 C 172.40625 221.375 172.300781 222.761719 172.941406 223.511719 L 180.355469 240.503906 L 168.382812 250.75 Z M 169.34375 251.875 " fill-opacity="1" fill-rule="nonzero"/></g></g></g><g clip-path="url(#ef3f665c20)"><g clip-path="url(#26fdfcaad3)"><g clip-path="url(#c73a84e815)"><path fill="#fff9f4" d="M 158.457031 149.03125 C 140.199219 127.707031 108.253906 125.230469 86.929688 143.484375 C 65.601562 161.742188 63.125 193.6875 81.382812 215.011719 C 99.636719 236.339844 131.582031 238.816406 152.910156 220.558594 C 173.859375 202.625 176.710938 170.359375 158.457031 149.03125 Z M 86.996094 210.207031 C 71.300781 191.875 73.402344 164.792969 91.734375 149.097656 C 110.066406 133.402344 137.148438 135.503906 152.84375 153.835938 C 168.539062 172.171875 166.4375 199.253906 148.105469 214.949219 C 129.769531 230.640625 102.367188 228.167969 86.996094 210.207031 Z M 86.996094 210.207031 " fill-opacity="1" fill-rule="nonzero"/></g></g></g><g clip-path="url(#82b3f8241f)"><g clip-path="url(#ab80821015)"><g clip-path="url(#75f2233112)"><path fill="#fff9f4" d="M 217.101562 77.433594 L 219.339844 89.132812 C 216.71875 91.375 214.046875 94.3125 212.070312 97.300781 L 200.210938 97.082031 C 198.820312 96.972656 197.324219 98.253906 196.523438 99.589844 L 192.347656 112.886719 C 191.867188 114.597656 192.453125 116.039062 193.785156 116.84375 L 203.398438 123.527344 C 203.128906 127 203.554688 130.523438 204.300781 134.425781 L 195.960938 142.859375 C 194.839844 143.820312 194.675781 145.902344 195.261719 147.347656 L 201.613281 160.066406 L 202.253906 160.8125 C 203.214844 161.933594 204.230469 162.363281 205.671875 161.777344 L 217.371094 159.539062 C 219.613281 162.160156 222.550781 164.832031 225.539062 166.8125 L 225.320312 178.671875 C 225.210938 180.058594 226.492188 181.554688 227.828125 182.359375 L 241.128906 186.53125 C 242.835938 187.015625 244.277344 186.429688 245.082031 185.09375 L 251.765625 175.480469 C 255.238281 175.75 258.761719 175.324219 262.664062 174.578125 L 271.097656 182.917969 C 272.058594 184.042969 274.144531 184.203125 275.585938 183.617188 L 288.304688 177.265625 C 289.746094 176.679688 290.601562 174.652344 290.335938 173.582031 L 288.472656 161.5625 C 291.09375 159.320312 293.390625 156.703125 295.371094 153.714844 L 307.230469 153.933594 C 308.617188 154.042969 310.113281 152.761719 310.917969 151.425781 L 315.089844 138.125 C 315.574219 136.417969 314.988281 134.976562 313.652344 134.171875 L 303.71875 127.113281 C 303.988281 123.644531 303.5625 120.117188 303.140625 116.589844 L 311.476562 108.15625 C 312.601562 107.195312 312.761719 105.113281 312.175781 103.667969 L 305.824219 90.949219 C 305.238281 89.507812 303.210938 88.652344 302.140625 88.917969 L 290.121094 90.78125 C 287.878906 88.160156 285.261719 85.863281 282.273438 83.882812 L 282.492188 72.023438 C 282.601562 70.636719 281.320312 69.140625 279.984375 68.335938 L 266.3125 64.484375 C 264.601562 64 263.160156 64.585938 262.359375 65.921875 L 254.980469 75.480469 C 251.507812 75.210938 247.980469 75.636719 244.457031 76.0625 L 236.019531 67.722656 C 235.058594 66.601562 232.976562 66.4375 231.53125 67.023438 L 218.816406 73.375 C 217.691406 74.335938 216.890625 75.671875 217.101562 77.433594 Z M 232.648438 75.144531 L 240.390625 83.429688 C 241.351562 84.554688 242.742188 84.660156 243.808594 84.394531 C 248.082031 83.328125 252.304688 82.957031 256.46875 83.28125 C 257.859375 83.386719 259.300781 82.800781 259.730469 81.785156 L 266.359375 72.871094 L 274.53125 75.597656 L 274.363281 86.765625 C 274.257812 88.152344 275.21875 89.273438 275.859375 90.023438 C 279.542969 92.054688 282.800781 95.101562 285.363281 98.097656 C 286.324219 99.21875 287.335938 99.648438 288.78125 99.058594 L 300.105469 97.144531 L 304.054688 104.785156 L 296.089844 112.898438 C 294.96875 113.859375 294.859375 115.25 295.125 116.320312 C 296.191406 120.59375 296.242188 124.4375 296.238281 128.980469 C 295.8125 129.996094 296.398438 131.4375 297.734375 132.238281 L 307.023438 138.550781 L 304.296875 146.71875 L 293.128906 146.554688 C 291.367188 146.765625 290.621094 147.40625 289.496094 148.367188 C 287.464844 152.050781 284.417969 155.308594 281.425781 157.871094 C 280.300781 158.832031 279.875 159.847656 280.460938 161.289062 L 282.375 172.617188 L 274.734375 176.5625 L 266.996094 168.277344 C 266.035156 167.15625 264.644531 167.050781 263.574219 167.316406 C 259.300781 168.382812 255.082031 168.753906 250.914062 168.429688 C 249.527344 168.320312 248.082031 168.910156 247.65625 169.921875 L 241.023438 178.839844 L 232.855469 176.109375 L 233.019531 164.945312 C 233.128906 163.558594 232.167969 162.433594 231.527344 161.6875 C 227.84375 159.652344 224.585938 156.605469 221.703125 153.238281 C 220.742188 152.117188 219.726562 151.6875 218.285156 152.277344 L 206.585938 154.511719 L 202.636719 146.871094 L 210.921875 139.128906 C 212.042969 138.167969 212.152344 136.78125 211.882812 135.710938 C 210.820312 131.4375 210.449219 127.214844 210.769531 123.050781 C 210.878906 121.660156 210.292969 120.21875 209.277344 119.789062 L 200.359375 113.160156 L 203.089844 104.988281 L 214.253906 105.15625 C 215.644531 105.265625 216.765625 104.304688 217.515625 103.664062 C 219.546875 99.976562 222.59375 96.722656 225.960938 93.839844 C 227.082031 92.878906 227.511719 91.863281 226.925781 90.421875 L 225.328125 79.46875 Z M 232.648438 75.144531 " fill-opacity="1" fill-rule="nonzero"/></g></g></g><g clip-path="url(#1014f32402)"><g clip-path="url(#99bed3cc89)"><g clip-path="url(#32def3a6bc)"><path fill="#fff9f4" d="M 222.617188 141.433594 C 223.847656 143.625 225.394531 146.191406 227.316406 148.433594 C 237.566406 160.40625 254.765625 163.835938 268.925781 156.902344 C 276.941406 152.632812 283.410156 145.800781 286.191406 136.933594 C 288.976562 128.066406 288.285156 118.933594 284.390625 110.597656 C 283.164062 108.40625 281.617188 105.839844 279.695312 103.59375 C 269.445312 91.621094 252.246094 88.191406 238.085938 95.128906 C 230.070312 99.398438 223.601562 106.230469 220.820312 115.097656 C 218.035156 123.960938 218.722656 133.097656 222.617188 141.433594 Z M 241.074219 101.648438 C 252.347656 95.886719 265.753906 98.671875 273.761719 108.023438 C 275.042969 109.523438 276.269531 111.710938 277.179688 113.53125 C 280.539062 119.726562 281.015625 127.101562 278.714844 134.257812 C 276.414062 141.414062 271.816406 146.648438 264.921875 149.953125 C 253.648438 155.71875 240.238281 152.929688 232.234375 143.578125 C 230.953125 142.082031 229.722656 139.890625 228.816406 138.074219 C 225.832031 131.554688 225.355469 124.179688 227.65625 117.023438 C 229.902344 110.5625 234.554688 104.636719 241.074219 101.648438 Z M 241.074219 101.648438 " fill-opacity="1" fill-rule="nonzero"/></g></g></g><g clip-path="url(#d9640eeb7e)"><g clip-path="url(#5b6ee5692d)"><g clip-path="url(#2e96b15ee3)"><path fill="#fff9f4" d="M 282.636719 268.34375 L 280.183594 259.421875 C 281.734375 257.445312 283.285156 255.472656 284.515625 253.121094 L 293.652344 252.433594 C 295.414062 252.21875 296.539062 251.257812 297.019531 249.550781 L 299.269531 238.546875 C 299.75 236.839844 299.164062 235.394531 297.507812 234.21875 L 289.820312 229.78125 C 289.660156 227.324219 289.183594 224.492188 288.328125 221.980469 L 294.796875 215.144531 C 295.597656 213.8125 296.082031 212.101562 295.121094 210.980469 L 288.875 201.414062 C 287.914062 200.292969 286.578125 199.488281 284.816406 199.703125 L 275.894531 202.152344 C 273.917969 200.601562 271.941406 199.050781 269.59375 197.820312 L 268.90625 188.6875 C 268.691406 186.925781 267.730469 185.800781 266.023438 185.320312 L 255.019531 183.070312 C 253.308594 182.585938 251.867188 183.175781 250.691406 184.828125 L 246.25 192.519531 C 243.792969 192.675781 240.960938 193.15625 238.453125 194.011719 L 231.5625 188.234375 C 230.230469 187.433594 228.519531 186.953125 227.398438 187.914062 L 217.832031 194.15625 C 216.707031 195.117188 215.90625 196.453125 216.121094 198.214844 L 218.570312 207.140625 C 217.019531 209.113281 215.097656 211.410156 213.867188 213.761719 L 205.105469 214.128906 C 203.339844 214.339844 202.21875 215.300781 201.738281 217.011719 L 199.488281 228.015625 C 199.003906 229.722656 199.589844 231.167969 200.925781 231.96875 L 208.617188 236.40625 C 208.773438 238.863281 209.253906 241.695312 210.105469 244.207031 L 204.332031 251.09375 C 203.53125 252.429688 203.050781 254.140625 204.011719 255.261719 L 210.253906 264.828125 L 210.574219 265.203125 C 211.535156 266.324219 213.246094 266.804688 214.3125 266.539062 L 223.234375 264.089844 C 225.210938 265.636719 227.507812 267.5625 229.855469 268.792969 L 230.546875 277.929688 C 230.757812 279.691406 231.71875 280.8125 233.429688 281.296875 L 244.433594 283.546875 C 246.140625 284.027344 247.582031 283.441406 248.761719 281.785156 L 253.199219 274.097656 C 255.65625 273.9375 258.488281 273.457031 261 272.605469 L 267.886719 278.378906 C 269.222656 279.179688 270.929688 279.664062 272.054688 278.703125 L 281.621094 272.457031 C 282.742188 271.496094 283.222656 269.789062 282.636719 268.34375 Z M 270.242188 270.527344 L 263.675781 265.128906 C 262.714844 264.007812 261.324219 263.898438 259.882812 264.484375 C 256.996094 265.660156 253.472656 266.082031 250.320312 266.1875 C 248.929688 266.082031 247.808594 267.042969 247.378906 268.054688 L 243.316406 275.425781 L 237.8125 274.300781 L 237.070312 265.859375 C 237.179688 264.46875 236.21875 263.347656 235.203125 262.921875 C 232.160156 261.636719 229.542969 259.335938 226.925781 257.039062 C 225.964844 255.917969 224.578125 255.808594 223.507812 256.074219 L 215.652344 258.261719 L 211.8125 253.769531 L 217.210938 247.203125 C 218.332031 246.242188 218.441406 244.855469 217.855469 243.410156 C 217.054688 240.207031 216.253906 237 216.148438 233.847656 C 216.257812 232.457031 215.296875 231.335938 214.28125 230.910156 L 206.914062 226.84375 L 208.039062 221.34375 L 216.480469 220.597656 C 217.867188 220.707031 218.992188 219.746094 219.417969 218.730469 C 220.703125 215.6875 223 213.070312 225.300781 210.457031 C 226.421875 209.496094 226.53125 208.105469 226.261719 207.035156 L 224.132812 198.488281 L 229.261719 195.394531 L 235.828125 200.792969 C 236.789062 201.914062 238.179688 202.023438 239.621094 201.4375 C 242.828125 200.636719 246.035156 199.835938 249.183594 199.734375 C 250.574219 199.839844 251.695312 198.878906 252.125 197.863281 L 256.1875 190.496094 L 261.691406 191.621094 L 262.433594 200.0625 C 262.324219 201.449219 263.285156 202.574219 264.300781 203 C 267.34375 204.285156 269.960938 206.582031 272.257812 208.507812 C 273.21875 209.628906 274.605469 209.738281 275.675781 209.472656 L 283.53125 207.285156 L 286.625 212.417969 L 281.226562 218.984375 C 280.101562 219.945312 279.996094 221.332031 280.582031 222.777344 C 281.753906 225.660156 282.179688 229.1875 282.285156 232.339844 C 282.179688 233.730469 283.140625 234.851562 284.152344 235.277344 L 291.523438 239.34375 L 290.398438 244.84375 L 281.957031 245.589844 C 280.566406 245.480469 279.445312 246.441406 279.019531 247.457031 C 277.734375 250.5 275.433594 253.117188 273.511719 255.410156 C 272.386719 256.371094 272.28125 257.761719 272.546875 258.832031 L 275.050781 267.058594 Z M 270.242188 270.527344 " fill-opacity="1" fill-rule="nonzero"/></g></g></g><g clip-path="url(#85908aa36b)"><g clip-path="url(#afb2a0aeea)"><g clip-path="url(#3fde1cb26f)"><path fill="#fff9f4" d="M 271.078125 214.703125 C 266.914062 209.839844 261.894531 207.003906 255.699219 205.828125 C 248.488281 204.21875 240.6875 205.710938 234.433594 209.765625 C 228.183594 213.824219 223.851562 220.125 222.246094 227.335938 C 220.15625 236.253906 222.605469 245.175781 228.371094 251.910156 C 232.535156 256.773438 237.554688 259.609375 243.75 260.789062 C 258.867188 264.058594 273.9375 254.398438 277.207031 239.28125 C 278.921875 230.683594 276.84375 221.4375 271.078125 214.703125 Z M 245.039062 253.203125 C 240.550781 252.507812 236.546875 250.101562 233.664062 246.734375 C 229.5 241.867188 227.582031 235.082031 229.132812 228.566406 C 230.261719 223.066406 233.414062 218.417969 238.171875 215.644531 C 242.925781 212.871094 248.269531 211.539062 253.773438 212.664062 C 258.257812 213.359375 262.261719 215.765625 265.144531 219.132812 C 269.308594 224 271.230469 230.785156 269.675781 237.300781 C 267.371094 248.996094 256.363281 255.828125 245.039062 253.203125 Z M 245.039062 253.203125 " fill-opacity="1" fill-rule="nonzero"/></g></g></g></svg>