<svg xmlns="http://www.w3.org/2000/svg" xmlns:xlink="http://www.w3.org/1999/xlink" width="500" zoomAndPan="magnify" viewBox="0 0 375 374.999991" height="500" preserveAspectRatio="xMidYMid meet" version="1.0"><defs><clipPath id="03b9805622"><path d="M 156 30.109375 L 324 30.109375 L 324 246 L 156 246 Z M 156 30.109375 " clip-rule="nonzero"/></clipPath><clipPath id="41a01fc276"><path d="M 39.550781 181 L 134 181 L 134 269 L 39.550781 269 Z M 39.550781 181 " clip-rule="nonzero"/></clipPath></defs><g clip-path="url(#03b9805622)"><path fill="#002d00" d="M 292.582031 214.75 C 247.738281 268.585938 201.195312 238.011719 186.003906 225.480469 C 197.714844 212.6875 203.09375 205.734375 223.425781 188.980469 C 244.445312 197.570312 282.054688 181.261719 282.054688 181.261719 C 256.753906 187.890625 237.410156 184.132812 230.539062 182.3125 C 232.015625 181.160156 256.976562 163.09375 264.53125 152.644531 C 285.425781 153.289062 302.6875 135.34375 302.6875 135.34375 C 302.121094 134.859375 291.550781 142.960938 271.566406 143.933594 C 292.257812 113.535156 291.332031 85.566406 291.332031 85.566406 C 291.332031 85.566406 283.691406 111.09375 264.25 139.082031 C 260.265625 119.21875 265.34375 105.695312 264.773438 105.25 C 264.773438 105.25 251.234375 127.5625 257.476562 148.074219 C 246.847656 160.222656 230.09375 170.710938 223.910156 175.417969 C 223.425781 174.144531 216.957031 152.945312 223.242188 121.640625 C 223.242188 121.640625 206.203125 161.007812 216.875 181.417969 C 203.820312 191.464844 200.320312 193.929688 178.515625 218.300781 C 129.144531 181.335938 171.535156 115.226562 208.507812 99.828125 C 246.546875 83.96875 262.390625 87.164062 297.25 30.109375 C 335.429688 86.65625 329.167969 170.851562 292.582031 214.75 Z M 292.582031 214.75 " fill-opacity="1" fill-rule="nonzero"/></g><g clip-path="url(#41a01fc276)"><path fill="#002d00" d="M 81.863281 209.007812 C 104.328125 219.277344 119.898438 233.21875 130.597656 246.558594 C 130.730469 246.175781 130.894531 245.851562 131.015625 245.40625 C 151.34375 172.226562 39.574219 182.410156 39.574219 182.410156 C 39.574219 182.410156 55.015625 206.179688 63.625 232.089844 C 73.578125 262.121094 114.261719 287.082031 128.882812 251.410156 C 118.324219 237.199219 103.226562 221.660156 81.863281 209.007812 Z M 81.863281 209.007812 " fill-opacity="1" fill-rule="nonzero"/></g><path fill="#002d00" d="M 186.003906 225.480469 C 185.875 225.316406 178.285156 218.527344 178.40625 218.367188 C 159.246094 239.464844 151.777344 257.492188 149.957031 280.472656 C 147.058594 272.570312 141.257812 259.917969 130.597656 246.558594 C 130.089844 248.316406 129.503906 249.894531 128.878906 251.410156 C 140.238281 266.707031 144.632812 287.546875 147.21875 294.375 C 147.21875 313.453125 149.3125 322.992188 150.988281 338.917969 C 150.988281 338.917969 161.257812 344.980469 164.117188 333.667969 C 158.316406 324.082031 152.628906 258.136719 186.003906 225.480469 Z M 186.003906 225.480469 " fill-opacity="1" fill-rule="nonzero"/></svg>