<svg xmlns="http://www.w3.org/2000/svg" xmlns:xlink="http://www.w3.org/1999/xlink" width="500" zoomAndPan="magnify" viewBox="0 0 375 374.999991" height="500" preserveAspectRatio="xMidYMid meet" version="1.0"><defs><clipPath id="bc72b113b9"><path d="M 15.578125 26.667969 L 359.078125 26.667969 L 359.078125 301.917969 L 15.578125 301.917969 Z M 15.578125 26.667969 " clip-rule="nonzero"/></clipPath><clipPath id="6e548c2127"><path d="M 229 107.929688 L 235 107.929688 L 235 116 L 229 116 Z M 229 107.929688 " clip-rule="nonzero"/></clipPath><clipPath id="0743d038d8"><path d="M 227.140625 113 L 236.890625 113 L 236.890625 121.429688 L 227.140625 121.429688 Z M 227.140625 113 " clip-rule="nonzero"/></clipPath></defs><g clip-path="url(#bc72b113b9)"><path fill="#fff9f4" d="M 353.683594 26.667969 L 204.691406 26.667969 C 204.3125 26.667969 203.941406 26.707031 203.570312 26.777344 C 203.203125 26.851562 202.84375 26.960938 202.496094 27.105469 C 202.148438 27.25 201.820312 27.425781 201.507812 27.632812 C 201.195312 27.84375 200.902344 28.082031 200.636719 28.347656 C 200.371094 28.613281 200.132812 28.902344 199.925781 29.214844 C 199.714844 29.527344 199.539062 29.859375 199.394531 30.207031 C 199.253906 30.554688 199.144531 30.914062 199.070312 31.28125 C 198.996094 31.652344 198.960938 32.023438 198.960938 32.398438 L 198.960938 175.660156 L 72.890625 175.660156 L 72.890625 118.355469 L 90.082031 118.355469 C 90.515625 118.355469 90.945312 118.308594 91.371094 118.210938 C 91.796875 118.109375 92.203125 117.964844 92.59375 117.777344 C 92.984375 117.585938 93.351562 117.351562 93.6875 117.078125 C 94.027344 116.804688 94.332031 116.496094 94.597656 116.152344 C 94.867188 115.808594 95.09375 115.4375 95.277344 115.042969 C 95.460938 114.648438 95.597656 114.238281 95.6875 113.8125 C 95.777344 113.386719 95.816406 112.957031 95.808594 112.519531 C 95.800781 112.085938 95.746094 111.65625 95.640625 111.234375 L 86.351562 74.070312 C 86.121094 73.148438 85.8125 72.25 85.433594 71.378906 C 85.054688 70.503906 84.605469 69.667969 84.085938 68.871094 C 83.566406 68.074219 82.984375 67.324219 82.339844 66.621094 C 81.699219 65.921875 81 65.277344 80.25 64.691406 C 79.5 64.105469 78.707031 63.585938 77.871094 63.132812 C 77.03125 62.675781 76.164062 62.296875 75.265625 61.984375 C 74.363281 61.675781 73.445312 61.445312 72.503906 61.285156 C 71.566406 61.128906 70.621094 61.050781 69.667969 61.050781 L 64.648438 61.050781 C 63.695312 61.050781 62.75 61.128906 61.8125 61.285156 C 60.875 61.445312 59.953125 61.675781 59.054688 61.984375 C 58.152344 62.296875 57.285156 62.675781 56.449219 63.132812 C 55.613281 63.585938 54.816406 64.105469 54.066406 64.691406 C 53.316406 65.277344 52.621094 65.921875 51.976562 66.621094 C 51.332031 67.324219 50.753906 68.074219 50.234375 68.871094 C 49.714844 69.667969 49.265625 70.503906 48.882812 71.378906 C 48.503906 72.25 48.199219 73.148438 47.96875 74.070312 L 38.679688 111.234375 C 38.574219 111.65625 38.515625 112.085938 38.507812 112.519531 C 38.5 112.957031 38.539062 113.386719 38.632812 113.8125 C 38.722656 114.238281 38.859375 114.648438 39.042969 115.042969 C 39.226562 115.4375 39.453125 115.808594 39.71875 116.152344 C 39.988281 116.496094 40.289062 116.804688 40.628906 117.078125 C 40.96875 117.351562 41.332031 117.585938 41.722656 117.777344 C 42.113281 117.964844 42.523438 118.109375 42.945312 118.210938 C 43.371094 118.308594 43.800781 118.355469 44.238281 118.355469 L 61.429688 118.355469 L 61.429688 175.660156 L 55.699219 175.660156 C 55.136719 175.660156 54.574219 175.6875 54.011719 175.742188 C 53.453125 175.800781 52.894531 175.882812 52.34375 175.992188 C 51.792969 176.101562 51.246094 176.238281 50.707031 176.402344 C 50.167969 176.566406 49.640625 176.753906 49.121094 176.96875 C 48.597656 177.183594 48.089844 177.425781 47.59375 177.691406 C 47.097656 177.957031 46.613281 178.246094 46.148438 178.558594 C 45.679688 178.871094 45.226562 179.207031 44.792969 179.5625 C 44.355469 179.921875 43.941406 180.296875 43.542969 180.695312 C 43.144531 181.09375 42.765625 181.511719 42.410156 181.945312 C 42.050781 182.382812 41.714844 182.832031 41.402344 183.300781 C 41.089844 183.769531 40.800781 184.25 40.535156 184.75 C 40.269531 185.246094 40.03125 185.753906 39.816406 186.273438 C 39.601562 186.792969 39.410156 187.324219 39.246094 187.863281 C 39.082031 188.402344 38.945312 188.945312 38.835938 189.5 C 38.726562 190.050781 38.644531 190.605469 38.589844 191.167969 C 38.535156 191.726562 38.507812 192.289062 38.507812 192.851562 L 38.507812 221.503906 L 32.777344 221.503906 C 32.214844 221.503906 31.652344 221.53125 31.089844 221.585938 C 30.53125 221.644531 29.972656 221.726562 29.421875 221.835938 C 28.871094 221.945312 28.324219 222.082031 27.785156 222.246094 C 27.246094 222.410156 26.71875 222.597656 26.199219 222.8125 C 25.675781 223.027344 25.167969 223.269531 24.671875 223.535156 C 24.175781 223.800781 23.691406 224.089844 23.226562 224.402344 C 22.757812 224.714844 22.304688 225.050781 21.871094 225.40625 C 21.433594 225.765625 21.019531 226.140625 20.621094 226.539062 C 20.222656 226.9375 19.84375 227.355469 19.488281 227.789062 C 19.128906 228.226562 18.792969 228.675781 18.480469 229.144531 C 18.167969 229.613281 17.878906 230.09375 17.613281 230.59375 C 17.347656 231.089844 17.109375 231.597656 16.894531 232.117188 C 16.679688 232.636719 16.488281 233.167969 16.324219 233.707031 C 16.160156 234.246094 16.023438 234.789062 15.914062 235.34375 C 15.804688 235.894531 15.722656 236.449219 15.667969 237.011719 C 15.613281 237.570312 15.585938 238.132812 15.585938 238.695312 L 15.585938 296 C 15.585938 296.378906 15.621094 296.75 15.695312 297.117188 C 15.769531 297.488281 15.878906 297.847656 16.019531 298.195312 C 16.164062 298.542969 16.339844 298.871094 16.550781 299.183594 C 16.757812 299.496094 16.996094 299.785156 17.261719 300.054688 C 17.527344 300.320312 17.820312 300.554688 18.132812 300.765625 C 18.445312 300.972656 18.773438 301.152344 19.121094 301.296875 C 19.46875 301.4375 19.828125 301.546875 20.195312 301.621094 C 20.566406 301.695312 20.9375 301.730469 21.316406 301.730469 L 55.699219 301.730469 C 56.074219 301.730469 56.445312 301.695312 56.816406 301.621094 C 57.183594 301.546875 57.542969 301.4375 57.890625 301.296875 C 58.238281 301.152344 58.570312 300.972656 58.882812 300.765625 C 59.195312 300.554688 59.484375 300.320312 59.75 300.054688 C 60.015625 299.785156 60.253906 299.496094 60.460938 299.183594 C 60.671875 298.871094 60.847656 298.542969 60.992188 298.195312 C 61.136719 297.847656 61.246094 297.488281 61.320312 297.117188 C 61.390625 296.75 61.429688 296.378906 61.429688 296 L 61.429688 290.269531 L 198.960938 290.269531 L 198.960938 296 C 198.960938 296.378906 198.996094 296.75 199.070312 297.117188 C 199.144531 297.488281 199.25 297.847656 199.394531 298.195312 C 199.539062 298.542969 199.714844 298.871094 199.925781 299.183594 C 200.132812 299.496094 200.371094 299.785156 200.636719 300.054688 C 200.902344 300.320312 201.195312 300.554688 201.507812 300.765625 C 201.820312 300.972656 202.148438 301.152344 202.496094 301.296875 C 202.84375 301.4375 203.203125 301.546875 203.570312 301.621094 C 203.941406 301.695312 204.3125 301.730469 204.691406 301.730469 L 353.683594 301.730469 C 354.058594 301.730469 354.429688 301.695312 354.800781 301.621094 C 355.167969 301.546875 355.527344 301.4375 355.875 301.296875 C 356.222656 301.152344 356.554688 300.972656 356.867188 300.765625 C 357.179688 300.554688 357.46875 300.320312 357.734375 300.054688 C 358 299.785156 358.238281 299.496094 358.445312 299.183594 C 358.65625 298.871094 358.832031 298.542969 358.976562 298.195312 C 359.121094 297.847656 359.230469 297.488281 359.300781 297.117188 C 359.375 296.75 359.414062 296.378906 359.414062 296 L 359.414062 32.398438 C 359.414062 32.023438 359.375 31.652344 359.300781 31.28125 C 359.230469 30.914062 359.121094 30.554688 358.976562 30.207031 C 358.832031 29.859375 358.65625 29.527344 358.445312 29.214844 C 358.238281 28.902344 358 28.613281 357.734375 28.347656 C 357.46875 28.082031 357.179688 27.84375 356.867188 27.632812 C 356.554688 27.425781 356.222656 27.25 355.875 27.105469 C 355.527344 26.960938 355.167969 26.851562 354.800781 26.777344 C 354.429688 26.707031 354.058594 26.667969 353.683594 26.667969 Z M 59.085938 76.855469 C 59.238281 76.234375 59.492188 75.65625 59.839844 75.121094 C 60.1875 74.585938 60.613281 74.121094 61.117188 73.726562 C 61.621094 73.332031 62.175781 73.03125 62.78125 72.824219 C 63.386719 72.617188 64.007812 72.511719 64.648438 72.511719 L 69.667969 72.511719 C 70.308594 72.511719 70.929688 72.617188 71.535156 72.824219 C 72.140625 73.03125 72.695312 73.332031 73.199219 73.726562 C 73.703125 74.121094 74.128906 74.585938 74.476562 75.121094 C 74.828125 75.65625 75.078125 76.234375 75.234375 76.855469 L 82.746094 106.894531 L 51.570312 106.894531 Z M 347.953125 38.128906 L 347.953125 232.964844 L 284.917969 232.964844 L 284.917969 38.128906 Z M 273.457031 38.128906 L 273.457031 290.269531 L 244.804688 290.269531 L 244.804688 238.695312 C 244.804688 238.132812 244.777344 237.570312 244.722656 237.011719 C 244.664062 236.449219 244.582031 235.894531 244.472656 235.34375 C 244.363281 234.789062 244.226562 234.246094 244.0625 233.707031 C 243.898438 233.167969 243.710938 232.636719 243.496094 232.117188 C 243.28125 231.597656 243.039062 231.089844 242.773438 230.59375 C 242.507812 230.09375 242.21875 229.613281 241.90625 229.144531 C 241.59375 228.675781 241.257812 228.226562 240.902344 227.789062 C 240.542969 227.355469 240.167969 226.9375 239.769531 226.539062 C 239.371094 226.140625 238.953125 225.765625 238.519531 225.40625 C 238.082031 225.050781 237.632812 224.714844 237.164062 224.402344 C 236.695312 224.089844 236.210938 223.800781 235.714844 223.535156 C 235.21875 223.269531 234.710938 223.027344 234.191406 222.8125 C 233.671875 222.597656 233.140625 222.410156 232.601562 222.246094 C 232.0625 222.082031 231.519531 221.945312 230.964844 221.835938 C 230.414062 221.726562 229.859375 221.644531 229.296875 221.585938 C 228.738281 221.53125 228.175781 221.503906 227.613281 221.503906 L 221.882812 221.503906 L 221.882812 192.851562 C 221.878906 191.972656 221.808594 191.097656 221.667969 190.226562 C 221.53125 189.359375 221.328125 188.503906 221.058594 187.664062 C 220.789062 186.828125 220.457031 186.015625 220.0625 185.226562 C 219.667969 184.441406 219.214844 183.6875 218.707031 182.96875 C 218.195312 182.25 217.636719 181.578125 217.019531 180.945312 C 216.40625 180.3125 215.75 179.730469 215.046875 179.203125 C 214.34375 178.671875 213.605469 178.199219 212.828125 177.78125 C 212.054688 177.363281 211.25 177.007812 210.421875 176.714844 L 210.421875 38.128906 Z M 198.960938 238.695312 L 198.960938 244.425781 L 135.925781 244.425781 L 135.925781 187.121094 L 204.691406 187.121094 C 205.066406 187.121094 205.4375 187.160156 205.808594 187.230469 C 206.175781 187.304688 206.535156 187.414062 206.882812 187.558594 C 207.230469 187.703125 207.5625 187.878906 207.875 188.085938 C 208.1875 188.296875 208.476562 188.535156 208.742188 188.800781 C 209.007812 189.066406 209.246094 189.355469 209.453125 189.667969 C 209.664062 189.980469 209.839844 190.3125 209.984375 190.660156 C 210.128906 191.007812 210.238281 191.367188 210.308594 191.734375 C 210.382812 192.101562 210.421875 192.476562 210.421875 192.851562 L 210.421875 222.558594 C 209.589844 222.851562 208.789062 223.207031 208.011719 223.625 C 207.238281 224.042969 206.496094 224.515625 205.792969 225.046875 C 205.089844 225.574219 204.433594 226.15625 203.820312 226.789062 C 203.207031 227.421875 202.644531 228.09375 202.136719 228.8125 C 201.625 229.53125 201.171875 230.285156 200.777344 231.070312 C 200.382812 231.859375 200.054688 232.671875 199.785156 233.507812 C 199.515625 234.347656 199.308594 235.203125 199.171875 236.070312 C 199.035156 236.941406 198.964844 237.816406 198.960938 238.695312 Z M 55.699219 187.121094 L 124.464844 187.121094 L 124.464844 244.425781 L 61.429688 244.425781 L 61.429688 238.695312 C 61.425781 237.816406 61.355469 236.941406 61.214844 236.070312 C 61.078125 235.203125 60.875 234.347656 60.605469 233.507812 C 60.335938 232.671875 60.003906 231.859375 59.609375 231.070312 C 59.214844 230.285156 58.761719 229.53125 58.253906 228.8125 C 57.742188 228.09375 57.183594 227.421875 56.566406 226.789062 C 55.953125 226.15625 55.296875 225.574219 54.59375 225.046875 C 53.890625 224.515625 53.152344 224.042969 52.375 223.625 C 51.601562 223.207031 50.796875 222.851562 49.96875 222.558594 L 49.96875 192.851562 C 49.96875 192.476562 50.003906 192.101562 50.078125 191.734375 C 50.152344 191.367188 50.257812 191.007812 50.402344 190.660156 C 50.546875 190.3125 50.722656 189.980469 50.933594 189.667969 C 51.140625 189.355469 51.378906 189.066406 51.644531 188.800781 C 51.910156 188.535156 52.203125 188.296875 52.515625 188.085938 C 52.828125 187.878906 53.15625 187.703125 53.503906 187.558594 C 53.851562 187.414062 54.210938 187.304688 54.578125 187.230469 C 54.949219 187.160156 55.320312 187.121094 55.699219 187.121094 Z M 49.96875 290.269531 L 27.046875 290.269531 L 27.046875 238.695312 C 27.046875 238.320312 27.082031 237.945312 27.15625 237.578125 C 27.230469 237.210938 27.339844 236.851562 27.480469 236.503906 C 27.625 236.15625 27.800781 235.824219 28.011719 235.511719 C 28.21875 235.199219 28.457031 234.910156 28.722656 234.644531 C 28.988281 234.378906 29.28125 234.140625 29.59375 233.929688 C 29.90625 233.722656 30.234375 233.546875 30.582031 233.402344 C 30.929688 233.257812 31.289062 233.148438 31.65625 233.074219 C 32.027344 233.003906 32.398438 232.964844 32.777344 232.964844 L 44.238281 232.964844 C 44.613281 232.964844 44.984375 233.003906 45.355469 233.074219 C 45.722656 233.148438 46.082031 233.257812 46.429688 233.402344 C 46.777344 233.546875 47.109375 233.722656 47.421875 233.929688 C 47.734375 234.140625 48.023438 234.378906 48.289062 234.644531 C 48.554688 234.910156 48.792969 235.199219 49 235.511719 C 49.210938 235.824219 49.386719 236.15625 49.53125 236.503906 C 49.675781 236.851562 49.785156 237.210938 49.859375 237.578125 C 49.929688 237.945312 49.96875 238.320312 49.96875 238.695312 Z M 61.429688 278.808594 L 61.429688 255.886719 L 198.960938 255.886719 L 198.960938 278.808594 Z M 210.421875 290.269531 L 210.421875 238.695312 C 210.421875 238.320312 210.457031 237.945312 210.53125 237.578125 C 210.605469 237.210938 210.710938 236.851562 210.855469 236.503906 C 211 236.15625 211.175781 235.824219 211.386719 235.511719 C 211.59375 235.199219 211.832031 234.910156 212.097656 234.644531 C 212.363281 234.378906 212.65625 234.140625 212.96875 233.929688 C 213.28125 233.722656 213.609375 233.546875 213.957031 233.402344 C 214.304688 233.257812 214.664062 233.148438 215.03125 233.074219 C 215.402344 233.003906 215.773438 232.964844 216.152344 232.964844 L 227.613281 232.964844 C 227.988281 232.964844 228.359375 233.003906 228.730469 233.074219 C 229.097656 233.148438 229.457031 233.257812 229.804688 233.402344 C 230.152344 233.546875 230.484375 233.722656 230.796875 233.929688 C 231.109375 234.140625 231.398438 234.378906 231.664062 234.644531 C 231.929688 234.910156 232.167969 235.199219 232.375 235.511719 C 232.585938 235.824219 232.761719 236.15625 232.90625 236.503906 C 233.050781 236.851562 233.160156 237.210938 233.230469 237.578125 C 233.304688 237.945312 233.34375 238.320312 233.34375 238.695312 L 233.34375 290.269531 Z M 347.953125 290.269531 L 284.917969 290.269531 L 284.917969 244.425781 L 347.953125 244.425781 Z M 347.953125 290.269531 " fill-opacity="1" fill-rule="nonzero"/></g><path fill="#fff9f4" d="M 302.109375 164.199219 C 302.484375 164.199219 302.855469 164.164062 303.226562 164.089844 C 303.59375 164.015625 303.953125 163.90625 304.300781 163.765625 C 304.648438 163.621094 304.980469 163.441406 305.292969 163.234375 C 305.605469 163.023438 305.894531 162.789062 306.160156 162.523438 C 306.425781 162.253906 306.664062 161.964844 306.871094 161.652344 C 307.082031 161.339844 307.257812 161.011719 307.402344 160.664062 C 307.546875 160.316406 307.65625 159.957031 307.726562 159.585938 C 307.800781 159.21875 307.839844 158.847656 307.839844 158.46875 L 307.839844 147.007812 C 307.839844 146.632812 307.800781 146.257812 307.726562 145.890625 C 307.65625 145.523438 307.546875 145.164062 307.402344 144.816406 C 307.257812 144.46875 307.082031 144.136719 306.871094 143.824219 C 306.664062 143.511719 306.425781 143.222656 306.160156 142.957031 C 305.894531 142.691406 305.605469 142.453125 305.292969 142.242188 C 304.980469 142.035156 304.648438 141.859375 304.300781 141.714844 C 303.953125 141.570312 303.59375 141.460938 303.226562 141.386719 C 302.855469 141.316406 302.484375 141.277344 302.109375 141.277344 C 301.730469 141.277344 301.359375 141.316406 300.988281 141.386719 C 300.621094 141.460938 300.261719 141.570312 299.914062 141.714844 C 299.566406 141.859375 299.238281 142.035156 298.925781 142.242188 C 298.613281 142.453125 298.320312 142.691406 298.054688 142.957031 C 297.789062 143.222656 297.550781 143.511719 297.34375 143.824219 C 297.132812 144.136719 296.957031 144.46875 296.8125 144.816406 C 296.667969 145.164062 296.5625 145.523438 296.488281 145.890625 C 296.414062 146.257812 296.378906 146.632812 296.378906 147.007812 L 296.378906 158.46875 C 296.378906 158.847656 296.414062 159.21875 296.488281 159.585938 C 296.5625 159.957031 296.667969 160.316406 296.8125 160.664062 C 296.957031 161.011719 297.132812 161.339844 297.34375 161.652344 C 297.550781 161.964844 297.789062 162.253906 298.054688 162.523438 C 298.320312 162.789062 298.613281 163.023438 298.925781 163.234375 C 299.238281 163.441406 299.566406 163.621094 299.914062 163.765625 C 300.261719 163.90625 300.621094 164.015625 300.988281 164.089844 C 301.359375 164.164062 301.730469 164.199219 302.109375 164.199219 Z M 302.109375 164.199219 " fill-opacity="1" fill-rule="nonzero"/><path fill="#fff9f4" d="M 256.265625 164.199219 C 256.640625 164.199219 257.011719 164.164062 257.382812 164.089844 C 257.75 164.015625 258.109375 163.90625 258.457031 163.765625 C 258.804688 163.621094 259.136719 163.441406 259.449219 163.234375 C 259.761719 163.023438 260.050781 162.789062 260.316406 162.523438 C 260.582031 162.253906 260.820312 161.964844 261.027344 161.652344 C 261.238281 161.339844 261.414062 161.011719 261.558594 160.664062 C 261.703125 160.316406 261.8125 159.957031 261.882812 159.585938 C 261.957031 159.21875 261.996094 158.847656 261.996094 158.46875 L 261.996094 147.007812 C 261.996094 146.632812 261.957031 146.257812 261.882812 145.890625 C 261.8125 145.523438 261.703125 145.164062 261.558594 144.816406 C 261.414062 144.46875 261.238281 144.136719 261.027344 143.824219 C 260.820312 143.511719 260.582031 143.222656 260.316406 142.957031 C 260.050781 142.691406 259.761719 142.453125 259.449219 142.242188 C 259.136719 142.035156 258.804688 141.859375 258.457031 141.714844 C 258.109375 141.570312 257.75 141.460938 257.382812 141.386719 C 257.011719 141.316406 256.640625 141.277344 256.265625 141.277344 C 255.886719 141.277344 255.515625 141.316406 255.144531 141.386719 C 254.777344 141.460938 254.417969 141.570312 254.070312 141.714844 C 253.722656 141.859375 253.394531 142.035156 253.082031 142.242188 C 252.769531 142.453125 252.476562 142.691406 252.210938 142.957031 C 251.945312 143.222656 251.707031 143.511719 251.5 143.824219 C 251.289062 144.136719 251.113281 144.46875 250.96875 144.816406 C 250.824219 145.164062 250.71875 145.523438 250.644531 145.890625 C 250.570312 146.257812 250.535156 146.632812 250.535156 147.007812 L 250.535156 158.46875 C 250.535156 158.847656 250.570312 159.21875 250.644531 159.585938 C 250.71875 159.957031 250.824219 160.316406 250.96875 160.664062 C 251.113281 161.011719 251.289062 161.339844 251.5 161.652344 C 251.707031 161.964844 251.945312 162.253906 252.210938 162.523438 C 252.476562 162.789062 252.769531 163.023438 253.082031 163.234375 C 253.394531 163.441406 253.722656 163.621094 254.070312 163.765625 C 254.417969 163.90625 254.777344 164.015625 255.144531 164.089844 C 255.515625 164.164062 255.886719 164.199219 256.265625 164.199219 Z M 256.265625 164.199219 " fill-opacity="1" fill-rule="nonzero"/><path fill="#fff9f4" d="M 310.703125 273.078125 L 322.164062 273.078125 C 322.542969 273.078125 322.914062 273.042969 323.28125 272.96875 C 323.652344 272.894531 324.011719 272.785156 324.359375 272.644531 C 324.707031 272.5 325.035156 272.320312 325.347656 272.113281 C 325.660156 271.902344 325.949219 271.667969 326.21875 271.402344 C 326.484375 271.132812 326.71875 270.84375 326.929688 270.53125 C 327.136719 270.21875 327.316406 269.890625 327.460938 269.542969 C 327.601562 269.195312 327.710938 268.835938 327.785156 268.464844 C 327.859375 268.097656 327.894531 267.726562 327.894531 267.347656 C 327.894531 266.972656 327.859375 266.597656 327.785156 266.230469 C 327.710938 265.863281 327.601562 265.503906 327.460938 265.15625 C 327.316406 264.808594 327.136719 264.476562 326.929688 264.164062 C 326.71875 263.851562 326.484375 263.5625 326.21875 263.296875 C 325.949219 263.03125 325.660156 262.792969 325.347656 262.582031 C 325.035156 262.375 324.707031 262.199219 324.359375 262.054688 C 324.011719 261.910156 323.652344 261.800781 323.28125 261.726562 C 322.914062 261.65625 322.542969 261.617188 322.164062 261.617188 L 310.703125 261.617188 C 310.328125 261.617188 309.953125 261.65625 309.585938 261.726562 C 309.21875 261.800781 308.859375 261.910156 308.511719 262.054688 C 308.164062 262.199219 307.832031 262.375 307.519531 262.582031 C 307.207031 262.792969 306.917969 263.03125 306.652344 263.296875 C 306.386719 263.5625 306.148438 263.851562 305.9375 264.164062 C 305.730469 264.476562 305.554688 264.808594 305.410156 265.15625 C 305.265625 265.503906 305.15625 265.863281 305.082031 266.230469 C 305.011719 266.597656 304.972656 266.972656 304.972656 267.347656 C 304.972656 267.726562 305.011719 268.097656 305.082031 268.464844 C 305.15625 268.835938 305.265625 269.195312 305.410156 269.542969 C 305.554688 269.890625 305.730469 270.21875 305.9375 270.53125 C 306.148438 270.84375 306.386719 271.132812 306.652344 271.402344 C 306.917969 271.667969 307.207031 271.902344 307.519531 272.113281 C 307.832031 272.320312 308.164062 272.5 308.511719 272.644531 C 308.859375 272.785156 309.21875 272.894531 309.585938 272.96875 C 309.953125 273.042969 310.328125 273.078125 310.703125 273.078125 Z M 310.703125 273.078125 " fill-opacity="1" fill-rule="nonzero"/><g clip-path="url(#6e548c2127)"><path fill="#fff9f4" d="M 232.066406 112.230469 C 231.101562 112.230469 230.316406 111.445312 230.316406 110.476562 C 230.316406 109.507812 231.101562 108.722656 232.066406 108.722656 C 233.035156 108.722656 233.820312 109.507812 233.820312 110.476562 C 233.820312 111.445312 233.035156 112.230469 232.066406 112.230469 Z M 232.066406 107.933594 C 230.664062 107.933594 229.527344 109.074219 229.527344 110.476562 C 229.527344 110.78125 229.582031 111.074219 229.679688 111.347656 C 229.6875 111.371094 229.699219 111.394531 229.710938 111.425781 C 229.757812 111.542969 229.8125 111.65625 229.875 111.761719 C 230.257812 112.480469 231.070312 113.796875 231.785156 114.972656 C 231.785156 114.972656 231.785156 114.976562 231.789062 114.980469 L 231.949219 115.246094 C 231.949219 115.25 231.953125 115.25 231.953125 115.253906 C 232.011719 115.332031 232.128906 115.332031 232.183594 115.25 C 232.183594 115.25 232.1875 115.246094 232.1875 115.246094 L 232.347656 114.980469 C 232.347656 114.976562 232.347656 114.976562 232.351562 114.976562 C 232.660156 114.46875 232.984375 113.929688 233.289062 113.429688 C 233.6875 112.769531 234.042969 112.167969 234.261719 111.761719 C 234.324219 111.65625 234.378906 111.542969 234.425781 111.425781 C 234.4375 111.394531 234.449219 111.371094 234.457031 111.347656 C 234.554688 111.074219 234.609375 110.78125 234.609375 110.476562 C 234.609375 109.074219 233.472656 107.933594 232.066406 107.933594 " fill-opacity="1" fill-rule="nonzero"/></g><g clip-path="url(#0743d038d8)"><path fill="#fff9f4" d="M 236.753906 117.15625 L 235.46875 117.15625 L 235.46875 113.890625 C 235.46875 113.6875 235.300781 113.519531 235.097656 113.519531 L 233.980469 113.519531 C 233.949219 113.519531 233.925781 113.542969 233.925781 113.574219 L 233.496094 114.210938 C 233.496094 114.238281 233.519531 114.265625 233.550781 114.265625 L 234.726562 114.265625 L 234.726562 120.714844 L 232.796875 120.714844 L 232.796875 119.070312 C 232.796875 119.035156 232.769531 119.007812 232.734375 119.007812 L 231.460938 119.007812 C 231.425781 119.007812 231.398438 119.035156 231.398438 119.070312 L 231.398438 120.714844 L 229.46875 120.714844 L 229.46875 114.265625 L 230.644531 114.265625 C 230.675781 114.265625 230.699219 114.238281 230.699219 114.210938 L 230.265625 113.574219 C 230.265625 113.542969 230.242188 113.519531 230.214844 113.519531 L 229.097656 113.519531 C 228.894531 113.519531 228.726562 113.6875 228.726562 113.890625 L 228.726562 117.15625 L 227.511719 117.15625 C 227.308594 117.15625 227.140625 117.320312 227.140625 117.527344 L 227.140625 121.089844 C 227.140625 121.292969 227.308594 121.460938 227.511719 121.460938 L 236.753906 121.460938 C 236.957031 121.460938 237.125 121.292969 237.125 121.089844 L 237.125 117.527344 C 237.125 117.320312 236.957031 117.15625 236.753906 117.15625 " fill-opacity="1" fill-rule="nonzero"/></g><path fill="#fff9f4" d="M 231.765625 118.089844 L 232.371094 118.089844 C 232.414062 118.089844 232.449219 118.054688 232.449219 118.011719 L 232.449219 117.230469 C 232.449219 117.1875 232.414062 117.152344 232.371094 117.152344 L 231.765625 117.152344 C 231.722656 117.152344 231.6875 117.1875 231.6875 117.230469 L 231.6875 118.011719 C 231.6875 118.054688 231.722656 118.089844 231.765625 118.089844 " fill-opacity="1" fill-rule="nonzero"/><path fill="#fff9f4" d="M 233.253906 118.089844 L 233.859375 118.089844 C 233.902344 118.089844 233.9375 118.054688 233.9375 118.011719 L 233.9375 117.230469 C 233.9375 117.1875 233.902344 117.152344 233.859375 117.152344 L 233.253906 117.152344 C 233.210938 117.152344 233.175781 117.1875 233.175781 117.230469 L 233.175781 118.011719 C 233.175781 118.054688 233.210938 118.089844 233.253906 118.089844 " fill-opacity="1" fill-rule="nonzero"/><path fill="#fff9f4" d="M 231.765625 116.625 L 232.371094 116.625 C 232.414062 116.625 232.449219 116.59375 232.449219 116.546875 L 232.449219 115.769531 C 232.449219 115.726562 232.414062 115.691406 232.371094 115.691406 L 231.765625 115.691406 C 231.722656 115.691406 231.6875 115.726562 231.6875 115.769531 L 231.6875 116.546875 C 231.6875 116.59375 231.722656 116.625 231.765625 116.625 " fill-opacity="1" fill-rule="nonzero"/><path fill="#fff9f4" d="M 230.894531 117.152344 L 230.289062 117.152344 C 230.246094 117.152344 230.210938 117.1875 230.210938 117.230469 L 230.210938 118.011719 C 230.210938 118.054688 230.246094 118.089844 230.289062 118.089844 L 230.894531 118.089844 C 230.9375 118.089844 230.972656 118.054688 230.972656 118.011719 L 230.972656 117.230469 C 230.972656 117.1875 230.9375 117.152344 230.894531 117.152344 " fill-opacity="1" fill-rule="nonzero"/><path fill="#fff9f4" d="M 230.210938 115.769531 L 230.210938 116.546875 C 230.210938 116.59375 230.246094 116.625 230.289062 116.625 L 230.894531 116.625 C 230.9375 116.625 230.972656 116.59375 230.972656 116.546875 L 230.972656 115.769531 C 230.972656 115.726562 230.9375 115.691406 230.894531 115.691406 L 230.289062 115.691406 C 230.246094 115.691406 230.210938 115.726562 230.210938 115.769531 " fill-opacity="1" fill-rule="nonzero"/><path fill="#fff9f4" d="M 233.253906 116.625 L 233.859375 116.625 C 233.902344 116.625 233.9375 116.59375 233.9375 116.546875 L 233.9375 115.769531 C 233.9375 115.726562 233.902344 115.691406 233.859375 115.691406 L 233.253906 115.691406 C 233.210938 115.691406 233.175781 115.726562 233.175781 115.769531 L 233.175781 116.546875 C 233.175781 116.59375 233.210938 116.625 233.253906 116.625 " fill-opacity="1" fill-rule="nonzero"/></svg>