<svg xmlns="http://www.w3.org/2000/svg" xmlns:xlink="http://www.w3.org/1999/xlink" width="500" zoomAndPan="magnify" viewBox="0 0 375 374.999991" height="500" preserveAspectRatio="xMidYMid meet" version="1.0"><defs><clipPath id="f84cd2628b"><path d="M 119 10.808594 L 253 10.808594 L 253 204 L 119 204 Z M 119 10.808594 " clip-rule="nonzero"/></clipPath><clipPath id="84b258878b"><path d="M 57.191406 156 L 317.441406 156 L 317.441406 364.058594 L 57.191406 364.058594 Z M 57.191406 156 " clip-rule="nonzero"/></clipPath></defs><g clip-path="url(#f84cd2628b)"><path fill="#fff9f4" d="M 185.804688 123.066406 C 160.53125 123.066406 140.039062 102.578125 140.039062 77.3125 C 140.039062 52.039062 160.53125 31.546875 185.804688 31.546875 C 211.066406 31.546875 231.558594 52.039062 231.558594 77.3125 C 231.558594 102.578125 211.066406 123.066406 185.804688 123.066406 Z M 185.804688 10.960938 C 149.15625 10.960938 119.453125 40.667969 119.453125 77.3125 C 119.453125 85.289062 120.867188 92.941406 123.453125 100.039062 L 123.445312 100.039062 C 123.660156 100.625 123.921875 101.300781 124.234375 102.042969 C 125.464844 105.105469 126.921875 108.054688 128.570312 110.863281 C 138.515625 129.597656 159.796875 163.960938 178.386719 194.632812 C 178.414062 194.703125 178.453125 194.769531 178.492188 194.839844 L 182.699219 201.800781 C 182.738281 201.867188 182.789062 201.9375 182.847656 202.003906 C 184.28125 204.074219 187.394531 204.054688 188.800781 201.945312 C 188.839844 201.898438 188.867188 201.847656 188.898438 201.800781 L 193.105469 194.839844 C 193.125 194.808594 193.144531 194.769531 193.15625 194.742188 C 201.210938 181.464844 209.761719 167.484375 217.679688 154.382812 C 228.074219 137.191406 237.375 121.507812 243.03125 110.863281 C 244.679688 108.054688 246.136719 105.105469 247.363281 102.042969 C 247.675781 101.300781 247.949219 100.625 248.15625 100.039062 C 250.730469 92.941406 252.148438 85.289062 252.148438 77.3125 C 252.148438 40.667969 222.441406 10.960938 185.804688 10.960938 " fill-opacity="1" fill-rule="nonzero"/></g><g clip-path="url(#84b258878b)"><path fill="#fff9f4" d="M 308.113281 251.628906 L 274.53125 251.628906 L 274.53125 166.441406 C 274.53125 161.070312 270.199219 156.714844 264.847656 156.714844 L 235.730469 156.714844 C 234.953125 156.714844 234.320312 157.347656 234.320312 158.128906 L 223.058594 174.753906 C 223.058594 175.535156 223.691406 176.171875 224.472656 176.171875 L 255.164062 176.171875 L 255.164062 344.582031 L 204.792969 344.582031 L 204.792969 301.652344 C 204.792969 300.738281 204.0625 300 203.152344 300 L 169.960938 300 C 169.054688 300 168.320312 300.738281 168.320312 301.652344 L 168.320312 344.582031 L 117.949219 344.582031 L 117.949219 176.171875 L 148.644531 176.171875 C 149.425781 176.171875 150.054688 175.535156 150.054688 174.753906 L 138.792969 158.128906 C 138.792969 157.347656 138.164062 156.714844 137.382812 156.714844 L 108.265625 156.714844 C 102.914062 156.714844 98.582031 161.070312 98.582031 166.441406 L 98.582031 251.628906 L 66.878906 251.628906 C 61.527344 251.628906 57.191406 255.984375 57.191406 261.355469 L 57.191406 354.308594 C 57.191406 359.683594 61.527344 364.035156 66.878906 364.035156 L 308.113281 364.035156 C 313.464844 364.035156 317.800781 359.683594 317.800781 354.308594 L 317.800781 261.355469 C 317.800781 255.984375 313.464844 251.628906 308.113281 251.628906 " fill-opacity="1" fill-rule="nonzero"/></g><path fill="#fff9f4" d="M 177.902344 275.984375 L 193.695312 275.984375 C 194.816406 275.984375 195.722656 275.074219 195.722656 273.949219 L 195.722656 253.632812 C 195.722656 252.511719 194.816406 251.597656 193.695312 251.597656 L 177.902344 251.597656 C 176.785156 251.597656 175.875 252.511719 175.875 253.632812 L 175.875 273.949219 C 175.875 275.074219 176.785156 275.984375 177.902344 275.984375 " fill-opacity="1" fill-rule="nonzero"/><path fill="#fff9f4" d="M 216.757812 275.984375 L 232.554688 275.984375 C 233.671875 275.984375 234.578125 275.074219 234.578125 273.949219 L 234.578125 253.632812 C 234.578125 252.511719 233.671875 251.597656 232.554688 251.597656 L 216.757812 251.597656 C 215.640625 251.597656 214.730469 252.511719 214.730469 253.632812 L 214.730469 273.949219 C 214.730469 275.074219 215.640625 275.984375 216.757812 275.984375 " fill-opacity="1" fill-rule="nonzero"/><path fill="#fff9f4" d="M 177.902344 237.839844 L 193.695312 237.839844 C 194.816406 237.839844 195.722656 236.929688 195.722656 235.804688 L 195.722656 215.488281 C 195.722656 214.367188 194.816406 213.453125 193.695312 213.453125 L 177.902344 213.453125 C 176.785156 213.453125 175.875 214.367188 175.875 215.488281 L 175.875 235.804688 C 175.875 236.929688 176.785156 237.839844 177.902344 237.839844 " fill-opacity="1" fill-rule="nonzero"/><path fill="#fff9f4" d="M 155.15625 251.597656 L 139.359375 251.597656 C 138.242188 251.597656 137.335938 252.511719 137.335938 253.632812 L 137.335938 273.949219 C 137.335938 275.074219 138.242188 275.984375 139.359375 275.984375 L 155.15625 275.984375 C 156.273438 275.984375 157.183594 275.074219 157.183594 273.949219 L 157.183594 253.632812 C 157.183594 252.511719 156.273438 251.597656 155.15625 251.597656 " fill-opacity="1" fill-rule="nonzero"/><path fill="#fff9f4" d="M 137.335938 215.488281 L 137.335938 235.804688 C 137.335938 236.929688 138.242188 237.839844 139.359375 237.839844 L 155.15625 237.839844 C 156.273438 237.839844 157.183594 236.929688 157.183594 235.804688 L 157.183594 215.488281 C 157.183594 214.367188 156.273438 213.453125 155.15625 213.453125 L 139.359375 213.453125 C 138.242188 213.453125 137.335938 214.367188 137.335938 215.488281 " fill-opacity="1" fill-rule="nonzero"/><path fill="#fff9f4" d="M 216.757812 237.839844 L 232.554688 237.839844 C 233.671875 237.839844 234.578125 236.929688 234.578125 235.804688 L 234.578125 215.488281 C 234.578125 214.367188 233.671875 213.453125 232.554688 213.453125 L 216.757812 213.453125 C 215.640625 213.453125 214.730469 214.367188 214.730469 215.488281 L 214.730469 235.804688 C 214.730469 236.929688 215.640625 237.839844 216.757812 237.839844 " fill-opacity="1" fill-rule="nonzero"/></svg>