<svg xmlns="http://www.w3.org/2000/svg" xmlns:xlink="http://www.w3.org/1999/xlink" width="500" zoomAndPan="magnify" viewBox="0 0 375 374.999991" height="500" preserveAspectRatio="xMidYMid meet" version="1.0"><defs><clipPath id="cd221bdeb9"><path d="M 32 30 L 349 30 L 349 345.613281 L 32 345.613281 Z M 32 30 " clip-rule="nonzero"/></clipPath></defs><g clip-path="url(#cd221bdeb9)"><path fill="#fff9f4" d="M 318.09375 91.246094 C 319.074219 91.242188 320.054688 91.191406 321.03125 91.09375 C 322.007812 90.996094 322.976562 90.847656 323.9375 90.65625 C 324.902344 90.464844 325.851562 90.230469 326.792969 89.945312 C 327.730469 89.664062 328.652344 89.335938 329.5625 88.964844 C 330.46875 88.589844 331.359375 88.175781 332.226562 87.71875 C 333.09375 87.261719 333.9375 86.761719 334.757812 86.226562 C 335.578125 85.6875 336.371094 85.109375 337.132812 84.492188 C 337.898438 83.878906 338.632812 83.226562 339.332031 82.542969 C 340.035156 81.855469 340.703125 81.140625 341.332031 80.390625 C 341.964844 79.640625 342.5625 78.859375 343.117188 78.054688 C 343.675781 77.246094 344.195312 76.414062 344.671875 75.554688 C 345.148438 74.699219 345.582031 73.820312 345.976562 72.921875 C 346.371094 72.023438 346.71875 71.105469 347.023438 70.175781 C 347.328125 69.242188 347.585938 68.296875 347.800781 67.339844 C 348.011719 66.382812 348.179688 65.414062 348.300781 64.441406 C 348.421875 63.46875 348.496094 62.492188 348.519531 61.511719 C 348.546875 60.53125 348.527344 59.550781 348.457031 58.570312 C 348.390625 57.59375 348.277344 56.617188 348.113281 55.652344 C 347.953125 54.683594 347.746094 53.726562 347.488281 52.777344 C 347.234375 51.832031 346.9375 50.898438 346.59375 49.976562 C 346.25 49.058594 345.863281 48.160156 345.429688 47.277344 C 345 46.394531 344.527344 45.539062 344.015625 44.703125 C 343.503906 43.863281 342.949219 43.054688 342.359375 42.273438 C 341.765625 41.488281 341.140625 40.738281 340.476562 40.015625 C 339.8125 39.292969 339.113281 38.601562 338.386719 37.949219 C 337.65625 37.292969 336.894531 36.675781 336.105469 36.09375 C 335.316406 35.511719 334.5 34.96875 333.65625 34.464844 C 332.816406 33.960938 331.949219 33.5 331.0625 33.078125 C 330.179688 32.65625 329.273438 32.28125 328.351562 31.949219 C 327.425781 31.613281 326.492188 31.328125 325.539062 31.082031 C 324.589844 30.839844 323.628906 30.644531 322.660156 30.492188 C 321.691406 30.34375 320.714844 30.238281 319.738281 30.183594 C 318.757812 30.125 317.777344 30.117188 316.796875 30.15625 C 315.816406 30.191406 314.839844 30.277344 313.867188 30.410156 C 312.894531 30.542969 311.933594 30.71875 310.976562 30.945312 C 310.023438 31.167969 309.078125 31.441406 308.152344 31.753906 C 307.222656 32.070312 306.308594 32.429688 305.414062 32.832031 C 304.519531 33.234375 303.648438 33.679688 302.796875 34.167969 C 301.945312 34.65625 301.121094 35.183594 300.320312 35.75 C 299.519531 36.316406 298.746094 36.921875 298.003906 37.5625 C 297.261719 38.203125 296.550781 38.878906 295.875 39.589844 C 295.195312 40.296875 294.554688 41.039062 293.949219 41.8125 C 293.34375 42.582031 292.773438 43.382812 292.246094 44.207031 C 291.714844 45.035156 291.226562 45.882812 290.78125 46.757812 C 290.332031 47.628906 289.929688 48.523438 289.566406 49.433594 C 289.207031 50.347656 288.890625 51.273438 288.617188 52.214844 C 288.34375 53.160156 288.117188 54.113281 287.9375 55.078125 C 287.757812 56.042969 287.625 57.011719 287.539062 57.988281 L 233.960938 96.339844 C 233.308594 95.542969 232.632812 94.761719 231.933594 94.003906 C 231.238281 93.246094 230.519531 92.503906 229.78125 91.785156 C 229.042969 91.066406 228.285156 90.367188 227.507812 89.6875 C 226.734375 89.011719 225.9375 88.355469 225.125 87.722656 C 224.3125 87.085938 223.480469 86.476562 222.636719 85.886719 C 221.789062 85.300781 220.925781 84.734375 220.046875 84.195312 C 219.171875 83.65625 218.277344 83.136719 217.371094 82.648438 C 216.464844 82.15625 215.546875 81.691406 214.613281 81.25 C 213.683594 80.808594 212.738281 80.394531 211.785156 80.003906 C 210.828125 79.617188 209.863281 79.253906 208.890625 78.921875 C 207.914062 78.585938 206.929688 78.277344 205.9375 77.996094 C 204.945312 77.714844 203.949219 77.460938 202.941406 77.234375 C 201.9375 77.011719 200.925781 76.8125 199.90625 76.640625 C 198.890625 76.472656 197.871094 76.332031 196.847656 76.21875 C 195.820312 76.101562 194.792969 76.019531 193.765625 75.960938 C 192.734375 75.90625 191.707031 75.875 190.675781 75.875 C 189.644531 75.875 188.613281 75.90625 187.582031 75.960938 C 186.554688 76.019531 185.527344 76.101562 184.503906 76.21875 C 183.476562 76.332031 182.457031 76.472656 181.441406 76.640625 C 180.421875 76.8125 179.410156 77.011719 178.40625 77.234375 C 177.398438 77.460938 176.402344 77.714844 175.410156 77.996094 C 174.417969 78.277344 173.433594 78.585938 172.460938 78.921875 C 171.484375 79.253906 170.519531 79.617188 169.5625 80.003906 C 168.609375 80.394531 167.664062 80.808594 166.734375 81.25 C 165.800781 81.691406 164.882812 82.15625 163.976562 82.648438 C 163.070312 83.136719 162.175781 83.65625 161.300781 84.195312 C 160.421875 84.734375 159.558594 85.300781 158.714844 85.886719 C 157.867188 86.476562 157.035156 87.085938 156.222656 87.722656 C 155.410156 88.355469 154.617188 89.011719 153.839844 89.6875 C 153.0625 90.367188 152.304688 91.066406 151.566406 91.785156 C 150.828125 92.503906 150.109375 93.246094 149.414062 94.003906 C 148.714844 94.761719 148.039062 95.542969 147.386719 96.339844 L 94.011719 57.988281 C 93.957031 57.367188 93.878906 56.746094 93.78125 56.128906 C 93.6875 55.507812 93.570312 54.894531 93.4375 54.28125 C 93.304688 53.671875 93.148438 53.0625 92.980469 52.460938 C 92.808594 51.859375 92.617188 51.265625 92.410156 50.675781 C 92.203125 50.082031 91.976562 49.5 91.734375 48.921875 C 91.488281 48.347656 91.226562 47.777344 90.949219 47.21875 C 90.671875 46.65625 90.375 46.105469 90.0625 45.5625 C 89.75 45.023438 89.421875 44.488281 89.074219 43.96875 C 88.730469 43.445312 88.371094 42.933594 87.992188 42.433594 C 87.617188 41.933594 87.222656 41.449219 86.816406 40.972656 C 86.410156 40.496094 85.992188 40.03125 85.554688 39.582031 C 85.121094 39.132812 84.671875 38.695312 84.210938 38.273438 C 83.746094 37.851562 83.273438 37.445312 82.785156 37.050781 C 82.300781 36.65625 81.800781 36.28125 81.289062 35.917969 C 80.78125 35.554688 80.261719 35.207031 79.726562 34.878906 C 79.195312 34.546875 78.65625 34.234375 78.105469 33.9375 C 77.554688 33.636719 76.996094 33.359375 76.425781 33.09375 C 75.859375 32.832031 75.285156 32.585938 74.699219 32.359375 C 74.117188 32.132812 73.527344 31.921875 72.933594 31.730469 C 72.335938 31.539062 71.734375 31.367188 71.128906 31.210938 C 70.523438 31.058594 69.910156 30.921875 69.296875 30.804688 C 68.679688 30.6875 68.0625 30.589844 67.441406 30.511719 C 66.820312 30.433594 66.199219 30.371094 65.574219 30.332031 C 64.949219 30.292969 64.324219 30.269531 63.699219 30.265625 C 63.074219 30.265625 62.449219 30.28125 61.824219 30.320312 C 61.199219 30.355469 60.574219 30.410156 59.953125 30.484375 C 59.332031 30.558594 58.714844 30.652344 58.097656 30.765625 C 57.480469 30.878906 56.871094 31.007812 56.261719 31.160156 C 55.65625 31.308594 55.050781 31.476562 54.457031 31.664062 C 53.859375 31.851562 53.265625 32.054688 52.683594 32.28125 C 52.097656 32.503906 51.519531 32.746094 50.949219 33.003906 C 50.382812 33.261719 49.820312 33.539062 49.265625 33.832031 C 48.714844 34.125 48.171875 34.433594 47.636719 34.761719 C 47.101562 35.089844 46.578125 35.429688 46.066406 35.789062 C 45.554688 36.148438 45.054688 36.523438 44.5625 36.914062 C 44.074219 37.304688 43.597656 37.707031 43.132812 38.125 C 42.667969 38.546875 42.214844 38.976562 41.777344 39.425781 C 41.335938 39.871094 40.914062 40.332031 40.503906 40.804688 C 40.09375 41.277344 39.699219 41.761719 39.316406 42.257812 C 38.9375 42.757812 38.574219 43.265625 38.222656 43.785156 C 37.875 44.304688 37.542969 44.832031 37.226562 45.375 C 36.910156 45.914062 36.609375 46.464844 36.328125 47.019531 C 36.042969 47.578125 35.777344 48.144531 35.53125 48.722656 C 35.285156 49.296875 35.054688 49.878906 34.839844 50.464844 C 34.628906 51.054688 34.433594 51.648438 34.257812 52.25 C 34.085938 52.851562 33.925781 53.457031 33.789062 54.066406 C 33.648438 54.679688 33.53125 55.292969 33.429688 55.910156 C 33.328125 56.527344 33.246094 57.148438 33.183594 57.769531 C 33.121094 58.394531 33.078125 59.015625 33.054688 59.640625 C 33.03125 60.269531 33.027344 60.894531 33.039062 61.519531 C 33.054688 62.144531 33.085938 62.769531 33.140625 63.394531 C 33.191406 64.015625 33.265625 64.636719 33.355469 65.257812 C 33.445312 65.878906 33.554688 66.492188 33.683594 67.105469 C 33.8125 67.71875 33.960938 68.324219 34.125 68.929688 C 34.292969 69.53125 34.476562 70.128906 34.679688 70.722656 C 34.882812 71.316406 35.105469 71.898438 35.34375 72.480469 C 35.582031 73.058594 35.835938 73.628906 36.109375 74.191406 C 36.386719 74.753906 36.675781 75.308594 36.984375 75.851562 C 37.292969 76.398438 37.617188 76.933594 37.957031 77.457031 C 38.296875 77.984375 38.652344 78.496094 39.027344 79 C 39.398438 79.503906 39.785156 79.992188 40.1875 80.472656 C 40.589844 80.953125 41.007812 81.417969 41.4375 81.871094 C 41.871094 82.328125 42.3125 82.765625 42.773438 83.191406 C 43.230469 83.621094 43.703125 84.03125 44.183594 84.429688 C 44.667969 84.828125 45.164062 85.207031 45.671875 85.574219 C 46.175781 85.941406 46.695312 86.292969 47.222656 86.628906 C 47.753906 86.964844 48.289062 87.28125 48.839844 87.585938 C 49.386719 87.886719 49.945312 88.171875 50.507812 88.441406 C 51.074219 88.707031 51.648438 88.957031 52.230469 89.191406 C 52.8125 89.421875 53.398438 89.636719 53.992188 89.835938 C 54.585938 90.03125 55.1875 90.210938 55.792969 90.367188 C 56.398438 90.527344 57.007812 90.667969 57.621094 90.792969 C 58.234375 90.914062 58.851562 91.015625 59.472656 91.101562 C 60.089844 91.1875 60.714844 91.25 61.335938 91.296875 C 61.960938 91.34375 62.585938 91.371094 63.210938 91.378906 C 63.839844 91.386719 64.464844 91.375 65.089844 91.34375 C 65.714844 91.3125 66.339844 91.261719 66.960938 91.195312 C 67.582031 91.125 68.203125 91.035156 68.816406 90.929688 C 69.433594 90.824219 70.046875 90.695312 70.65625 90.550781 C 71.265625 90.40625 71.871094 90.242188 72.46875 90.0625 C 73.066406 89.878906 73.660156 89.679688 74.246094 89.460938 C 74.832031 89.242188 75.414062 89.007812 75.984375 88.753906 C 76.554688 88.5 77.121094 88.226562 77.675781 87.941406 C 78.230469 87.652344 78.777344 87.347656 79.3125 87.023438 C 79.851562 86.703125 80.375 86.363281 80.890625 86.007812 C 81.410156 85.65625 81.914062 85.285156 82.40625 84.898438 C 82.898438 84.515625 83.378906 84.113281 83.847656 83.699219 C 84.316406 83.285156 84.773438 82.855469 85.214844 82.410156 C 85.65625 81.96875 86.085938 81.511719 86.5 81.042969 C 86.914062 80.574219 87.3125 80.09375 87.695312 79.597656 C 88.082031 79.105469 88.449219 78.601562 88.804688 78.082031 C 89.15625 77.566406 89.496094 77.039062 89.816406 76.503906 C 90.136719 75.964844 90.441406 75.417969 90.730469 74.863281 C 91.015625 74.308594 91.285156 73.742188 91.539062 73.171875 C 91.792969 72.597656 92.027344 72.019531 92.246094 71.429688 C 92.460938 70.84375 92.660156 70.25 92.84375 69.652344 L 141.988281 104.742188 C 139.972656 108.257812 138.355469 111.945312 137.136719 115.808594 C 135.917969 119.675781 135.125 123.625 134.753906 127.660156 L 113.214844 131.222656 C 112.972656 130.441406 112.6875 129.675781 112.355469 128.929688 C 112.023438 128.179688 111.644531 127.457031 111.226562 126.753906 C 110.804688 126.050781 110.347656 125.375 109.84375 124.730469 C 109.34375 124.082031 108.804688 123.46875 108.230469 122.886719 C 107.65625 122.304688 107.046875 121.757812 106.40625 121.25 C 105.765625 120.742188 105.097656 120.273438 104.398438 119.84375 C 103.703125 119.414062 102.980469 119.03125 102.238281 118.6875 C 101.496094 118.347656 100.734375 118.050781 99.953125 117.804688 C 99.175781 117.554688 98.382812 117.351562 97.578125 117.195312 C 96.777344 117.042969 95.964844 116.9375 95.148438 116.878906 C 94.332031 116.824219 93.515625 116.816406 92.699219 116.859375 C 91.882812 116.898438 91.070312 116.992188 90.265625 117.128906 C 89.457031 117.269531 88.664062 117.457031 87.878906 117.691406 C 87.09375 117.929688 86.328125 118.210938 85.578125 118.539062 C 84.828125 118.867188 84.101562 119.238281 83.398438 119.652344 C 82.691406 120.066406 82.015625 120.523438 81.363281 121.019531 C 80.714844 121.519531 80.097656 122.054688 79.511719 122.625 C 78.925781 123.195312 78.375 123.800781 77.863281 124.4375 C 77.351562 125.074219 76.878906 125.742188 76.445312 126.4375 C 76.011719 127.132812 75.625 127.847656 75.277344 128.589844 C 74.933594 129.332031 74.632812 130.09375 74.378906 130.871094 C 74.125 131.648438 73.917969 132.4375 73.757812 133.242188 C 73.597656 134.042969 73.488281 134.851562 73.425781 135.667969 C 73.363281 136.484375 73.351562 137.300781 73.390625 138.117188 C 73.425781 138.9375 73.511719 139.75 73.644531 140.554688 C 73.78125 141.363281 73.964844 142.160156 74.195312 142.945312 C 74.425781 143.730469 74.703125 144.496094 75.023438 145.25 C 75.347656 146 75.714844 146.730469 76.125 147.4375 C 76.539062 148.144531 76.988281 148.824219 77.484375 149.480469 C 77.976562 150.132812 78.507812 150.753906 79.074219 151.34375 C 79.640625 151.929688 80.242188 152.484375 80.878906 153 C 81.511719 153.515625 82.175781 153.992188 82.867188 154.429688 C 83.558594 154.867188 84.277344 155.261719 85.015625 155.609375 C 85.753906 155.960938 86.511719 156.265625 87.289062 156.527344 C 88.066406 156.785156 88.855469 156.996094 89.65625 157.160156 C 90.457031 157.324219 91.265625 157.441406 92.082031 157.507812 C 92.898438 157.574219 93.714844 157.589844 94.53125 157.558594 C 95.347656 157.527344 96.160156 157.445312 96.96875 157.316406 C 97.777344 157.1875 98.574219 157.007812 99.359375 156.78125 C 100.148438 156.558594 100.917969 156.285156 101.671875 155.964844 C 102.425781 155.648438 103.15625 155.285156 103.867188 154.878906 C 104.578125 154.472656 105.261719 154.023438 105.914062 153.535156 C 106.570312 153.046875 107.195312 152.519531 107.789062 151.953125 C 108.382812 151.390625 108.9375 150.792969 109.457031 150.160156 C 109.980469 149.527344 110.460938 148.867188 110.902344 148.179688 C 111.339844 147.488281 111.738281 146.777344 112.09375 146.039062 C 112.449219 145.300781 112.757812 144.546875 113.023438 143.773438 C 113.285156 142.996094 113.503906 142.210938 113.671875 141.410156 L 134.910156 137.894531 C 135.386719 142.398438 136.398438 146.78125 137.949219 151.035156 C 139.5 155.292969 141.542969 159.296875 144.074219 163.054688 L 81.945312 209.601562 C 81.746094 209.125 81.535156 208.660156 81.308594 208.195312 C 81.082031 207.734375 80.84375 207.28125 80.589844 206.832031 C 80.335938 206.386719 80.070312 205.945312 79.789062 205.515625 C 79.507812 205.085938 79.214844 204.664062 78.910156 204.25 C 78.605469 203.835938 78.285156 203.433594 77.957031 203.039062 C 77.625 202.644531 77.285156 202.261719 76.929688 201.886719 C 76.578125 201.511719 76.210938 201.152344 75.835938 200.800781 C 75.460938 200.449219 75.078125 200.109375 74.679688 199.78125 C 74.285156 199.453125 73.878906 199.136719 73.464844 198.832031 C 73.046875 198.53125 72.625 198.238281 72.191406 197.960938 C 71.757812 197.683594 71.320312 197.417969 70.871094 197.167969 C 70.421875 196.917969 69.964844 196.679688 69.503906 196.457031 C 69.039062 196.234375 68.570312 196.023438 68.09375 195.828125 C 67.617188 195.632812 67.136719 195.453125 66.652344 195.289062 C 66.164062 195.121094 65.671875 194.972656 65.175781 194.835938 C 64.683594 194.699219 64.183594 194.578125 63.679688 194.472656 C 63.175781 194.367188 62.671875 194.277344 62.160156 194.199219 C 61.652344 194.125 61.144531 194.066406 60.628906 194.023438 C 60.117188 193.976562 59.605469 193.949219 59.089844 193.933594 C 58.578125 193.921875 58.0625 193.925781 57.550781 193.941406 C 57.035156 193.960938 56.523438 193.992188 56.011719 194.042969 C 55.5 194.09375 54.988281 194.15625 54.480469 194.234375 C 53.972656 194.316406 53.46875 194.410156 52.96875 194.523438 C 52.464844 194.632812 51.964844 194.757812 51.472656 194.898438 C 50.976562 195.039062 50.488281 195.195312 50.003906 195.363281 C 49.515625 195.535156 49.039062 195.71875 48.5625 195.917969 C 48.089844 196.117188 47.621094 196.332031 47.160156 196.558594 C 46.699219 196.785156 46.246094 197.027344 45.800781 197.285156 C 45.355469 197.539062 44.917969 197.808594 44.484375 198.089844 C 44.054688 198.371094 43.636719 198.664062 43.222656 198.972656 C 42.808594 199.277344 42.40625 199.597656 42.015625 199.929688 C 41.621094 200.261719 41.238281 200.605469 40.867188 200.960938 C 40.496094 201.3125 40.132812 201.679688 39.785156 202.054688 C 39.433594 202.433594 39.097656 202.820312 38.769531 203.21875 C 38.441406 203.613281 38.128906 204.019531 37.828125 204.4375 C 37.523438 204.851562 37.234375 205.277344 36.960938 205.710938 C 36.683594 206.144531 36.421875 206.585938 36.171875 207.035156 C 35.921875 207.484375 35.6875 207.941406 35.464844 208.40625 C 35.242188 208.871094 35.035156 209.339844 34.839844 209.816406 C 34.648438 210.292969 34.46875 210.773438 34.304688 211.261719 C 34.140625 211.75 33.992188 212.242188 33.859375 212.738281 C 33.722656 213.234375 33.605469 213.734375 33.5 214.238281 C 33.394531 214.742188 33.308594 215.246094 33.234375 215.753906 C 33.160156 216.265625 33.101562 216.773438 33.058594 217.289062 C 33.019531 217.800781 32.992188 218.3125 32.980469 218.828125 C 32.96875 219.339844 32.972656 219.855469 32.992188 220.367188 C 33.011719 220.882812 33.046875 221.394531 33.097656 221.90625 C 33.148438 222.417969 33.214844 222.925781 33.296875 223.433594 C 33.378906 223.941406 33.476562 224.449219 33.585938 224.949219 C 33.699219 225.449219 33.828125 225.949219 33.96875 226.441406 C 34.113281 226.9375 34.269531 227.425781 34.441406 227.910156 C 34.613281 228.394531 34.800781 228.875 35 229.347656 C 35.203125 229.820312 35.417969 230.285156 35.644531 230.746094 C 35.875 231.207031 36.117188 231.660156 36.375 232.105469 C 36.632812 232.550781 36.902344 232.988281 37.183594 233.417969 C 37.46875 233.847656 37.765625 234.265625 38.074219 234.675781 C 38.382812 235.089844 38.703125 235.488281 39.035156 235.882812 C 39.367188 236.273438 39.710938 236.65625 40.066406 237.027344 C 40.425781 237.398438 40.792969 237.757812 41.167969 238.105469 C 41.546875 238.453125 41.933594 238.789062 42.332031 239.117188 C 42.730469 239.441406 43.140625 239.753906 43.554688 240.054688 C 43.972656 240.355469 44.398438 240.640625 44.835938 240.917969 C 45.269531 241.191406 45.710938 241.453125 46.160156 241.699219 C 46.613281 241.949219 47.070312 242.183594 47.535156 242.402344 C 48 242.621094 48.46875 242.828125 48.945312 243.019531 C 49.421875 243.210938 49.90625 243.386719 50.394531 243.550781 C 50.882812 243.714844 51.375 243.859375 51.871094 243.992188 C 52.367188 244.125 52.867188 244.242188 53.371094 244.34375 C 53.875 244.449219 54.382812 244.535156 54.890625 244.605469 C 55.398438 244.679688 55.910156 244.734375 56.421875 244.773438 C 56.9375 244.816406 57.449219 244.839844 57.964844 244.851562 C 58.476562 244.859375 58.992188 244.855469 59.503906 244.832031 C 60.019531 244.8125 60.53125 244.773438 61.042969 244.722656 C 61.554688 244.667969 62.0625 244.601562 62.570312 244.515625 C 63.078125 244.433594 63.582031 244.335938 64.082031 244.21875 C 64.585938 244.105469 65.082031 243.976562 65.574219 243.832031 C 66.070312 243.6875 66.558594 243.53125 67.042969 243.355469 C 67.527344 243.183594 68.003906 242.996094 68.476562 242.792969 C 68.949219 242.589844 69.414062 242.371094 69.875 242.140625 C 70.332031 241.910156 70.785156 241.667969 71.230469 241.40625 C 71.675781 241.148438 72.109375 240.878906 72.539062 240.59375 C 72.964844 240.308594 73.386719 240.011719 73.796875 239.703125 C 74.207031 239.390625 74.605469 239.070312 74.996094 238.734375 C 75.386719 238.398438 75.765625 238.054688 76.136719 237.695312 C 76.507812 237.339844 76.863281 236.972656 77.210938 236.59375 C 77.558594 236.214844 77.894531 235.824219 78.21875 235.425781 C 78.542969 235.023438 78.855469 234.617188 79.152344 234.199219 C 79.453125 233.78125 79.738281 233.351562 80.011719 232.917969 C 80.285156 232.480469 80.542969 232.039062 80.789062 231.585938 C 81.035156 231.136719 81.269531 230.675781 81.488281 230.210938 C 81.707031 229.746094 81.910156 229.273438 82.101562 228.796875 C 82.289062 228.320312 82.464844 227.835938 82.625 227.347656 C 82.785156 226.859375 82.933594 226.367188 83.0625 225.871094 C 83.195312 225.371094 83.308594 224.871094 83.410156 224.367188 C 83.511719 223.863281 83.59375 223.355469 83.664062 222.847656 C 83.734375 222.339844 83.789062 221.828125 83.828125 221.3125 L 150.898438 170.996094 C 154.28125 174.503906 158.058594 177.515625 162.230469 180.039062 C 166.398438 182.558594 170.820312 184.503906 175.496094 185.867188 L 175.496094 211.332031 L 166.992188 202.828125 C 166.253906 202.09375 165.457031 201.4375 164.59375 200.855469 C 163.734375 200.269531 162.828125 199.769531 161.875 199.355469 C 160.921875 198.941406 159.9375 198.617188 158.925781 198.386719 C 157.910156 198.15625 156.882812 198.019531 155.847656 197.980469 C 154.808594 197.9375 153.773438 197.992188 152.746094 198.144531 C 151.714844 198.296875 150.710938 198.542969 149.726562 198.882812 C 148.746094 199.21875 147.800781 199.648438 146.898438 200.160156 C 145.996094 200.675781 145.148438 201.269531 144.355469 201.941406 C 143.5625 202.613281 142.835938 203.355469 142.183594 204.160156 C 141.527344 204.96875 140.953125 205.828125 140.457031 206.742188 C 139.960938 207.65625 139.554688 208.609375 139.238281 209.597656 C 138.917969 210.589844 138.695312 211.601562 138.566406 212.632812 C 138.4375 213.664062 138.402344 214.699219 138.464844 215.734375 C 138.53125 216.773438 138.6875 217.796875 138.941406 218.804688 C 139.195312 219.8125 139.539062 220.789062 139.972656 221.734375 C 140.410156 222.675781 140.925781 223.574219 141.527344 224.421875 L 160.21875 250.75 L 160.21875 305.140625 C 159.886719 305.140625 159.554688 305.171875 159.226562 305.238281 C 158.898438 305.304688 158.578125 305.402344 158.269531 305.527344 C 157.960938 305.65625 157.667969 305.8125 157.390625 306 C 157.113281 306.183594 156.855469 306.394531 156.617188 306.632812 C 156.382812 306.871094 156.171875 307.125 155.984375 307.40625 C 155.800781 307.683594 155.640625 307.976562 155.515625 308.285156 C 155.386719 308.59375 155.289062 308.914062 155.222656 309.242188 C 155.160156 309.566406 155.125 309.898438 155.125 310.234375 L 155.125 340.789062 C 155.125 341.125 155.160156 341.457031 155.222656 341.785156 C 155.289062 342.113281 155.386719 342.429688 155.515625 342.738281 C 155.640625 343.046875 155.800781 343.339844 155.984375 343.621094 C 156.171875 343.898438 156.382812 344.15625 156.617188 344.390625 C 156.855469 344.628906 157.113281 344.839844 157.390625 345.023438 C 157.667969 345.210938 157.960938 345.367188 158.269531 345.496094 C 158.578125 345.625 158.898438 345.71875 159.226562 345.785156 C 159.554688 345.851562 159.886719 345.882812 160.21875 345.882812 L 251.890625 345.882812 C 252.222656 345.882812 252.554688 345.851562 252.882812 345.785156 C 253.210938 345.71875 253.527344 345.625 253.839844 345.496094 C 254.148438 345.367188 254.441406 345.210938 254.71875 345.023438 C 254.996094 344.839844 255.253906 344.628906 255.488281 344.390625 C 255.726562 344.15625 255.9375 343.898438 256.125 343.621094 C 256.308594 343.339844 256.464844 343.046875 256.59375 342.738281 C 256.722656 342.429688 256.820312 342.113281 256.882812 341.785156 C 256.949219 341.457031 256.980469 341.125 256.980469 340.789062 L 256.980469 310.234375 C 256.980469 309.898438 256.949219 309.566406 256.882812 309.242188 C 256.820312 308.914062 256.722656 308.59375 256.59375 308.285156 C 256.464844 307.976562 256.308594 307.683594 256.125 307.40625 C 255.9375 307.125 255.726562 306.871094 255.488281 306.632812 C 255.253906 306.394531 254.996094 306.183594 254.71875 306 C 254.441406 305.8125 254.148438 305.65625 253.839844 305.527344 C 253.527344 305.402344 253.210938 305.304688 252.882812 305.238281 C 252.554688 305.171875 252.222656 305.140625 251.890625 305.140625 L 251.890625 297.554688 C 254.269531 295.714844 256.410156 293.628906 258.3125 291.296875 C 260.214844 288.964844 261.828125 286.449219 263.152344 283.746094 C 264.476562 281.042969 265.480469 278.226562 266.15625 275.296875 C 266.835938 272.363281 267.171875 269.394531 267.167969 266.386719 L 267.167969 223.65625 C 267.167969 223.035156 267.128906 222.414062 267.050781 221.796875 C 266.976562 221.179688 266.863281 220.570312 266.710938 219.964844 C 266.558594 219.363281 266.371094 218.769531 266.148438 218.1875 C 265.925781 217.609375 265.667969 217.042969 265.375 216.496094 C 265.082031 215.945312 264.757812 215.414062 264.402344 214.90625 C 264.042969 214.394531 263.65625 213.910156 263.242188 213.449219 C 262.824219 212.984375 262.382812 212.550781 261.914062 212.140625 C 261.441406 211.734375 260.949219 211.355469 260.433594 211.007812 C 259.917969 210.660156 259.382812 210.34375 258.828125 210.0625 C 258.273438 209.777344 257.707031 209.53125 257.121094 209.316406 C 256.535156 209.105469 255.941406 208.929688 255.335938 208.789062 C 254.730469 208.648438 254.117188 208.546875 253.496094 208.480469 C 252.878906 208.414062 252.257812 208.386719 251.636719 208.398438 C 251.015625 208.40625 250.394531 208.453125 249.777344 208.539062 C 249.164062 208.625 248.554688 208.75 247.953125 208.910156 C 247.351562 209.070312 246.761719 209.265625 246.183594 209.5 C 245.96875 208.695312 245.691406 207.917969 245.347656 207.160156 C 245.003906 206.402344 244.601562 205.679688 244.140625 204.988281 C 243.679688 204.296875 243.164062 203.648438 242.597656 203.042969 C 242.03125 202.433594 241.417969 201.878906 240.761719 201.371094 C 240.101562 200.863281 239.40625 200.414062 238.675781 200.019531 C 237.945312 199.625 237.183594 199.292969 236.398438 199.023438 C 235.613281 198.753906 234.8125 198.546875 233.992188 198.410156 C 233.171875 198.269531 232.347656 198.199219 231.519531 198.191406 C 228.839844 198.203125 226.34375 198.882812 224.03125 200.230469 C 223.574219 199.503906 223.058594 198.820312 222.484375 198.183594 C 221.910156 197.542969 221.289062 196.957031 220.617188 196.421875 C 219.945312 195.890625 219.234375 195.414062 218.480469 195 C 217.730469 194.585938 216.949219 194.238281 216.136719 193.957031 C 215.328125 193.671875 214.5 193.460938 213.652344 193.316406 C 212.804688 193.175781 211.953125 193.105469 211.09375 193.105469 C 210.238281 193.105469 209.382812 193.179688 208.539062 193.324219 C 207.691406 193.46875 206.863281 193.683594 206.054688 193.964844 L 206.054688 185.867188 C 210.777344 184.523438 215.246094 182.589844 219.457031 180.066406 C 223.671875 177.546875 227.488281 174.523438 230.90625 170.996094 L 297.980469 221.3125 C 298.035156 221.824219 298.109375 222.335938 298.195312 222.84375 C 298.285156 223.347656 298.386719 223.851562 298.503906 224.351562 C 298.625 224.855469 298.757812 225.351562 298.90625 225.84375 C 299.054688 226.335938 299.21875 226.824219 299.394531 227.304688 C 299.574219 227.789062 299.765625 228.265625 299.972656 228.738281 C 300.179688 229.207031 300.402344 229.671875 300.636719 230.128906 C 300.871094 230.585938 301.121094 231.039062 301.382812 231.480469 C 301.644531 231.921875 301.921875 232.355469 302.210938 232.78125 C 302.5 233.207031 302.800781 233.625 303.113281 234.03125 C 303.429688 234.441406 303.753906 234.839844 304.09375 235.226562 C 304.429688 235.613281 304.78125 235.992188 305.140625 236.355469 C 305.503906 236.722656 305.875 237.078125 306.257812 237.421875 C 306.640625 237.765625 307.03125 238.097656 307.433594 238.417969 C 307.839844 238.738281 308.25 239.046875 308.671875 239.34375 C 309.09375 239.636719 309.523438 239.921875 309.960938 240.191406 C 310.398438 240.460938 310.847656 240.714844 311.300781 240.957031 C 311.753906 241.199219 312.214844 241.425781 312.683594 241.640625 C 313.152344 241.855469 313.625 242.054688 314.105469 242.242188 C 314.585938 242.425781 315.070312 242.597656 315.558594 242.753906 C 316.050781 242.910156 316.542969 243.050781 317.042969 243.175781 C 317.542969 243.304688 318.042969 243.414062 318.550781 243.511719 C 319.054688 243.605469 319.5625 243.6875 320.074219 243.75 C 320.582031 243.816406 321.097656 243.863281 321.609375 243.898438 C 322.121094 243.933594 322.636719 243.949219 323.152344 243.953125 C 323.664062 243.957031 324.179688 243.945312 324.695312 243.914062 C 325.207031 243.886719 325.71875 243.84375 326.230469 243.78125 C 326.742188 243.722656 327.25 243.648438 327.757812 243.558594 C 328.265625 243.46875 328.765625 243.363281 329.265625 243.242188 C 329.765625 243.121094 330.261719 242.984375 330.753906 242.832031 C 331.246094 242.683594 331.734375 242.515625 332.214844 242.335938 C 332.699219 242.15625 333.171875 241.960938 333.644531 241.753906 C 334.113281 241.542969 334.578125 241.320312 335.035156 241.082031 C 335.488281 240.84375 335.9375 240.59375 336.378906 240.328125 C 336.820312 240.0625 337.253906 239.785156 337.679688 239.496094 C 338.101562 239.203125 338.519531 238.902344 338.925781 238.585938 C 339.332031 238.269531 339.726562 237.941406 340.113281 237.601562 C 340.5 237.261719 340.875 236.910156 341.238281 236.546875 C 341.605469 236.183594 341.957031 235.8125 342.300781 235.425781 C 342.640625 235.042969 342.972656 234.648438 343.289062 234.246094 C 343.609375 233.839844 343.914062 233.425781 344.207031 233.003906 C 344.5 232.582031 344.78125 232.148438 345.046875 231.710938 C 345.316406 231.269531 345.570312 230.824219 345.808594 230.367188 C 346.050781 229.914062 346.273438 229.449219 346.488281 228.980469 C 346.699219 228.511719 346.898438 228.039062 347.082031 227.558594 C 347.261719 227.078125 347.433594 226.589844 347.585938 226.097656 C 347.738281 225.609375 347.878906 225.113281 348 224.613281 C 348.125 224.113281 348.234375 223.613281 348.328125 223.105469 C 348.421875 222.601562 348.5 222.089844 348.5625 221.582031 C 348.625 221.070312 348.671875 220.558594 348.703125 220.042969 C 348.734375 219.53125 348.75 219.015625 348.75 218.503906 C 348.75 217.988281 348.734375 217.472656 348.703125 216.960938 C 348.671875 216.445312 348.625 215.933594 348.5625 215.421875 C 348.5 214.914062 348.425781 214.402344 348.332031 213.898438 C 348.238281 213.390625 348.128906 212.890625 348.007812 212.390625 C 347.882812 211.890625 347.746094 211.394531 347.59375 210.902344 C 347.4375 210.414062 347.269531 209.925781 347.089844 209.445312 C 346.90625 208.964844 346.707031 208.488281 346.496094 208.019531 C 346.285156 207.550781 346.058594 207.089844 345.820312 206.632812 C 345.582031 206.179688 345.328125 205.730469 345.0625 205.289062 C 344.792969 204.851562 344.515625 204.417969 344.222656 203.996094 C 343.929688 203.574219 343.625 203.160156 343.304688 202.753906 C 342.988281 202.351562 342.65625 201.957031 342.316406 201.570312 C 341.972656 201.1875 341.621094 200.8125 341.257812 200.449219 C 340.890625 200.085938 340.515625 199.734375 340.128906 199.394531 C 339.746094 199.054688 339.347656 198.726562 338.941406 198.410156 C 338.539062 198.09375 338.121094 197.789062 337.699219 197.5 C 337.273438 197.207031 336.839844 196.929688 336.402344 196.664062 C 335.960938 196.398438 335.511719 196.148438 335.054688 195.910156 C 334.597656 195.671875 334.136719 195.449219 333.664062 195.238281 C 333.195312 195.027344 332.71875 194.832031 332.238281 194.652344 C 331.757812 194.472656 331.269531 194.304688 330.777344 194.152344 C 330.285156 194.003906 329.789062 193.867188 329.289062 193.746094 C 328.789062 193.625 328.285156 193.515625 327.78125 193.425781 C 327.273438 193.335938 326.765625 193.261719 326.253906 193.199219 C 325.742188 193.140625 325.230469 193.09375 324.71875 193.066406 C 324.203125 193.039062 323.691406 193.023438 323.175781 193.027344 C 322.660156 193.027344 322.144531 193.046875 321.632812 193.082031 C 321.121094 193.113281 320.609375 193.164062 320.097656 193.226562 C 319.585938 193.292969 319.078125 193.371094 318.574219 193.464844 C 318.066406 193.5625 317.566406 193.671875 317.066406 193.796875 C 316.566406 193.921875 316.074219 194.0625 315.582031 194.21875 C 315.089844 194.375 314.605469 194.546875 314.125 194.730469 C 313.644531 194.914062 313.171875 195.113281 312.703125 195.328125 C 312.234375 195.542969 311.773438 195.769531 311.320312 196.011719 C 310.867188 196.253906 310.421875 196.507812 309.980469 196.777344 C 309.542969 197.046875 309.113281 197.328125 308.691406 197.625 C 308.269531 197.917969 307.855469 198.226562 307.453125 198.546875 C 307.050781 198.867188 306.65625 199.199219 306.273438 199.542969 C 305.890625 199.886719 305.519531 200.238281 305.160156 200.605469 C 304.796875 200.972656 304.449219 201.347656 304.109375 201.738281 C 303.769531 202.125 303.445312 202.523438 303.128906 202.929688 C 302.816406 203.335938 302.511719 203.753906 302.222656 204.179688 C 301.933594 204.605469 301.660156 205.039062 301.394531 205.480469 C 301.132812 205.921875 300.882812 206.371094 300.648438 206.828125 C 300.414062 207.285156 300.191406 207.75 299.984375 208.222656 C 299.777344 208.691406 299.582031 209.167969 299.40625 209.652344 L 237.273438 163.105469 C 239.804688 159.347656 241.847656 155.34375 243.398438 151.085938 C 244.949219 146.832031 245.960938 142.449219 246.441406 137.945312 L 267.675781 141.460938 C 267.84375 142.261719 268.0625 143.046875 268.324219 143.824219 C 268.589844 144.597656 268.898438 145.351562 269.253906 146.089844 C 269.609375 146.828125 270.007812 147.542969 270.449219 148.230469 C 270.890625 148.917969 271.371094 149.582031 271.890625 150.210938 C 272.410156 150.84375 272.96875 151.441406 273.558594 152.003906 C 274.152344 152.570312 274.777344 153.097656 275.433594 153.585938 C 276.089844 154.074219 276.769531 154.523438 277.480469 154.929688 C 278.191406 155.335938 278.921875 155.699219 279.675781 156.015625 C 280.429688 156.335938 281.199219 156.609375 281.988281 156.832031 C 282.773438 157.058594 283.570312 157.238281 284.378906 157.367188 C 285.1875 157.496094 286 157.578125 286.816406 157.609375 C 287.636719 157.640625 288.453125 157.625 289.265625 157.558594 C 290.082031 157.492188 290.890625 157.375 291.691406 157.210938 C 292.496094 157.046875 293.285156 156.835938 294.058594 156.578125 C 294.835938 156.316406 295.59375 156.011719 296.332031 155.660156 C 297.074219 155.3125 297.789062 154.917969 298.480469 154.480469 C 299.171875 154.042969 299.835938 153.566406 300.46875 153.050781 C 301.105469 152.535156 301.707031 151.980469 302.273438 151.394531 C 302.84375 150.804688 303.371094 150.183594 303.867188 149.53125 C 304.359375 148.875 304.8125 148.195312 305.222656 147.488281 C 305.632812 146.78125 306 146.050781 306.324219 145.300781 C 306.648438 144.546875 306.921875 143.78125 307.152344 142.996094 C 307.382812 142.210938 307.566406 141.414062 307.703125 140.605469 C 307.835938 139.800781 307.921875 138.988281 307.960938 138.167969 C 307.996094 137.351562 307.984375 136.535156 307.921875 135.71875 C 307.859375 134.902344 307.75 134.09375 307.589844 133.292969 C 307.429688 132.488281 307.226562 131.699219 306.96875 130.921875 C 306.714844 130.144531 306.414062 129.382812 306.070312 128.640625 C 305.722656 127.902344 305.335938 127.183594 304.902344 126.488281 C 304.46875 125.792969 303.996094 125.125 303.484375 124.488281 C 302.972656 123.851562 302.421875 123.246094 301.835938 122.675781 C 301.25 122.105469 300.632812 121.570312 299.984375 121.074219 C 299.332031 120.574219 298.65625 120.117188 297.953125 119.703125 C 297.246094 119.289062 296.519531 118.917969 295.769531 118.589844 C 295.019531 118.261719 294.253906 117.980469 293.46875 117.742188 C 292.683594 117.507812 291.890625 117.320312 291.085938 117.179688 C 290.277344 117.042969 289.464844 116.949219 288.648438 116.910156 C 287.832031 116.867188 287.015625 116.875 286.199219 116.933594 C 285.382812 116.988281 284.570312 117.09375 283.769531 117.246094 C 282.964844 117.402344 282.171875 117.605469 281.394531 117.855469 C 280.613281 118.101562 279.855469 118.398438 279.109375 118.742188 C 278.367188 119.082031 277.644531 119.464844 276.949219 119.894531 C 276.25 120.324219 275.582031 120.792969 274.941406 121.300781 C 274.300781 121.808594 273.691406 122.355469 273.117188 122.9375 C 272.542969 123.519531 272.003906 124.132812 271.503906 124.78125 C 271.003906 125.425781 270.542969 126.101562 270.121094 126.804688 C 269.703125 127.507812 269.324219 128.230469 268.992188 128.980469 C 268.660156 129.726562 268.375 130.492188 268.136719 131.273438 L 246.796875 127.660156 C 246.160156 119.523438 243.871094 111.882812 239.921875 104.742188 L 289.066406 69.652344 C 289.539062 71.199219 290.132812 72.695312 290.84375 74.148438 C 291.558594 75.597656 292.378906 76.984375 293.3125 78.304688 C 294.242188 79.625 295.273438 80.867188 296.402344 82.023438 C 297.53125 83.179688 298.746094 84.242188 300.042969 85.207031 C 301.339844 86.171875 302.703125 87.027344 304.136719 87.777344 C 305.570312 88.523438 307.050781 89.15625 308.585938 89.667969 C 310.117188 90.179688 311.683594 90.570312 313.277344 90.832031 C 314.871094 91.097656 316.476562 91.234375 318.09375 91.246094 Z M 318.09375 40.316406 C 318.761719 40.316406 319.425781 40.351562 320.089844 40.414062 C 320.753906 40.480469 321.414062 40.578125 322.070312 40.710938 C 322.722656 40.839844 323.371094 41 324.007812 41.195312 C 324.648438 41.386719 325.273438 41.613281 325.890625 41.867188 C 326.507812 42.125 327.109375 42.410156 327.699219 42.722656 C 328.285156 43.039062 328.859375 43.378906 329.414062 43.75 C 329.96875 44.121094 330.503906 44.519531 331.019531 44.941406 C 331.535156 45.363281 332.027344 45.8125 332.5 46.285156 C 332.972656 46.757812 333.417969 47.25 333.84375 47.765625 C 334.265625 48.28125 334.664062 48.816406 335.03125 49.371094 C 335.402344 49.925781 335.746094 50.496094 336.0625 51.085938 C 336.375 51.675781 336.660156 52.277344 336.914062 52.894531 C 337.171875 53.507812 337.394531 54.136719 337.589844 54.777344 C 337.78125 55.414062 337.945312 56.058594 338.074219 56.714844 C 338.203125 57.367188 338.300781 58.027344 338.367188 58.691406 C 338.433594 59.355469 338.464844 60.023438 338.464844 60.6875 C 338.464844 61.355469 338.433594 62.023438 338.367188 62.683594 C 338.300781 63.347656 338.203125 64.007812 338.074219 64.664062 C 337.945312 65.316406 337.78125 65.964844 337.589844 66.601562 C 337.394531 67.242188 337.171875 67.867188 336.914062 68.484375 C 336.660156 69.101562 336.375 69.703125 336.0625 70.292969 C 335.746094 70.878906 335.402344 71.453125 335.03125 72.007812 C 334.664062 72.5625 334.265625 73.097656 333.84375 73.613281 C 333.417969 74.128906 332.972656 74.621094 332.5 75.09375 C 332.027344 75.566406 331.535156 76.011719 331.019531 76.4375 C 330.503906 76.859375 329.96875 77.257812 329.414062 77.625 C 328.859375 77.996094 328.285156 78.339844 327.699219 78.65625 C 327.109375 78.96875 326.507812 79.253906 325.890625 79.507812 C 325.273438 79.765625 324.648438 79.988281 324.007812 80.183594 C 323.371094 80.375 322.722656 80.539062 322.070312 80.667969 C 321.414062 80.796875 320.753906 80.894531 320.089844 80.960938 C 319.425781 81.027344 318.761719 81.058594 318.09375 81.058594 C 317.429688 81.058594 316.761719 81.027344 316.097656 80.960938 C 315.433594 80.894531 314.773438 80.796875 314.121094 80.667969 C 313.464844 80.539062 312.820312 80.375 312.179688 80.183594 C 311.542969 79.988281 310.914062 79.765625 310.300781 79.507812 C 309.683594 79.253906 309.082031 78.96875 308.492188 78.65625 C 307.902344 78.339844 307.332031 77.996094 306.777344 77.625 C 306.222656 77.257812 305.6875 76.859375 305.171875 76.4375 C 304.65625 76.011719 304.164062 75.566406 303.691406 75.09375 C 303.21875 74.621094 302.769531 74.128906 302.347656 73.613281 C 301.925781 73.097656 301.527344 72.5625 301.15625 72.007812 C 300.785156 71.453125 300.445312 70.878906 300.128906 70.292969 C 299.816406 69.703125 299.53125 69.101562 299.273438 68.484375 C 299.019531 67.867188 298.792969 67.242188 298.601562 66.601562 C 298.40625 65.964844 298.246094 65.316406 298.117188 64.664062 C 297.984375 64.007812 297.886719 63.347656 297.820312 62.683594 C 297.757812 62.023438 297.722656 61.355469 297.722656 60.6875 C 297.722656 60.023438 297.757812 59.355469 297.820312 58.691406 C 297.886719 58.027344 297.984375 57.367188 298.117188 56.714844 C 298.246094 56.058594 298.40625 55.414062 298.601562 54.777344 C 298.792969 54.136719 299.019531 53.507812 299.273438 52.894531 C 299.53125 52.277344 299.816406 51.675781 300.128906 51.085938 C 300.445312 50.496094 300.785156 49.925781 301.15625 49.371094 C 301.527344 48.816406 301.925781 48.28125 302.347656 47.765625 C 302.769531 47.25 303.21875 46.757812 303.691406 46.285156 C 304.164062 45.8125 304.65625 45.363281 305.171875 44.941406 C 305.6875 44.519531 306.222656 44.121094 306.777344 43.75 C 307.332031 43.378906 307.902344 43.039062 308.492188 42.722656 C 309.082031 42.410156 309.683594 42.125 310.300781 41.867188 C 310.914062 41.613281 311.542969 41.386719 312.179688 41.195312 C 312.820312 41 313.464844 40.839844 314.121094 40.710938 C 314.773438 40.578125 315.433594 40.480469 316.097656 40.414062 C 316.761719 40.351562 317.429688 40.316406 318.09375 40.316406 Z M 63.457031 81.058594 C 62.789062 81.058594 62.125 81.027344 61.460938 80.960938 C 60.796875 80.894531 60.136719 80.796875 59.484375 80.667969 C 58.828125 80.539062 58.183594 80.375 57.542969 80.183594 C 56.90625 79.988281 56.277344 79.765625 55.660156 79.507812 C 55.046875 79.253906 54.441406 78.96875 53.855469 78.65625 C 53.265625 78.339844 52.695312 77.996094 52.140625 77.625 C 51.585938 77.257812 51.050781 76.859375 50.535156 76.4375 C 50.019531 76.011719 49.523438 75.566406 49.050781 75.09375 C 48.582031 74.621094 48.132812 74.128906 47.710938 73.613281 C 47.285156 73.097656 46.890625 72.5625 46.519531 72.007812 C 46.148438 71.453125 45.804688 70.878906 45.492188 70.292969 C 45.175781 69.703125 44.890625 69.101562 44.636719 68.484375 C 44.382812 67.867188 44.15625 67.242188 43.964844 66.601562 C 43.769531 65.964844 43.609375 65.316406 43.476562 64.664062 C 43.347656 64.007812 43.25 63.347656 43.183594 62.683594 C 43.117188 62.023438 43.085938 61.355469 43.085938 60.6875 C 43.085938 60.023438 43.117188 59.355469 43.183594 58.691406 C 43.25 58.027344 43.347656 57.367188 43.476562 56.714844 C 43.609375 56.058594 43.769531 55.414062 43.964844 54.777344 C 44.15625 54.136719 44.382812 53.507812 44.636719 52.894531 C 44.890625 52.277344 45.175781 51.675781 45.492188 51.085938 C 45.804688 50.496094 46.148438 49.925781 46.519531 49.371094 C 46.890625 48.816406 47.285156 48.28125 47.710938 47.765625 C 48.132812 47.25 48.582031 46.757812 49.050781 46.285156 C 49.523438 45.8125 50.019531 45.363281 50.535156 44.941406 C 51.050781 44.519531 51.585938 44.121094 52.140625 43.75 C 52.695312 43.378906 53.265625 43.039062 53.855469 42.722656 C 54.441406 42.410156 55.046875 42.125 55.660156 41.867188 C 56.277344 41.613281 56.90625 41.386719 57.542969 41.195312 C 58.183594 41 58.828125 40.839844 59.484375 40.710938 C 60.136719 40.578125 60.796875 40.480469 61.460938 40.414062 C 62.125 40.351562 62.789062 40.316406 63.457031 40.316406 C 64.125 40.316406 64.789062 40.351562 65.453125 40.414062 C 66.117188 40.480469 66.777344 40.578125 67.429688 40.710938 C 68.085938 40.839844 68.730469 41 69.371094 41.195312 C 70.007812 41.386719 70.636719 41.613281 71.253906 41.867188 C 71.867188 42.125 72.472656 42.410156 73.058594 42.722656 C 73.648438 43.039062 74.21875 43.378906 74.773438 43.75 C 75.328125 44.121094 75.863281 44.519531 76.378906 44.941406 C 76.894531 45.363281 77.390625 45.8125 77.863281 46.285156 C 78.332031 46.757812 78.78125 47.25 79.203125 47.765625 C 79.628906 48.28125 80.023438 48.816406 80.394531 49.371094 C 80.765625 49.925781 81.109375 50.496094 81.421875 51.085938 C 81.738281 51.675781 82.023438 52.277344 82.277344 52.894531 C 82.53125 53.507812 82.757812 54.136719 82.949219 54.777344 C 83.144531 55.414062 83.304688 56.058594 83.4375 56.714844 C 83.566406 57.367188 83.664062 58.027344 83.730469 58.691406 C 83.796875 59.355469 83.828125 60.023438 83.828125 60.6875 C 83.828125 61.355469 83.796875 62.023438 83.730469 62.683594 C 83.664062 63.347656 83.566406 64.007812 83.4375 64.664062 C 83.304688 65.316406 83.144531 65.964844 82.949219 66.601562 C 82.757812 67.242188 82.53125 67.867188 82.277344 68.484375 C 82.023438 69.101562 81.738281 69.703125 81.421875 70.292969 C 81.109375 70.878906 80.765625 71.453125 80.394531 72.007812 C 80.023438 72.5625 79.628906 73.097656 79.203125 73.613281 C 78.78125 74.128906 78.332031 74.621094 77.863281 75.09375 C 77.390625 75.566406 76.894531 76.011719 76.378906 76.4375 C 75.863281 76.859375 75.328125 77.257812 74.773438 77.625 C 74.21875 77.996094 73.648438 78.339844 73.058594 78.65625 C 72.472656 78.96875 71.867188 79.253906 71.253906 79.507812 C 70.636719 79.765625 70.007812 79.988281 69.371094 80.183594 C 68.730469 80.375 68.085938 80.539062 67.429688 80.667969 C 66.777344 80.796875 66.117188 80.894531 65.453125 80.960938 C 64.789062 81.027344 64.125 81.058594 63.457031 81.058594 Z M 94.011719 147.265625 C 93.34375 147.265625 92.683594 147.199219 92.027344 147.070312 C 91.371094 146.941406 90.734375 146.746094 90.117188 146.492188 C 89.496094 146.234375 88.910156 145.921875 88.355469 145.550781 C 87.796875 145.175781 87.285156 144.753906 86.8125 144.28125 C 86.339844 143.808594 85.917969 143.296875 85.542969 142.738281 C 85.171875 142.183594 84.859375 141.597656 84.601562 140.976562 C 84.347656 140.359375 84.152344 139.722656 84.023438 139.066406 C 83.894531 138.410156 83.828125 137.75 83.828125 137.082031 C 83.828125 136.410156 83.894531 135.75 84.023438 135.09375 C 84.152344 134.4375 84.347656 133.800781 84.601562 133.183594 C 84.859375 132.5625 85.171875 131.976562 85.542969 131.421875 C 85.917969 130.867188 86.339844 130.351562 86.8125 129.878906 C 87.285156 129.40625 87.796875 128.984375 88.355469 128.609375 C 88.910156 128.238281 89.496094 127.925781 90.117188 127.671875 C 90.734375 127.414062 91.371094 127.222656 92.027344 127.089844 C 92.683594 126.960938 93.34375 126.894531 94.011719 126.894531 C 94.683594 126.894531 95.34375 126.960938 96 127.089844 C 96.65625 127.222656 97.292969 127.414062 97.910156 127.671875 C 98.53125 127.925781 99.117188 128.238281 99.671875 128.609375 C 100.226562 128.984375 100.742188 129.40625 101.214844 129.878906 C 101.6875 130.351562 102.109375 130.867188 102.484375 131.421875 C 102.855469 131.976562 103.167969 132.5625 103.421875 133.183594 C 103.679688 133.800781 103.871094 134.4375 104.003906 135.09375 C 104.132812 135.75 104.199219 136.410156 104.199219 137.082031 C 104.199219 137.75 104.132812 138.410156 104.003906 139.066406 C 103.871094 139.722656 103.679688 140.359375 103.421875 140.976562 C 103.167969 141.597656 102.855469 142.183594 102.484375 142.738281 C 102.109375 143.296875 101.6875 143.808594 101.214844 144.28125 C 100.742188 144.753906 100.226562 145.175781 99.671875 145.550781 C 99.117188 145.921875 98.53125 146.234375 97.910156 146.492188 C 97.292969 146.746094 96.65625 146.941406 96 147.070312 C 95.34375 147.199219 94.683594 147.265625 94.011719 147.265625 Z M 58.363281 233.84375 C 57.359375 233.84375 56.367188 233.746094 55.382812 233.550781 C 54.398438 233.351562 53.445312 233.0625 52.515625 232.679688 C 51.589844 232.296875 50.710938 231.824219 49.875 231.269531 C 49.042969 230.710938 48.269531 230.078125 47.5625 229.367188 C 46.851562 228.660156 46.21875 227.886719 45.660156 227.050781 C 45.105469 226.21875 44.632812 225.335938 44.25 224.410156 C 43.863281 223.484375 43.574219 222.527344 43.378906 221.542969 C 43.183594 220.5625 43.085938 219.566406 43.085938 218.5625 C 43.085938 217.5625 43.183594 216.566406 43.378906 215.582031 C 43.574219 214.601562 43.863281 213.644531 44.25 212.71875 C 44.632812 211.789062 45.105469 210.910156 45.660156 210.074219 C 46.21875 209.242188 46.851562 208.46875 47.5625 207.761719 C 48.269531 207.050781 49.042969 206.417969 49.875 205.859375 C 50.710938 205.304688 51.589844 204.832031 52.515625 204.449219 C 53.445312 204.066406 54.398438 203.773438 55.382812 203.578125 C 56.367188 203.382812 57.359375 203.285156 58.363281 203.285156 C 59.367188 203.285156 60.359375 203.382812 61.34375 203.578125 C 62.328125 203.773438 63.285156 204.066406 64.210938 204.449219 C 65.136719 204.832031 66.019531 205.304688 66.851562 205.859375 C 67.6875 206.417969 68.457031 207.050781 69.167969 207.761719 C 69.878906 208.46875 70.511719 209.242188 71.066406 210.074219 C 71.625 210.910156 72.09375 211.789062 72.480469 212.71875 C 72.863281 213.644531 73.152344 214.601562 73.347656 215.582031 C 73.542969 216.566406 73.644531 217.5625 73.644531 218.5625 C 73.644531 219.566406 73.542969 220.5625 73.347656 221.542969 C 73.152344 222.527344 72.863281 223.484375 72.480469 224.410156 C 72.09375 225.335938 71.625 226.21875 71.066406 227.050781 C 70.511719 227.886719 69.878906 228.660156 69.167969 229.367188 C 68.457031 230.078125 67.6875 230.710938 66.851562 231.269531 C 66.019531 231.824219 65.136719 232.296875 64.210938 232.679688 C 63.285156 233.0625 62.328125 233.351562 61.34375 233.550781 C 60.359375 233.746094 59.367188 233.84375 58.363281 233.84375 Z M 323.1875 203.285156 C 324.191406 203.285156 325.183594 203.382812 326.167969 203.578125 C 327.152344 203.773438 328.109375 204.066406 329.035156 204.449219 C 329.960938 204.832031 330.839844 205.304688 331.675781 205.859375 C 332.511719 206.417969 333.28125 207.050781 333.992188 207.761719 C 334.699219 208.46875 335.332031 209.242188 335.890625 210.074219 C 336.449219 210.910156 336.917969 211.789062 337.304688 212.71875 C 337.6875 213.644531 337.976562 214.601562 338.171875 215.582031 C 338.367188 216.566406 338.464844 217.5625 338.464844 218.5625 C 338.464844 219.566406 338.367188 220.5625 338.171875 221.542969 C 337.976562 222.527344 337.6875 223.484375 337.304688 224.410156 C 336.917969 225.335938 336.449219 226.21875 335.890625 227.050781 C 335.332031 227.886719 334.699219 228.660156 333.992188 229.367188 C 333.28125 230.078125 332.511719 230.710938 331.675781 231.269531 C 330.839844 231.824219 329.960938 232.296875 329.035156 232.679688 C 328.109375 233.0625 327.152344 233.351562 326.167969 233.550781 C 325.183594 233.746094 324.191406 233.84375 323.1875 233.84375 C 322.183594 233.84375 321.191406 233.746094 320.207031 233.550781 C 319.222656 233.351562 318.269531 233.0625 317.339844 232.679688 C 316.414062 232.296875 315.535156 231.824219 314.699219 231.269531 C 313.867188 230.710938 313.09375 230.078125 312.382812 229.367188 C 311.675781 228.660156 311.042969 227.886719 310.484375 227.050781 C 309.925781 226.21875 309.457031 225.335938 309.074219 224.410156 C 308.6875 223.484375 308.398438 222.527344 308.203125 221.542969 C 308.007812 220.5625 307.910156 219.566406 307.910156 218.5625 C 307.910156 217.5625 308.007812 216.566406 308.203125 215.582031 C 308.398438 214.601562 308.6875 213.644531 309.074219 212.71875 C 309.457031 211.789062 309.925781 210.910156 310.484375 210.074219 C 311.042969 209.242188 311.675781 208.46875 312.382812 207.761719 C 313.09375 207.050781 313.867188 206.417969 314.699219 205.859375 C 315.535156 205.304688 316.414062 204.832031 317.339844 204.449219 C 318.269531 204.066406 319.222656 203.773438 320.207031 203.578125 C 321.191406 203.382812 322.183594 203.285156 323.1875 203.285156 Z M 246.796875 335.699219 L 165.3125 335.699219 L 165.3125 315.328125 L 246.796875 315.328125 Z M 246.796875 223.65625 C 246.796875 223.324219 246.828125 222.992188 246.894531 222.664062 C 246.960938 222.335938 247.054688 222.015625 247.183594 221.707031 C 247.3125 221.398438 247.46875 221.105469 247.65625 220.828125 C 247.839844 220.550781 248.050781 220.292969 248.289062 220.054688 C 248.523438 219.820312 248.78125 219.609375 249.058594 219.421875 C 249.335938 219.238281 249.632812 219.078125 249.941406 218.953125 C 250.25 218.824219 250.566406 218.726562 250.894531 218.664062 C 251.222656 218.597656 251.554688 218.5625 251.890625 218.5625 C 252.222656 218.5625 252.554688 218.597656 252.882812 218.664062 C 253.210938 218.726562 253.527344 218.824219 253.839844 218.953125 C 254.148438 219.078125 254.441406 219.238281 254.71875 219.421875 C 254.996094 219.609375 255.253906 219.820312 255.488281 220.054688 C 255.726562 220.292969 255.9375 220.550781 256.125 220.828125 C 256.308594 221.105469 256.464844 221.398438 256.59375 221.707031 C 256.722656 222.015625 256.820312 222.335938 256.882812 222.664062 C 256.949219 222.992188 256.980469 223.324219 256.980469 223.65625 L 256.980469 244.027344 C 256.980469 244.363281 256.949219 244.695312 256.882812 245.023438 C 256.820312 245.347656 256.722656 245.667969 256.59375 245.976562 C 256.464844 246.285156 256.308594 246.578125 256.125 246.859375 C 255.9375 247.136719 255.726562 247.394531 255.488281 247.628906 C 255.253906 247.867188 254.996094 248.078125 254.71875 248.261719 C 254.441406 248.449219 254.148438 248.605469 253.839844 248.734375 C 253.527344 248.859375 253.210938 248.957031 252.882812 249.023438 C 252.554688 249.089844 252.222656 249.121094 251.890625 249.121094 C 251.554688 249.121094 251.222656 249.089844 250.894531 249.023438 C 250.566406 248.957031 250.25 248.859375 249.941406 248.734375 C 249.632812 248.605469 249.335938 248.449219 249.058594 248.261719 C 248.78125 248.078125 248.523438 247.867188 248.289062 247.628906 C 248.050781 247.394531 247.839844 247.136719 247.65625 246.859375 C 247.46875 246.578125 247.3125 246.285156 247.183594 245.976562 C 247.054688 245.667969 246.960938 245.347656 246.894531 245.023438 C 246.828125 244.695312 246.796875 244.363281 246.796875 244.027344 Z M 226.425781 213.472656 C 226.425781 213.136719 226.457031 212.804688 226.523438 212.476562 C 226.589844 212.148438 226.683594 211.832031 226.8125 211.523438 C 226.941406 211.214844 227.097656 210.921875 227.285156 210.640625 C 227.46875 210.363281 227.679688 210.105469 227.917969 209.871094 C 228.152344 209.632812 228.410156 209.421875 228.6875 209.238281 C 228.964844 209.050781 229.261719 208.894531 229.570312 208.765625 C 229.878906 208.636719 230.195312 208.542969 230.523438 208.476562 C 230.851562 208.410156 231.183594 208.378906 231.519531 208.378906 C 231.851562 208.378906 232.183594 208.410156 232.511719 208.476562 C 232.839844 208.542969 233.15625 208.636719 233.46875 208.765625 C 233.777344 208.894531 234.070312 209.050781 234.347656 209.238281 C 234.625 209.421875 234.882812 209.632812 235.121094 209.871094 C 235.355469 210.105469 235.566406 210.363281 235.753906 210.640625 C 235.9375 210.921875 236.09375 211.214844 236.222656 211.523438 C 236.351562 211.832031 236.449219 212.148438 236.511719 212.476562 C 236.578125 212.804688 236.609375 213.136719 236.609375 213.472656 L 236.609375 233.84375 C 236.609375 234.175781 236.578125 234.507812 236.511719 234.835938 C 236.449219 235.164062 236.351562 235.484375 236.222656 235.792969 C 236.09375 236.101562 235.9375 236.394531 235.753906 236.671875 C 235.566406 236.949219 235.355469 237.207031 235.121094 237.445312 C 234.882812 237.679688 234.625 237.890625 234.347656 238.078125 C 234.070312 238.261719 233.777344 238.417969 233.46875 238.546875 C 233.15625 238.675781 232.839844 238.773438 232.511719 238.835938 C 232.183594 238.902344 231.851562 238.933594 231.519531 238.933594 C 231.183594 238.933594 230.851562 238.902344 230.523438 238.835938 C 230.195312 238.773438 229.878906 238.675781 229.570312 238.546875 C 229.261719 238.417969 228.964844 238.261719 228.6875 238.078125 C 228.410156 237.890625 228.152344 237.679688 227.917969 237.445312 C 227.679688 237.207031 227.46875 236.949219 227.285156 236.671875 C 227.097656 236.394531 226.941406 236.101562 226.8125 235.792969 C 226.683594 235.484375 226.589844 235.164062 226.523438 234.835938 C 226.457031 234.507812 226.425781 234.175781 226.425781 233.84375 Z M 231.519531 249.121094 C 233.492188 249.117188 235.394531 248.742188 237.222656 248 C 237.367188 248.5 237.535156 248.988281 237.726562 249.472656 C 237.921875 249.953125 238.136719 250.421875 238.378906 250.882812 C 238.621094 251.34375 238.886719 251.789062 239.171875 252.222656 C 239.460938 252.652344 239.769531 253.070312 240.097656 253.472656 C 240.425781 253.871094 240.773438 254.257812 241.144531 254.621094 C 241.511719 254.988281 241.898438 255.332031 242.300781 255.660156 C 242.707031 255.984375 243.125 256.289062 243.558594 256.574219 C 243.996094 256.859375 244.441406 257.117188 244.90625 257.355469 C 245.367188 257.59375 245.839844 257.808594 246.320312 257.996094 C 246.804688 258.1875 247.296875 258.351562 247.796875 258.492188 C 248.296875 258.632812 248.800781 258.746094 249.3125 258.832031 C 249.824219 258.921875 250.339844 258.984375 250.859375 259.019531 C 251.375 259.054688 251.894531 259.0625 252.414062 259.046875 C 252.929688 259.027344 253.449219 258.984375 253.960938 258.914062 C 254.476562 258.84375 254.984375 258.75 255.492188 258.628906 C 255.996094 258.503906 256.492188 258.359375 256.980469 258.1875 L 256.980469 266.128906 C 256.984375 268.535156 256.691406 270.90625 256.109375 273.242188 C 255.527344 275.574219 254.667969 277.804688 253.535156 279.925781 C 252.402344 282.050781 251.03125 284.003906 249.414062 285.789062 C 247.800781 287.574219 245.996094 289.136719 243.996094 290.472656 C 243.246094 290.964844 242.664062 291.613281 242.257812 292.410156 C 241.847656 293.210938 241.664062 294.058594 241.703125 294.957031 L 241.703125 305.140625 L 170.40625 305.140625 L 170.40625 249.121094 C 170.421875 248.027344 170.097656 247.039062 169.4375 246.167969 L 149.726562 218.5625 C 149.5 218.25 149.304688 217.917969 149.136719 217.566406 C 148.96875 217.214844 148.835938 216.855469 148.730469 216.480469 C 148.628906 216.105469 148.558594 215.726562 148.519531 215.339844 C 148.484375 214.953125 148.484375 214.566406 148.515625 214.179688 C 148.546875 213.792969 148.613281 213.414062 148.714844 213.039062 C 148.8125 212.664062 148.945312 212.300781 149.109375 211.949219 C 149.273438 211.597656 149.46875 211.261719 149.691406 210.945312 C 149.914062 210.628906 150.164062 210.332031 150.441406 210.058594 C 150.753906 209.761719 151.09375 209.5 151.457031 209.265625 C 151.820312 209.035156 152.203125 208.839844 152.605469 208.679688 C 153.007812 208.519531 153.417969 208.398438 153.84375 208.320312 C 154.265625 208.238281 154.695312 208.195312 155.125 208.195312 C 155.558594 208.195312 155.984375 208.238281 156.410156 208.320312 C 156.835938 208.398438 157.246094 208.519531 157.648438 208.679688 C 158.046875 208.839844 158.429688 209.035156 158.796875 209.265625 C 159.160156 209.5 159.5 209.761719 159.8125 210.058594 L 176.976562 227.273438 C 177.332031 227.625 177.734375 227.921875 178.179688 228.15625 C 178.625 228.390625 179.09375 228.554688 179.589844 228.648438 C 180.082031 228.742188 180.578125 228.765625 181.078125 228.714844 C 181.578125 228.660156 182.0625 228.539062 182.527344 228.34375 C 182.992188 228.152344 183.417969 227.898438 183.808594 227.578125 C 184.199219 227.261719 184.53125 226.894531 184.8125 226.476562 C 185.09375 226.0625 185.308594 225.613281 185.457031 225.132812 C 185.605469 224.652344 185.679688 224.160156 185.683594 223.65625 L 185.683594 147.265625 C 185.683594 146.929688 185.714844 146.601562 185.78125 146.273438 C 185.847656 145.945312 185.941406 145.625 186.070312 145.316406 C 186.199219 145.007812 186.355469 144.714844 186.542969 144.4375 C 186.726562 144.160156 186.9375 143.902344 187.175781 143.664062 C 187.410156 143.429688 187.667969 143.21875 187.945312 143.03125 C 188.226562 142.84375 188.519531 142.6875 188.828125 142.5625 C 189.136719 142.433594 189.453125 142.335938 189.78125 142.269531 C 190.109375 142.207031 190.441406 142.171875 190.777344 142.171875 C 191.109375 142.171875 191.441406 142.207031 191.769531 142.269531 C 192.097656 142.335938 192.414062 142.433594 192.726562 142.5625 C 193.035156 142.6875 193.328125 142.84375 193.605469 143.03125 C 193.882812 143.21875 194.140625 143.429688 194.378906 143.664062 C 194.613281 143.902344 194.824219 144.160156 195.011719 144.4375 C 195.195312 144.714844 195.351562 145.007812 195.480469 145.316406 C 195.609375 145.625 195.707031 145.945312 195.769531 146.273438 C 195.835938 146.601562 195.867188 146.929688 195.867188 147.265625 L 195.867188 228.75 C 195.867188 229.753906 195.964844 230.746094 196.164062 231.730469 C 196.359375 232.714844 196.648438 233.667969 197.03125 234.597656 C 197.414062 235.523438 197.886719 236.402344 198.445312 237.238281 C 199 238.070312 199.632812 238.84375 200.34375 239.554688 C 201.054688 240.261719 201.824219 240.894531 202.660156 241.453125 C 203.492188 242.011719 204.375 242.480469 205.300781 242.863281 C 206.226562 243.25 207.183594 243.539062 208.167969 243.734375 C 209.148438 243.929688 210.144531 244.027344 211.148438 244.027344 C 213.824219 244.019531 216.320312 243.339844 218.632812 241.992188 C 219.320312 243.078125 220.132812 244.066406 221.066406 244.949219 C 222.003906 245.832031 223.035156 246.585938 224.160156 247.210938 C 225.285156 247.832031 226.472656 248.308594 227.71875 248.628906 C 228.964844 248.953125 230.230469 249.117188 231.519531 249.121094 Z M 211.148438 203.285156 C 211.480469 203.285156 211.8125 203.320312 212.140625 203.382812 C 212.46875 203.449219 212.785156 203.546875 213.097656 203.671875 C 213.40625 203.800781 213.699219 203.957031 213.976562 204.144531 C 214.253906 204.328125 214.511719 204.542969 214.75 204.777344 C 214.984375 205.015625 215.195312 205.269531 215.382812 205.550781 C 215.566406 205.828125 215.722656 206.121094 215.851562 206.429688 C 215.980469 206.738281 216.078125 207.058594 216.140625 207.386719 C 216.207031 207.714844 216.238281 208.042969 216.238281 208.378906 L 216.238281 228.75 C 216.238281 229.085938 216.207031 229.414062 216.140625 229.742188 C 216.078125 230.070312 215.980469 230.390625 215.851562 230.699219 C 215.722656 231.007812 215.566406 231.300781 215.382812 231.578125 C 215.195312 231.855469 214.984375 232.113281 214.75 232.351562 C 214.511719 232.585938 214.253906 232.796875 213.976562 232.984375 C 213.699219 233.171875 213.40625 233.328125 213.097656 233.453125 C 212.785156 233.582031 212.46875 233.679688 212.140625 233.746094 C 211.8125 233.808594 211.480469 233.84375 211.148438 233.84375 C 210.8125 233.84375 210.480469 233.808594 210.152344 233.746094 C 209.824219 233.679688 209.507812 233.582031 209.199219 233.453125 C 208.890625 233.328125 208.59375 233.171875 208.316406 232.984375 C 208.039062 232.796875 207.78125 232.585938 207.546875 232.351562 C 207.308594 232.113281 207.097656 231.855469 206.914062 231.578125 C 206.726562 231.300781 206.570312 231.007812 206.441406 230.699219 C 206.3125 230.390625 206.21875 230.070312 206.152344 229.742188 C 206.085938 229.414062 206.054688 229.085938 206.054688 228.75 L 206.054688 208.378906 C 206.054688 208.042969 206.085938 207.714844 206.152344 207.386719 C 206.21875 207.058594 206.3125 206.738281 206.441406 206.429688 C 206.570312 206.121094 206.726562 205.828125 206.914062 205.550781 C 207.097656 205.269531 207.308594 205.015625 207.546875 204.777344 C 207.78125 204.542969 208.039062 204.328125 208.316406 204.144531 C 208.59375 203.957031 208.890625 203.800781 209.199219 203.671875 C 209.507812 203.546875 209.824219 203.449219 210.152344 203.382812 C 210.480469 203.320312 210.8125 203.285156 211.148438 203.285156 Z M 203.964844 139.675781 C 203.632812 139.105469 203.261719 138.554688 202.851562 138.03125 C 202.445312 137.503906 202.007812 137.007812 201.535156 136.539062 C 201.0625 136.074219 200.566406 135.636719 200.035156 135.234375 C 199.507812 134.832031 198.957031 134.464844 198.378906 134.136719 C 197.804688 133.804688 197.207031 133.511719 196.59375 133.261719 C 195.980469 133.007812 195.351562 132.796875 194.710938 132.625 C 194.070312 132.453125 193.417969 132.324219 192.761719 132.238281 C 192.101562 132.152344 191.441406 132.109375 190.777344 132.109375 C 190.113281 132.109375 189.449219 132.152344 188.792969 132.238281 C 188.132812 132.324219 187.484375 132.453125 186.839844 132.625 C 186.199219 132.796875 185.570312 133.007812 184.957031 133.261719 C 184.34375 133.511719 183.75 133.804688 183.171875 134.136719 C 182.597656 134.464844 182.042969 134.832031 181.515625 135.234375 C 180.988281 135.636719 180.488281 136.074219 180.015625 136.539062 C 179.542969 137.007812 179.105469 137.503906 178.699219 138.03125 C 178.292969 138.554688 177.921875 139.105469 177.585938 139.675781 C 177.136719 138.90625 176.753906 138.101562 176.445312 137.261719 C 176.136719 136.425781 175.902344 135.566406 175.742188 134.6875 C 175.582031 133.808594 175.5 132.921875 175.496094 132.027344 C 175.496094 131.136719 175.570312 130.25 175.71875 129.367188 C 175.871094 128.488281 176.101562 127.628906 176.402344 126.785156 C 176.707031 125.945312 177.078125 125.140625 177.523438 124.363281 C 177.96875 123.589844 178.476562 122.859375 179.050781 122.171875 C 179.621094 121.488281 180.25 120.855469 180.933594 120.28125 C 181.617188 119.707031 182.347656 119.195312 183.121094 118.746094 C 183.890625 118.296875 184.699219 117.921875 185.539062 117.617188 C 186.378906 117.308594 187.238281 117.078125 188.117188 116.921875 C 188.996094 116.765625 189.882812 116.6875 190.777344 116.6875 C 191.667969 116.6875 192.554688 116.765625 193.4375 116.921875 C 194.316406 117.078125 195.175781 117.308594 196.015625 117.617188 C 196.855469 117.921875 197.660156 118.296875 198.433594 118.746094 C 199.207031 119.195312 199.933594 119.707031 200.617188 120.28125 C 201.300781 120.855469 201.929688 121.488281 202.5 122.171875 C 203.074219 122.859375 203.582031 123.589844 204.027344 124.363281 C 204.472656 125.140625 204.847656 125.945312 205.148438 126.785156 C 205.453125 127.628906 205.679688 128.488281 205.832031 129.367188 C 205.984375 130.25 206.058594 131.136719 206.054688 132.027344 C 206.050781 132.921875 205.96875 133.808594 205.808594 134.6875 C 205.652344 135.566406 205.417969 136.425781 205.105469 137.261719 C 204.796875 138.101562 204.417969 138.90625 203.964844 139.675781 Z M 206.054688 175.328125 L 206.054688 152.359375 C 206.761719 151.828125 207.441406 151.261719 208.089844 150.660156 C 208.738281 150.058594 209.351562 149.425781 209.933594 148.761719 C 210.515625 148.09375 211.0625 147.402344 211.574219 146.679688 C 212.082031 145.957031 212.554688 145.210938 212.988281 144.4375 C 213.421875 143.667969 213.8125 142.875 214.160156 142.0625 C 214.511719 141.253906 214.816406 140.425781 215.082031 139.578125 C 215.34375 138.734375 215.5625 137.878906 215.738281 137.011719 C 215.914062 136.148438 216.042969 135.273438 216.125 134.394531 C 216.210938 133.511719 216.246094 132.628906 216.238281 131.746094 C 216.230469 130.863281 216.175781 129.980469 216.074219 129.101562 C 215.976562 128.222656 215.828125 127.351562 215.640625 126.488281 C 215.449219 125.625 215.210938 124.773438 214.933594 123.933594 C 214.652344 123.097656 214.332031 122.273438 213.964844 121.46875 C 213.601562 120.664062 213.195312 119.878906 212.746094 119.117188 C 212.300781 118.351562 211.816406 117.617188 211.292969 116.902344 C 210.765625 116.191406 210.207031 115.507812 209.613281 114.851562 C 209.019531 114.199219 208.390625 113.578125 207.730469 112.988281 C 207.070312 112.398438 206.382812 111.847656 205.664062 111.332031 C 204.949219 110.8125 204.207031 110.335938 203.4375 109.894531 C 202.671875 109.457031 201.882812 109.054688 201.074219 108.699219 C 200.265625 108.339844 199.441406 108.027344 198.597656 107.753906 C 197.757812 107.484375 196.902344 107.257812 196.039062 107.074219 C 195.171875 106.890625 194.300781 106.753906 193.421875 106.660156 C 192.542969 106.570312 191.660156 106.523438 190.777344 106.523438 C 189.890625 106.523438 189.011719 106.570312 188.128906 106.660156 C 187.25 106.753906 186.378906 106.890625 185.511719 107.074219 C 184.648438 107.257812 183.792969 107.484375 182.953125 107.753906 C 182.113281 108.027344 181.285156 108.339844 180.476562 108.699219 C 179.667969 109.054688 178.882812 109.457031 178.113281 109.894531 C 177.347656 110.335938 176.605469 110.8125 175.886719 111.332031 C 175.167969 111.847656 174.480469 112.398438 173.820312 112.988281 C 173.160156 113.578125 172.535156 114.199219 171.9375 114.851562 C 171.34375 115.507812 170.785156 116.191406 170.261719 116.902344 C 169.738281 117.617188 169.25 118.351562 168.804688 119.117188 C 168.359375 119.878906 167.953125 120.664062 167.585938 121.46875 C 167.222656 122.273438 166.898438 123.097656 166.617188 123.933594 C 166.339844 124.773438 166.105469 125.625 165.914062 126.488281 C 165.722656 127.351562 165.578125 128.222656 165.476562 129.101562 C 165.375 129.980469 165.320312 130.863281 165.3125 131.746094 C 165.304688 132.628906 165.34375 133.511719 165.425781 134.394531 C 165.507812 135.273438 165.636719 136.148438 165.8125 137.011719 C 165.988281 137.878906 166.207031 138.734375 166.46875 139.578125 C 166.734375 140.425781 167.039062 141.253906 167.390625 142.0625 C 167.742188 142.875 168.132812 143.667969 168.5625 144.4375 C 168.996094 145.210938 169.46875 145.957031 169.976562 146.679688 C 170.488281 147.402344 171.035156 148.09375 171.617188 148.761719 C 172.199219 149.425781 172.816406 150.058594 173.464844 150.660156 C 174.113281 151.261719 174.789062 151.828125 175.496094 152.359375 L 175.496094 175.226562 C 174.65625 174.925781 173.824219 174.605469 173.003906 174.261719 C 172.179688 173.914062 171.367188 173.542969 170.570312 173.152344 C 169.769531 172.757812 168.980469 172.339844 168.203125 171.902344 C 167.425781 171.464844 166.664062 171 165.914062 170.515625 C 165.164062 170.035156 164.429688 169.527344 163.710938 169 C 162.992188 168.476562 162.285156 167.925781 161.597656 167.359375 C 160.910156 166.792969 160.238281 166.203125 159.585938 165.597656 C 158.933594 164.992188 158.296875 164.363281 157.679688 163.71875 C 157.0625 163.078125 156.464844 162.414062 155.886719 161.734375 C 155.308594 161.058594 154.75 160.363281 154.210938 159.648438 C 153.675781 158.9375 153.15625 158.210938 152.660156 157.46875 C 152.167969 156.726562 151.691406 155.972656 151.242188 155.203125 C 150.789062 154.433594 150.363281 153.652344 149.957031 152.855469 C 149.550781 152.0625 149.167969 151.257812 148.808594 150.441406 C 148.449219 149.625 148.117188 148.796875 147.804688 147.960938 C 147.496094 147.125 147.210938 146.28125 146.949219 145.425781 C 146.6875 144.574219 146.453125 143.714844 146.242188 142.847656 C 146.03125 141.980469 145.84375 141.109375 145.683594 140.230469 C 145.523438 139.351562 145.390625 138.472656 145.28125 137.585938 C 145.171875 136.699219 145.089844 135.8125 145.035156 134.921875 C 144.976562 134.03125 144.945312 133.140625 144.941406 132.25 C 144.9375 131.355469 144.957031 130.464844 145.007812 129.574219 C 145.054688 128.683594 145.125 127.796875 145.226562 126.910156 C 145.324219 126.023438 145.449219 125.140625 145.601562 124.261719 C 145.753906 123.382812 145.929688 122.507812 146.128906 121.636719 C 146.332031 120.769531 146.558594 119.90625 146.8125 119.050781 C 147.0625 118.195312 147.339844 117.347656 147.640625 116.507812 C 147.945312 115.667969 148.269531 114.839844 148.621094 114.019531 C 148.96875 113.199219 149.34375 112.390625 149.742188 111.589844 C 150.140625 110.792969 150.558594 110.003906 151.003906 109.230469 C 151.445312 108.457031 151.910156 107.695312 152.398438 106.949219 C 152.886719 106.203125 153.394531 105.472656 153.925781 104.753906 C 154.457031 104.035156 155.007812 103.335938 155.578125 102.652344 C 156.152344 101.964844 156.742188 101.296875 157.351562 100.648438 C 157.960938 99.996094 158.589844 99.363281 159.238281 98.75 C 159.886719 98.136719 160.550781 97.542969 161.234375 96.96875 C 161.914062 96.394531 162.613281 95.839844 163.328125 95.304688 C 164.042969 94.769531 164.769531 94.257812 165.515625 93.765625 C 166.261719 93.273438 167.019531 92.804688 167.789062 92.355469 C 168.5625 91.910156 169.347656 91.484375 170.140625 91.082031 C 170.9375 90.683594 171.746094 90.304688 172.566406 89.949219 C 173.382812 89.59375 174.210938 89.265625 175.050781 88.957031 C 175.886719 88.652344 176.734375 88.371094 177.589844 88.113281 C 178.441406 87.859375 179.304688 87.625 180.171875 87.421875 C 181.039062 87.214844 181.914062 87.03125 182.789062 86.878906 C 183.667969 86.722656 184.550781 86.59375 185.4375 86.488281 C 186.324219 86.382812 187.210938 86.308594 188.101562 86.253906 C 188.992188 86.203125 189.882812 86.175781 190.777344 86.175781 C 191.667969 86.175781 192.558594 86.203125 193.449219 86.253906 C 194.339844 86.308594 195.230469 86.382812 196.113281 86.488281 C 197 86.59375 197.882812 86.722656 198.761719 86.878906 C 199.640625 87.03125 200.511719 87.214844 201.378906 87.421875 C 202.25 87.625 203.109375 87.859375 203.964844 88.113281 C 204.816406 88.371094 205.664062 88.652344 206.503906 88.957031 C 207.339844 89.265625 208.167969 89.59375 208.988281 89.949219 C 209.804688 90.304688 210.613281 90.683594 211.410156 91.082031 C 212.207031 91.484375 212.992188 91.910156 213.761719 92.355469 C 214.535156 92.804688 215.292969 93.273438 216.035156 93.765625 C 216.78125 94.257812 217.511719 94.769531 218.222656 95.304688 C 218.9375 95.839844 219.636719 96.394531 220.320312 96.96875 C 221 97.542969 221.664062 98.136719 222.3125 98.75 C 222.960938 99.363281 223.589844 99.996094 224.199219 100.648438 C 224.808594 101.296875 225.402344 101.964844 225.972656 102.652344 C 226.542969 103.335938 227.09375 104.035156 227.625 104.753906 C 228.15625 105.472656 228.664062 106.203125 229.152344 106.949219 C 229.640625 107.695312 230.105469 108.457031 230.550781 109.230469 C 230.992188 110.003906 231.414062 110.792969 231.808594 111.589844 C 232.207031 112.390625 232.582031 113.199219 232.933594 114.019531 C 233.28125 114.839844 233.609375 115.667969 233.910156 116.507812 C 234.210938 117.347656 234.488281 118.195312 234.742188 119.050781 C 234.992188 119.90625 235.21875 120.769531 235.421875 121.636719 C 235.625 122.507812 235.800781 123.382812 235.949219 124.261719 C 236.101562 125.140625 236.226562 126.023438 236.324219 126.910156 C 236.425781 127.796875 236.5 128.683594 236.546875 129.574219 C 236.59375 130.464844 236.613281 131.355469 236.609375 132.25 C 236.605469 133.140625 236.574219 134.03125 236.519531 134.921875 C 236.460938 135.8125 236.378906 136.699219 236.269531 137.585938 C 236.160156 138.472656 236.027344 139.351562 235.867188 140.230469 C 235.707031 141.109375 235.523438 141.980469 235.3125 142.847656 C 235.101562 143.714844 234.863281 144.574219 234.605469 145.425781 C 234.34375 146.28125 234.058594 147.125 233.746094 147.960938 C 233.4375 148.796875 233.101562 149.625 232.742188 150.441406 C 232.382812 151.257812 232 152.0625 231.597656 152.855469 C 231.191406 153.652344 230.761719 154.433594 230.308594 155.203125 C 229.859375 155.972656 229.386719 156.726562 228.890625 157.46875 C 228.394531 158.210938 227.878906 158.9375 227.339844 159.648438 C 226.800781 160.363281 226.242188 161.058594 225.664062 161.734375 C 225.085938 162.414062 224.488281 163.078125 223.871094 163.71875 C 223.253906 164.363281 222.621094 164.992188 221.964844 165.597656 C 221.3125 166.203125 220.640625 166.792969 219.953125 167.359375 C 219.265625 167.925781 218.5625 168.476562 217.839844 169 C 217.121094 169.527344 216.386719 170.035156 215.636719 170.515625 C 214.886719 171 214.125 171.464844 213.347656 171.902344 C 212.574219 172.339844 211.785156 172.757812 210.984375 173.152344 C 210.183594 173.542969 209.371094 173.914062 208.550781 174.261719 C 207.726562 174.605469 206.894531 174.925781 206.054688 175.226562 Z M 287.539062 126.894531 C 288.207031 126.894531 288.871094 126.960938 289.527344 127.089844 C 290.179688 127.222656 290.816406 127.414062 291.4375 127.671875 C 292.054688 127.925781 292.640625 128.238281 293.195312 128.609375 C 293.753906 128.984375 294.269531 129.40625 294.742188 129.878906 C 295.214844 130.351562 295.636719 130.867188 296.007812 131.421875 C 296.378906 131.976562 296.691406 132.5625 296.949219 133.183594 C 297.203125 133.800781 297.398438 134.4375 297.527344 135.09375 C 297.660156 135.75 297.722656 136.410156 297.722656 137.082031 C 297.722656 137.75 297.660156 138.410156 297.527344 139.066406 C 297.398438 139.722656 297.203125 140.359375 296.949219 140.976562 C 296.691406 141.597656 296.378906 142.183594 296.007812 142.738281 C 295.636719 143.296875 295.214844 143.808594 294.742188 144.28125 C 294.269531 144.753906 293.753906 145.175781 293.195312 145.550781 C 292.640625 145.921875 292.054688 146.234375 291.4375 146.492188 C 290.816406 146.746094 290.179688 146.941406 289.527344 147.070312 C 288.871094 147.199219 288.207031 147.265625 287.539062 147.265625 C 286.871094 147.265625 286.207031 147.199219 285.550781 147.070312 C 284.894531 146.941406 284.257812 146.746094 283.640625 146.492188 C 283.023438 146.234375 282.4375 145.921875 281.878906 145.550781 C 281.324219 145.175781 280.808594 144.753906 280.335938 144.28125 C 279.863281 143.808594 279.441406 143.296875 279.070312 142.738281 C 278.699219 142.183594 278.382812 141.597656 278.128906 140.976562 C 277.871094 140.359375 277.679688 139.722656 277.546875 139.066406 C 277.417969 138.410156 277.351562 137.75 277.351562 137.082031 C 277.351562 136.410156 277.417969 135.75 277.546875 135.09375 C 277.679688 134.4375 277.871094 133.800781 278.128906 133.183594 C 278.382812 132.5625 278.699219 131.976562 279.070312 131.421875 C 279.441406 130.867188 279.863281 130.351562 280.335938 129.878906 C 280.808594 129.40625 281.324219 128.984375 281.878906 128.609375 C 282.4375 128.238281 283.023438 127.925781 283.640625 127.671875 C 284.257812 127.414062 284.894531 127.222656 285.550781 127.089844 C 286.207031 126.960938 286.871094 126.894531 287.539062 126.894531 Z M 287.539062 126.894531 " fill-opacity="1" fill-rule="nonzero"/></g></svg>