<svg xmlns="http://www.w3.org/2000/svg" xmlns:xlink="http://www.w3.org/1999/xlink" width="500" zoomAndPan="magnify" viewBox="0 0 375 374.999991" height="500" preserveAspectRatio="xMidYMid meet" version="1.0"><defs><clipPath id="a397119a41"><path d="M 19.003906 20.058594 L 355.753906 20.058594 L 355.753906 355 L 19.003906 355 Z M 19.003906 20.058594 " clip-rule="nonzero"/></clipPath></defs><g clip-path="url(#a397119a41)"><path fill="#fff9f4" d="M 224.144531 145.417969 L 245.089844 145.417969 L 245.089844 155.867188 L 224.144531 155.867188 Z M 171.800781 145.417969 L 150.851562 145.417969 L 150.851562 155.867188 L 171.800781 155.867188 Z M 208.445312 72.125 L 187.496094 72.125 L 187.496094 82.574219 L 208.445312 82.574219 Z M 354.515625 264.550781 L 355.351562 275 L 350.152344 275.417969 C 341.328125 276.113281 329.761719 277.601562 318.613281 279.691406 C 305.191406 282.199219 292.417969 285.589844 285.636719 289.492188 C 285.917969 290.699219 286.101562 291.90625 286.242188 293.207031 C 286.890625 299.988281 284.152344 306.027344 278.71875 309.835938 C 276.164062 311.597656 273.191406 312.761719 270.03125 313.316406 C 269.335938 313.457031 268.683594 313.550781 267.988281 313.644531 C 268.546875 315.40625 268.871094 317.21875 268.917969 319.03125 C 269.148438 324.605469 266.921875 329.621094 262.878906 332.777344 C 257.074219 337.238281 249.132812 339.511719 242.023438 337.421875 C 241.328125 339.746094 240.121094 341.417969 238.960938 342.671875 C 233.664062 348.105469 224.375 350.9375 217.363281 349.265625 C 217.128906 349.21875 216.851562 349.128906 216.617188 349.035156 C 214.25 348.382812 211.929688 347.457031 209.605469 346.109375 C 208.957031 347.363281 208.121094 348.476562 207.191406 349.546875 C 205.890625 350.9375 204.402344 352.148438 202.683594 352.9375 C 200.128906 354.144531 197.296875 354.746094 194.09375 354.746094 C 190.796875 354.746094 187.125 354.097656 183.085938 352.796875 C 180.207031 351.867188 177.371094 350.753906 174.679688 349.546875 C 167.992188 346.574219 161.859375 342.8125 156.054688 338.632812 C 148.019531 332.824219 140.632812 326.230469 133.386719 319.726562 C 128.234375 315.128906 123.214844 310.625 118.0625 306.445312 C 109.5625 299.570312 100.738281 293.671875 90.425781 289.722656 C 81.601562 286.332031 67.992188 284.148438 54.707031 282.757812 C 43.5625 281.59375 32.691406 281.039062 25.078125 280.851562 L 19.828125 280.714844 L 20.058594 270.261719 L 25.167969 270.402344 L 25.308594 270.402344 C 28.046875 270.449219 43.328125 270.914062 59.863281 272.816406 C 72.078125 274.210938 84.945312 276.441406 94.140625 279.96875 C 112.488281 286.984375 126.652344 299.664062 140.355469 311.925781 C 141.285156 312.761719 142.210938 313.597656 143.140625 314.433594 C 146.253906 317.21875 149.320312 319.914062 152.429688 322.515625 C 162.742188 331.199219 173.378906 338.632812 186.242188 342.8125 C 191.539062 344.53125 195.441406 344.761719 198.132812 343.460938 C 199.25 342.949219 200.222656 341.695312 200.550781 340.441406 C 200.6875 339.839844 200.6875 339.328125 200.503906 339.050781 L 199.292969 337.421875 L 186.570312 326.230469 L 193.488281 318.378906 L 214.4375 336.820312 L 214.390625 336.867188 C 215.875 337.75 217.363281 338.351562 218.800781 338.816406 C 219.082031 338.910156 219.40625 339.050781 219.683594 339.09375 C 223.121094 339.929688 228.601562 338.167969 231.390625 335.332031 C 232.550781 334.171875 232.132812 331.710938 231.527344 329.761719 C 229.253906 327.113281 225.953125 324.277344 222.609375 321.726562 C 220.613281 320.191406 218.664062 318.753906 216.898438 317.5 C 213.367188 314.945312 210.8125 313.085938 209.328125 311.460938 L 205.84375 307.558594 L 213.554688 300.453125 L 217.082031 304.308594 C 217.875 305.144531 220.660156 307.1875 223.121094 308.953125 C 225.535156 310.71875 228.230469 312.667969 230.832031 314.757812 C 233.339844 316.753906 235.800781 318.890625 237.9375 321.121094 L 237.984375 321.074219 L 238.632812 321.863281 C 239.238281 322.515625 239.796875 323.164062 240.304688 323.816406 L 241.003906 324.652344 C 245.324219 329.851562 252.613281 327.390625 256.421875 324.417969 C 258.1875 323.070312 258.46875 320.933594 258.421875 319.355469 C 258.328125 316.152344 256.609375 312.945312 254.195312 311.089844 L 253.3125 310.484375 C 253.265625 310.4375 253.265625 310.4375 253.21875 310.390625 L 249.457031 307.882812 L 249.550781 307.699219 C 249.316406 307.558594 249.132812 307.371094 248.898438 307.234375 C 240.167969 300.683594 231.992188 293.578125 227.625 289.492188 C 227.253906 289.167969 226.929688 288.839844 226.652344 288.5625 L 223.539062 285.542969 L 222.890625 284.941406 L 230.179688 277.414062 L 233.945312 281.039062 C 234.964844 282.058594 236.359375 283.359375 238.03125 284.800781 C 243.277344 289.492188 251.128906 296.039062 259.070312 301.707031 L 259.304688 301.847656 C 263.621094 303.890625 269.195312 303.703125 272.773438 301.242188 C 275.140625 299.617188 276.164062 297.203125 275.882812 294.183594 C 275.464844 289.910156 273.65625 286.101562 271.101562 282.617188 C 271.054688 282.570312 271.054688 282.523438 271.007812 282.476562 C 270.402344 281.640625 269.753906 280.851562 269.058594 280.0625 C 269.011719 280.015625 268.964844 279.96875 268.964844 279.921875 C 268.265625 279.085938 267.523438 278.296875 266.78125 277.507812 C 266.734375 277.460938 266.6875 277.414062 266.640625 277.367188 C 265.945312 276.671875 265.25 275.976562 264.550781 275.324219 C 264.414062 275.1875 264.226562 275 264.085938 274.859375 C 263.34375 274.164062 262.601562 273.46875 261.859375 272.769531 C 261.023438 271.980469 260.140625 271.238281 259.304688 270.402344 C 259.257812 270.355469 259.164062 270.261719 259.070312 270.214844 C 258.234375 269.472656 257.445312 268.730469 256.5625 267.988281 C 256.421875 267.894531 256.285156 267.753906 256.191406 267.660156 C 255.914062 267.429688 255.632812 267.199219 255.355469 266.964844 C 254.84375 266.5 254.285156 266.035156 253.777344 265.570312 C 253.589844 265.386719 253.359375 265.246094 253.171875 265.0625 C 252.570312 264.550781 251.917969 264.039062 251.3125 263.480469 C 251.175781 263.34375 251.035156 263.25 250.894531 263.15625 C 250.617188 262.925781 250.339844 262.738281 250.058594 262.507812 C 249.316406 261.902344 248.621094 261.34375 247.878906 260.742188 C 247.550781 260.460938 247.226562 260.230469 246.855469 259.953125 C 246.160156 259.394531 245.460938 258.882812 244.765625 258.324219 C 244.394531 258.046875 244.023438 257.769531 243.652344 257.488281 C 242.953125 256.980469 242.257812 256.46875 241.5625 255.957031 C 241.144531 255.679688 240.726562 255.398438 240.304688 255.121094 C 239.609375 254.65625 238.914062 254.144531 238.214844 253.679688 C 237.753906 253.402344 237.335938 253.078125 236.871094 252.800781 C 236.171875 252.335938 235.476562 251.917969 234.78125 251.453125 C 234.316406 251.171875 233.851562 250.894531 233.339844 250.570312 C 232.644531 250.152344 231.945312 249.734375 231.25 249.316406 C 230.738281 249.035156 230.226562 248.757812 229.761719 248.480469 C 229.066406 248.0625 228.371094 247.691406 227.671875 247.320312 C 227.164062 247.039062 226.652344 246.761719 226.09375 246.527344 C 225.398438 246.15625 224.65625 245.785156 223.957031 245.460938 C 223.398438 245.183594 222.890625 244.949219 222.332031 244.71875 C 221.589844 244.390625 220.890625 244.019531 220.148438 243.742188 C 219.589844 243.511719 219.035156 243.277344 218.476562 243.046875 C 217.734375 242.765625 216.992188 242.441406 216.246094 242.164062 C 215.644531 241.929688 215.085938 241.746094 214.484375 241.511719 C 213.738281 241.234375 212.996094 240.957031 212.253906 240.722656 C 211.648438 240.539062 211.046875 240.351562 210.441406 240.164062 C 209.882812 239.980469 209.328125 239.839844 208.769531 239.65625 C 200.503906 244.484375 190.46875 246.527344 180.902344 245.320312 C 174.816406 258.746094 158.933594 267.429688 143.929688 264.828125 C 136.917969 263.621094 134.597656 259.765625 133.851562 257.582031 C 132.503906 253.589844 134.222656 249.964844 135.199219 248.0625 L 143.929688 229.949219 C 146.578125 224.511719 149.550781 218.289062 154.894531 213.597656 C 159.351562 209.699219 164.785156 207.421875 169.570312 205.472656 C 175.980469 202.824219 182.574219 200.128906 189.355469 197.855469 C 180.855469 197.574219 172.355469 198.734375 164.367188 201.382812 C 157.632812 203.613281 151.269531 206.539062 144.488281 209.605469 C 139.84375 211.695312 135.058594 213.878906 130.183594 215.828125 C 124.191406 218.195312 109.746094 218.242188 92.65625 216.988281 C 90.796875 216.851562 88.9375 216.710938 87.082031 216.523438 C 85.222656 216.386719 83.367188 216.199219 81.507812 216.015625 C 61.863281 214.0625 40.636719 210.765625 25.355469 207.28125 C 24.984375 207.1875 24.566406 207.097656 24.148438 207.003906 L 19.039062 205.796875 L 21.40625 195.625 L 25.308594 196.554688 L 26.515625 196.832031 C 41.984375 200.40625 61.445312 203.425781 79.1875 205.332031 C 78.210938 199.480469 77.699219 193.441406 77.699219 187.308594 C 77.699219 158.328125 89.402344 133.386719 109.097656 115.691406 L 109.097656 93.117188 L 145.742188 93.117188 L 145.742188 19.871094 L 229.484375 19.871094 L 229.484375 93.164062 L 266.128906 93.164062 L 266.128906 115.738281 C 285.824219 133.386719 297.527344 158.375 297.527344 187.355469 C 297.527344 190.050781 297.390625 192.746094 297.203125 195.390625 C 316.011719 196.972656 333.753906 197.992188 349.222656 196.136719 L 349.871094 196.042969 L 354.425781 195.484375 L 355.679688 205.890625 L 350.476562 206.539062 C 350.289062 206.539062 350.058594 206.585938 349.824219 206.585938 C 333.523438 208.488281 314.714844 207.421875 295.902344 205.796875 C 294.136719 205.65625 292.417969 205.515625 290.652344 205.332031 C 288.890625 205.191406 287.171875 205.007812 285.40625 204.867188 C 284.664062 204.820312 283.871094 204.726562 283.128906 204.679688 C 266.78125 203.195312 250.058594 201.707031 234.5 201.753906 C 231.25 201.753906 228.046875 201.847656 224.886719 201.988281 C 221.265625 202.171875 217.734375 202.5 214.25 202.917969 C 209.929688 203.425781 205.703125 204.171875 201.757812 205.191406 C 192.1875 207.5625 182.761719 211.460938 173.609375 215.269531 C 169.335938 217.035156 164.972656 218.847656 161.8125 221.632812 C 158.050781 224.929688 155.683594 229.855469 153.359375 234.640625 L 144.628906 252.753906 C 144.488281 253.03125 144.164062 253.679688 143.976562 254.191406 C 144.347656 254.332031 144.90625 254.519531 145.695312 254.65625 C 156.285156 256.515625 167.804688 249.917969 171.660156 240.304688 L 165.992188 231.574219 L 174.769531 225.90625 L 180.484375 234.777344 C 188.566406 236.171875 197.25 234.546875 204.171875 230.273438 L 198.691406 220.984375 L 207.703125 215.640625 L 212.066406 223.027344 L 214.855469 227.765625 L 217.039062 231.433594 C 217.640625 231.621094 218.246094 231.851562 218.800781 232.039062 C 219.3125 232.222656 219.871094 232.457031 220.382812 232.640625 C 221.21875 232.964844 222.101562 233.292969 222.9375 233.664062 C 223.492188 233.894531 224.003906 234.128906 224.5625 234.359375 C 225.351562 234.730469 226.1875 235.058594 226.976562 235.429688 C 227.535156 235.660156 228.042969 235.9375 228.601562 236.171875 C 229.390625 236.542969 230.179688 236.960938 230.925781 237.332031 C 231.433594 237.609375 231.945312 237.84375 232.457031 238.121094 C 233.246094 238.539062 234.035156 238.957031 234.78125 239.421875 C 235.152344 239.65625 235.570312 239.839844 235.941406 240.074219 L 239.75 241 C 256.050781 244.949219 269.894531 234.824219 270.03125 234.683594 L 274.210938 231.574219 L 275.605469 233.429688 L 279.089844 238.074219 L 280.480469 239.886719 L 276.300781 243.046875 C 276.253906 243.09375 276.164062 243.136719 275.976562 243.277344 C 274.910156 244.066406 271.191406 246.574219 265.621094 248.804688 C 262.183594 250.152344 258.050781 251.40625 253.449219 252.007812 C 253.867188 252.335938 254.285156 252.660156 254.660156 252.984375 C 255.261719 253.449219 255.820312 253.914062 256.421875 254.378906 C 256.886719 254.75 257.304688 255.121094 257.769531 255.445312 C 258.140625 255.773438 258.558594 256.097656 258.929688 256.421875 C 259.117188 256.5625 259.304688 256.699219 259.441406 256.886719 C 259.859375 257.257812 260.277344 257.582031 260.695312 257.953125 C 261.253906 258.464844 261.859375 258.929688 262.414062 259.441406 C 262.601562 259.582031 262.785156 259.765625 262.925781 259.90625 C 263.113281 260.089844 263.34375 260.277344 263.53125 260.417969 C 264.132812 260.925781 264.738281 261.484375 265.339844 261.996094 C 265.667969 262.273438 265.992188 262.554688 266.269531 262.832031 C 266.457031 263.015625 266.640625 263.15625 266.828125 263.296875 C 267.523438 263.945312 268.21875 264.550781 268.871094 265.152344 C 269.847656 266.082031 270.867188 267.058594 271.890625 268.035156 C 272.121094 268.265625 272.355469 268.496094 272.585938 268.730469 C 273.421875 269.519531 274.210938 270.402344 275.046875 271.238281 C 275.375 271.5625 275.652344 271.886719 275.976562 272.261719 C 276.765625 273.097656 277.507812 274.023438 278.207031 274.90625 C 278.578125 275.371094 278.902344 275.789062 279.226562 276.253906 C 279.925781 277.230469 280.621094 278.203125 281.273438 279.226562 C 281.363281 279.414062 281.503906 279.550781 281.644531 279.738281 C 289.492188 275.605469 301.476562 272.398438 313.503906 270.03125 C 327.765625 267.199219 342.023438 265.570312 349.222656 265.015625 L 349.640625 264.96875 Z M 160.976562 191.445312 C 178.671875 185.546875 198.132812 185.964844 215.550781 192.140625 C 236.777344 189.910156 260.695312 192.09375 283.964844 194.183594 C 284.847656 194.277344 285.730469 194.324219 286.613281 194.417969 C 286.800781 192.046875 286.890625 189.679688 286.890625 187.265625 C 286.890625 164.691406 279.273438 145.089844 265.945312 130.042969 L 265.945312 176.8125 L 109.003906 176.8125 L 109.003906 130.042969 C 95.675781 145.089844 88.058594 164.691406 88.058594 187.265625 C 88.058594 193.765625 88.707031 200.128906 89.914062 206.304688 C 107.378906 207.746094 121.683594 207.886719 126.28125 206.074219 C 130.925781 204.261719 135.570312 202.125 140.078125 200.082031 C 146.8125 197.015625 153.730469 193.859375 160.976562 191.445312 Z M 119.453125 113.785156 L 119.453125 166.316406 L 182.25 166.316406 L 182.25 103.523438 L 156.101562 103.523438 L 156.101562 113.972656 L 145.648438 113.972656 L 145.648438 103.523438 L 119.453125 103.523438 Z M 156.101562 91.492188 L 156.101562 93.070312 L 218.894531 93.070312 L 218.894531 30.277344 L 192.699219 30.277344 L 192.699219 40.726562 L 182.25 40.726562 L 182.25 30.277344 L 156.054688 30.277344 L 156.054688 91.492188 Z M 249.222656 103.523438 L 229.34375 103.523438 L 229.34375 113.972656 L 218.894531 113.972656 L 218.894531 103.523438 L 192.746094 103.523438 L 192.746094 166.316406 L 255.539062 166.316406 L 255.539062 103.566406 L 249.222656 103.566406 Z M 194.464844 303.890625 L 195.949219 301.613281 C 197.160156 299.753906 198.320312 297.992188 199.621094 296.457031 C 199.804688 296.226562 199.992188 295.945312 200.175781 295.761719 C 201.476562 294.367188 203.101562 293.066406 204.820312 291.675781 C 205.425781 291.164062 206.03125 290.652344 206.632812 290.140625 C 207.375 289.539062 208.167969 288.933594 208.863281 288.238281 C 210.535156 286.65625 212.019531 284.984375 213.414062 283.222656 C 217.964844 277.367188 220.984375 270.726562 223.726562 264.6875 L 225.910156 259.90625 L 216.386719 255.585938 L 214.203125 260.371094 C 210.859375 267.707031 207.46875 275.277344 201.710938 280.621094 C 200.59375 281.640625 199.433594 282.570312 198.273438 283.546875 C 197.160156 284.476562 195.996094 285.402344 194.882812 286.425781 C 194.09375 287.121094 193.304688 287.867188 192.558594 288.65625 C 191.585938 289.722656 190.75 290.792969 189.960938 291.90625 C 188.984375 293.253906 188.054688 294.648438 187.21875 295.992188 L 186.429688 297.203125 L 185.824219 298.128906 C 180.53125 306.074219 174.398438 311.367188 167.710938 313.875 L 162.789062 315.6875 L 166.457031 325.488281 L 171.382812 323.675781 C 180.113281 320.332031 187.914062 313.691406 194.464844 303.890625 Z M 30.511719 184.847656 L 30.511719 162.460938 L 60.746094 155.726562 L 75.46875 120.195312 L 60.746094 92.003906 L 92.191406 60.558594 L 122.890625 76.535156 L 127.722656 67.246094 L 126.980469 66.875 L 90.238281 47.742188 L 47.925781 90.007812 L 63.90625 120.707031 L 53.128906 146.714844 L 20.015625 154.101562 L 20.015625 184.894531 L 30.511719 184.894531 Z M 282.804688 60.511719 L 314.25 91.957031 L 299.523438 120.148438 L 314.25 155.679688 L 344.484375 162.414062 L 344.484375 184.800781 L 354.980469 184.800781 L 354.980469 154.007812 L 321.867188 146.625 L 311.089844 120.613281 L 327.066406 89.914062 L 284.753906 47.601562 L 248.015625 66.738281 L 247.273438 67.109375 L 252.105469 76.398438 Z M 304.402344 292.371094 L 276.347656 320.425781 L 283.734375 327.808594 L 311.785156 299.753906 Z M 108.445312 305.515625 L 92.191406 313.96875 L 66.320312 288.097656 L 58.890625 295.527344 L 90.195312 326.832031 L 113.277344 314.804688 L 110.863281 310.160156 Z M 108.445312 305.515625 " fill-opacity="1" fill-rule="nonzero"/></g></svg>