<svg xmlns="http://www.w3.org/2000/svg" xmlns:xlink="http://www.w3.org/1999/xlink" width="500" zoomAndPan="magnify" viewBox="0 0 375 374.999991" height="500" preserveAspectRatio="xMidYMid meet" version="1.0"><defs><clipPath id="8831278ba5"><path d="M 13.304688 59.734375 L 367.304688 59.734375 L 367.304688 325.984375 L 13.304688 325.984375 Z M 13.304688 59.734375 " clip-rule="nonzero"/></clipPath></defs><g clip-path="url(#8831278ba5)"><path fill="#fff9f4" d="M 270.792969 205.226562 L 215.304688 237.546875 C 213.148438 238.800781 210.964844 239.765625 208.710938 240.441406 C 209.410156 239.050781 209.984375 237.542969 210.417969 235.925781 C 211.941406 230.234375 211.054688 224.078125 207.984375 219.027344 C 205.035156 214.183594 200.441406 210.863281 195.046875 209.679688 C 178.71875 206.097656 162.574219 200.527344 149.605469 196.046875 C 145.582031 194.65625 141.78125 193.34375 138.53125 192.292969 C 124.039062 187.589844 111.003906 193.367188 100.167969 199.644531 L 59.5625 223.152344 L 55.4375 215.863281 C 53.617188 212.648438 50.644531 210.332031 47.070312 209.339844 C 43.492188 208.347656 39.753906 208.804688 36.539062 210.625 L 20.972656 219.433594 C 17.753906 221.253906 15.4375 224.226562 14.445312 227.804688 C 13.457031 231.378906 13.914062 235.117188 15.734375 238.335938 L 61.503906 319.210938 C 63.324219 322.425781 66.296875 324.742188 69.871094 325.734375 C 71.109375 326.074219 72.363281 326.246094 73.609375 326.246094 C 75.972656 326.246094 78.300781 325.636719 80.402344 324.449219 L 95.972656 315.636719 C 102.625 311.871094 104.976562 303.390625 101.210938 296.738281 L 97.488281 290.160156 L 105.953125 285.269531 L 176.714844 304.230469 C 180.703125 305.300781 184.671875 305.832031 188.574219 305.832031 C 196.472656 305.832031 204.101562 303.65625 211.078125 299.363281 L 311.773438 237.355469 C 321.296875 231.496094 324.332031 216.746094 318.140625 206.417969 C 315.144531 201.414062 302.875 186.542969 270.792969 205.226562 Z M 90.359375 305.71875 L 74.789062 314.53125 C 74.027344 314.964844 73.285156 314.855469 72.914062 314.753906 C 72.542969 314.648438 71.855469 314.363281 71.421875 313.597656 L 25.648438 232.722656 C 25.214844 231.957031 25.324219 231.21875 25.425781 230.847656 C 25.53125 230.476562 25.816406 229.789062 26.582031 229.355469 L 42.152344 220.542969 C 42.574219 220.304688 42.992188 220.230469 43.34375 220.230469 C 43.625 220.230469 43.859375 220.277344 44.027344 220.324219 C 44.398438 220.425781 45.085938 220.710938 45.519531 221.476562 L 91.292969 302.351562 C 91.953125 303.515625 91.523438 305.058594 90.359375 305.71875 Z M 305.800781 227.65625 L 205.101562 289.660156 C 197.304688 294.460938 188.746094 295.660156 179.660156 293.222656 L 106.625 273.652344 C 105.164062 273.265625 103.609375 273.464844 102.300781 274.222656 L 91.871094 280.242188 L 65.175781 233.070312 L 105.878906 209.507812 C 114.976562 204.238281 124.800781 199.820312 135.015625 203.132812 C 138.164062 204.152344 141.914062 205.449219 145.886719 206.820312 C 159.136719 211.394531 175.628906 217.089844 192.605469 220.8125 C 194.929688 221.320312 196.933594 222.792969 198.246094 224.953125 C 199.710938 227.355469 200.132812 230.28125 199.410156 232.976562 C 197.609375 239.703125 191.957031 240.539062 187.445312 240.027344 C 179.320312 238.351562 171.582031 236.144531 163.398438 233.804688 C 159.496094 232.691406 155.464844 231.539062 151.316406 230.429688 C 148.277344 229.617188 145.152344 231.417969 144.335938 234.457031 C 143.523438 237.496094 145.328125 240.621094 148.367188 241.4375 C 152.421875 242.523438 156.410156 243.664062 160.265625 244.761719 C 168.75 247.1875 176.765625 249.476562 185.40625 251.242188 C 185.445312 251.25 192.535156 252.40625 192.535156 252.40625 C 203.039062 254.085938 212.363281 252.445312 221.039062 247.394531 L 276.527344 215.074219 C 292.085938 206.015625 303.988281 204.96875 308.367188 212.273438 C 311.355469 217.269531 310.0625 225.03125 305.800781 227.65625 Z M 46.90625 236.582031 C 47.351562 239.621094 45.246094 242.441406 42.210938 242.886719 C 39.171875 243.328125 36.351562 241.226562 35.90625 238.191406 C 35.460938 235.152344 37.566406 232.328125 40.601562 231.886719 C 43.640625 231.441406 46.460938 233.542969 46.90625 236.582031 Z M 367.175781 167.75 C 364.707031 144.683594 349.410156 125.933594 328.804688 118.21875 C 336.121094 112.152344 340.792969 103 340.792969 92.777344 C 340.792969 74.5625 325.972656 59.742188 307.757812 59.742188 C 289.542969 59.742188 274.726562 74.5625 274.726562 92.777344 C 274.726562 102.996094 279.394531 112.148438 286.707031 118.210938 C 272.820312 123.414062 261.234375 133.671875 254.425781 147.179688 C 248.90625 142.199219 242.453125 138.253906 235.378906 135.605469 C 242.695312 129.539062 247.367188 120.386719 247.367188 110.164062 C 247.367188 91.949219 232.546875 77.128906 214.332031 77.128906 C 196.117188 77.128906 181.300781 91.949219 181.300781 110.164062 C 181.300781 120.386719 185.96875 129.539062 193.289062 135.605469 C 186.210938 138.253906 179.761719 142.199219 174.242188 147.179688 C 167.433594 133.671875 155.847656 123.414062 141.957031 118.210938 C 149.273438 112.148438 153.941406 102.996094 153.941406 92.777344 C 153.941406 74.5625 139.121094 59.742188 120.910156 59.742188 C 102.695312 59.742188 87.875 74.5625 87.875 92.777344 C 87.875 103 92.546875 112.152344 99.863281 118.21875 C 79.257812 125.933594 63.957031 144.6875 61.492188 167.75 C 61.320312 169.359375 61.835938 170.964844 62.917969 172.164062 C 64 173.367188 65.539062 174.054688 67.15625 174.054688 L 157.167969 174.054688 C 156.085938 177.613281 155.324219 181.316406 154.914062 185.136719 C 154.742188 186.746094 155.261719 188.351562 156.34375 189.554688 C 157.421875 190.753906 158.964844 191.441406 160.582031 191.441406 L 268.085938 191.441406 C 269.703125 191.441406 271.242188 190.757812 272.324219 189.554688 C 273.402344 188.351562 273.921875 186.746094 273.75 185.136719 C 273.339844 181.316406 272.578125 177.613281 271.5 174.054688 L 361.511719 174.054688 C 363.125 174.054688 364.667969 173.371094 365.746094 172.167969 C 366.832031 170.964844 367.347656 169.359375 367.175781 167.75 Z M 286.121094 92.777344 C 286.121094 80.84375 295.828125 71.136719 307.757812 71.136719 C 319.6875 71.136719 329.394531 80.84375 329.394531 92.777344 C 329.394531 104.707031 319.6875 114.414062 307.757812 114.414062 C 295.828125 114.414062 286.121094 104.707031 286.121094 92.777344 Z M 192.695312 110.164062 C 192.695312 98.230469 202.402344 88.527344 214.332031 88.527344 C 226.265625 88.527344 235.972656 98.230469 235.972656 110.164062 C 235.972656 122.09375 226.265625 131.800781 214.332031 131.800781 C 202.402344 131.800781 192.695312 122.09375 192.695312 110.164062 Z M 99.269531 92.777344 C 99.269531 80.84375 108.976562 71.136719 120.910156 71.136719 C 132.839844 71.136719 142.546875 80.84375 142.546875 92.777344 C 142.546875 104.707031 132.839844 114.414062 120.910156 114.414062 C 108.976562 114.414062 99.269531 104.707031 99.269531 92.777344 Z M 161.988281 162.660156 L 73.914062 162.660156 C 79.097656 141.257812 98.292969 125.808594 120.910156 125.808594 C 140.957031 125.808594 158.679688 138.011719 165.917969 156.460938 C 164.484375 158.4375 163.171875 160.503906 161.988281 162.660156 Z M 167.339844 180.046875 C 172.523438 158.648438 191.71875 143.195312 214.332031 143.195312 C 236.949219 143.195312 256.140625 158.644531 261.324219 180.046875 Z M 266.679688 162.660156 C 265.492188 160.503906 264.183594 158.433594 262.75 156.460938 C 269.988281 138.011719 287.710938 125.808594 307.757812 125.808594 C 330.375 125.808594 349.566406 141.257812 354.75 162.660156 Z M 266.679688 162.660156 " fill-opacity="1" fill-rule="nonzero"/></g></svg>