<svg xmlns="http://www.w3.org/2000/svg" xmlns:xlink="http://www.w3.org/1999/xlink" width="500" zoomAndPan="magnify" viewBox="0 0 375 374.999991" height="500" preserveAspectRatio="xMidYMid meet" version="1.0"><defs><clipPath id="d7fb2c4053"><path d="M 47 10.484375 L 328 10.484375 L 328 364.484375 L 47 364.484375 Z M 47 10.484375 " clip-rule="nonzero"/></clipPath></defs><g clip-path="url(#d7fb2c4053)"><path fill="#fff9f4" d="M 280.1875 277.28125 C 282.289062 279.382812 282.289062 282.769531 280.1875 284.863281 L 237.019531 328.035156 C 234.761719 330.296875 231.042969 330.09375 229.042969 327.597656 L 211.773438 306.007812 C 209.921875 303.703125 210.292969 300.324219 212.609375 298.472656 C 214.921875 296.621094 218.292969 297 220.144531 299.308594 L 233.671875 316.214844 L 272.609375 277.28125 C 274.703125 275.1875 278.101562 275.1875 280.1875 277.28125 Z M 249.402344 353.765625 C 277.398438 353.765625 300.171875 331 300.171875 303.007812 C 300.171875 275.015625 277.398438 252.246094 249.402344 252.246094 C 221.414062 252.246094 198.644531 275.015625 198.644531 303.007812 C 198.644531 331 221.414062 353.765625 249.402344 353.765625 Z M 150.027344 333.875 C 148.15625 333.875 146.570312 332.300781 146.570312 330.425781 L 146.570312 307.410156 L 188.09375 307.410156 C 188.773438 317.003906 191.660156 326 196.265625 333.875 Z M 128.746094 296.070312 L 128.746094 275.34375 C 128.746094 275.023438 129.03125 274.738281 129.363281 274.738281 L 194.832031 274.738281 C 191.347656 281.433594 189.046875 288.839844 188.238281 296.6875 L 129.363281 296.6875 C 129.03125 296.6875 128.746094 296.402344 128.746094 296.070312 Z M 129.230469 242.167969 C 111.964844 228.480469 101.316406 208.535156 99.5 186.8125 L 117.367188 186.8125 L 117.367188 194.816406 C 117.367188 205.140625 125.773438 213.546875 136.097656 213.546875 C 146.433594 213.546875 154.832031 205.140625 154.832031 194.816406 L 154.832031 186.8125 L 172.96875 186.8125 L 172.96875 210.96875 C 172.96875 213.929688 175.367188 216.332031 178.335938 216.332031 L 191.699219 216.332031 C 196.109375 216.332031 199.703125 219.925781 199.703125 224.335938 C 199.703125 228.746094 196.109375 232.339844 191.699219 232.339844 L 178.335938 232.339844 C 175.367188 232.339844 172.96875 234.742188 172.96875 237.699219 L 172.96875 264.007812 L 144.46875 264.007812 C 141.796875 255.492188 136.59375 248.003906 129.230469 242.167969 Z M 164.96875 146.566406 C 160.546875 146.566406 156.957031 142.972656 156.957031 138.5625 C 156.957031 134.148438 160.546875 130.558594 164.96875 130.558594 L 178.335938 130.558594 C 181.292969 130.558594 183.699219 128.164062 183.699219 125.195312 L 183.699219 101.222656 C 223.480469 103.898438 255.304688 136.132812 257.335938 176.085938 L 239.953125 176.085938 L 239.953125 168.082031 C 239.953125 157.753906 231.554688 149.351562 221.230469 149.351562 C 210.898438 149.351562 202.5 157.753906 202.5 168.082031 L 202.5 176.085938 L 183.695312 176.085938 L 183.695312 151.925781 C 183.695312 148.96875 181.292969 146.566406 178.335938 146.566406 Z M 227.441406 242.167969 C 224.964844 244.132812 222.726562 246.308594 220.734375 248.636719 C 213.484375 252.472656 207.078125 257.714844 201.90625 264.007812 L 183.699219 264.007812 L 183.699219 243.066406 L 191.699219 243.066406 C 202.023438 243.066406 210.429688 234.664062 210.429688 224.335938 C 210.429688 214.007812 202.023438 205.605469 191.699219 205.605469 L 183.699219 205.605469 L 183.699219 186.8125 L 207.863281 186.8125 C 210.824219 186.8125 213.226562 184.410156 213.226562 181.449219 L 213.226562 168.085938 C 213.226562 163.671875 216.8125 160.082031 221.230469 160.082031 C 225.640625 160.082031 229.230469 163.671875 229.230469 168.085938 L 229.230469 181.449219 C 229.230469 184.410156 231.636719 186.8125 234.59375 186.8125 L 257.171875 186.8125 C 255.355469 208.535156 244.714844 228.480469 227.441406 242.167969 Z M 249.402344 241.515625 C 247.484375 241.515625 245.570312 241.617188 243.6875 241.792969 C 259.386719 225.195312 268.160156 203.332031 268.160156 180.144531 C 268.160156 130.617188 227.863281 90.316406 178.335938 90.316406 C 175.367188 90.316406 172.96875 92.714844 172.96875 95.683594 L 172.96875 119.832031 L 164.96875 119.832031 C 154.632812 119.832031 146.234375 128.234375 146.234375 138.5625 C 146.234375 148.886719 154.632812 157.285156 164.96875 157.285156 L 172.96875 157.285156 L 172.96875 176.082031 L 149.472656 176.082031 C 146.503906 176.082031 144.109375 178.488281 144.109375 181.445312 L 144.109375 194.8125 C 144.109375 199.226562 140.519531 202.816406 136.097656 202.816406 C 131.6875 202.816406 128.097656 199.226562 128.097656 194.8125 L 128.097656 181.445312 C 128.097656 178.484375 125.699219 176.082031 122.730469 176.082031 L 93.871094 176.082031 C 90.882812 176.082031 88.460938 178.542969 88.503906 181.527344 C 88.921875 208.574219 101.328125 233.746094 122.570312 250.574219 C 127.335938 254.351562 130.84375 258.859375 133.050781 264.007812 L 129.363281 264.007812 C 123.113281 264.007812 118.019531 269.09375 118.019531 275.34375 L 118.019531 296.070312 C 118.019531 302.320312 123.113281 307.410156 129.363281 307.410156 L 135.84375 307.410156 L 135.84375 330.425781 C 135.84375 338.242188 142.207031 344.605469 150.027344 344.605469 L 204.179688 344.605469 C 215.421875 356.820312 231.535156 364.492188 249.402344 364.492188 C 283.308594 364.492188 310.898438 336.910156 310.898438 303.007812 C 310.898438 269.101562 283.308594 241.515625 249.402344 241.515625 Z M 324.414062 103.304688 L 303.976562 115.105469 C 301.457031 116.558594 298.152344 115.742188 296.644531 113.136719 C 295.164062 110.570312 296.046875 107.292969 298.617188 105.8125 L 319.050781 94.015625 C 321.613281 92.53125 324.898438 93.410156 326.375 95.972656 C 327.855469 98.542969 326.980469 101.8125 324.414062 103.304688 Z M 244.675781 55.804688 L 256.476562 35.363281 C 257.957031 32.800781 261.242188 31.921875 263.804688 33.398438 C 266.363281 34.890625 267.246094 38.164062 265.765625 40.730469 L 253.964844 61.167969 C 252.460938 63.773438 249.152344 64.585938 246.640625 63.136719 C 244.078125 61.644531 243.195312 58.371094 244.675781 55.804688 Z M 172.96875 39.464844 L 172.96875 15.867188 C 172.96875 12.902344 175.367188 10.5 178.335938 10.5 C 181.292969 10.5 183.699219 12.902344 183.699219 15.867188 L 183.699219 39.464844 C 183.699219 42.425781 181.292969 44.824219 178.335938 44.824219 C 175.367188 44.824219 172.96875 42.425781 172.96875 39.464844 Z M 87.324219 138.605469 L 87.324219 125.234375 C 87.324219 122.273438 84.921875 119.875 81.964844 119.875 L 58.5625 119.875 C 60.59375 79.910156 92.417969 47.679688 132.199219 45.003906 L 132.199219 63.621094 L 124.195312 63.621094 C 113.875 63.621094 105.46875 72.023438 105.46875 82.351562 C 105.46875 92.675781 113.875 101.078125 124.195312 101.078125 L 132.199219 101.078125 L 132.199219 119.875 L 108.695312 119.875 C 105.734375 119.875 103.328125 122.273438 103.328125 125.234375 L 103.328125 138.605469 C 103.328125 143.015625 99.738281 146.605469 95.328125 146.605469 C 90.914062 146.605469 87.324219 143.015625 87.324219 138.605469 Z M 114.058594 138.605469 C 114.058594 148.929688 105.65625 157.335938 95.328125 157.335938 C 85.003906 157.335938 76.597656 148.929688 76.597656 138.605469 L 76.597656 130.601562 L 53.101562 130.601562 C 50.171875 130.601562 47.785156 128.246094 47.742188 125.316406 C 47.117188 74.953125 87.597656 34.101562 137.5625 34.101562 C 140.523438 34.101562 142.925781 36.503906 142.925781 39.460938 L 142.925781 68.984375 C 142.925781 71.945312 140.523438 74.34375 137.5625 74.34375 L 124.195312 74.34375 C 119.785156 74.34375 116.195312 77.9375 116.195312 82.351562 C 116.195312 86.761719 119.785156 90.351562 124.195312 90.351562 L 137.5625 90.351562 C 140.523438 90.351562 142.925781 92.757812 142.925781 95.714844 L 142.925781 125.234375 C 142.925781 128.199219 140.523438 130.601562 137.5625 130.601562 L 114.058594 130.601562 Z M 114.058594 138.605469 " fill-opacity="1" fill-rule="evenodd"/></g></svg>