<svg xmlns="http://www.w3.org/2000/svg" xmlns:xlink="http://www.w3.org/1999/xlink" width="500" zoomAndPan="magnify" viewBox="0 0 375 374.999991" height="500" preserveAspectRatio="xMidYMid meet" version="1.0"><path fill="#fff9f4" d="M 75.9375 130.996094 L 64.957031 100.351562 C 64.953125 100.335938 64.949219 100.324219 64.945312 100.308594 C 64.640625 99.210938 63.960938 98.21875 62.945312 97.53125 C 61.480469 96.542969 59.675781 96.445312 58.171875 97.113281 C 58.160156 97.121094 58.144531 97.125 58.128906 97.128906 L 27.492188 108.109375 C 24.929688 109.027344 23.597656 111.847656 24.515625 114.410156 C 25.429688 116.972656 28.253906 118.304688 30.816406 117.386719 L 47.035156 111.574219 C 47.296875 111.480469 47.574219 111.554688 47.757812 111.765625 C 47.9375 111.976562 47.96875 112.261719 47.835938 112.507812 C 42.980469 121.546875 38.96875 131.125 35.910156 141.136719 C 31.414062 155.84375 29 171.410156 29 187.496094 C 29 231.265625 46.738281 270.890625 75.421875 299.570312 C 104.105469 328.253906 143.730469 345.996094 187.496094 345.996094 C 203.582031 345.996094 219.152344 343.578125 233.855469 339.085938 C 249.074219 334.4375 263.289062 327.585938 276.128906 318.910156 C 278.390625 317.382812 278.988281 314.3125 277.460938 312.046875 C 275.933594 309.785156 272.863281 309.1875 270.597656 310.714844 C 258.507812 318.886719 245.1875 325.316406 230.996094 329.652344 C 217.277344 333.84375 202.675781 336.097656 187.496094 336.097656 C 146.460938 336.097656 109.308594 319.464844 82.417969 292.574219 C 55.527344 265.683594 38.894531 228.53125 38.894531 187.496094 C 38.894531 172.320312 41.148438 157.714844 45.339844 144 C 48.546875 133.503906 52.898438 123.484375 58.253906 114.089844 C 58.382812 113.859375 58.621094 113.734375 58.882812 113.757812 C 59.148438 113.78125 59.359375 113.945312 59.449219 114.191406 L 66.660156 134.320312 C 67.578125 136.882812 70.398438 138.214844 72.960938 137.296875 C 75.523438 136.378906 76.855469 133.558594 75.9375 130.996094 Z M 97.53125 62.945312 C 96.007812 60.683594 96.601562 57.609375 98.867188 56.085938 C 111.703125 47.410156 125.917969 40.558594 141.136719 35.910156 C 155.84375 31.417969 171.410156 29 187.496094 29 C 231.265625 29 270.890625 46.738281 299.570312 75.421875 C 328.253906 104.105469 345.996094 143.730469 345.996094 187.496094 C 345.996094 203.582031 343.578125 219.152344 339.085938 233.855469 C 336.027344 243.867188 332.015625 253.445312 327.15625 262.484375 C 327.023438 262.730469 327.058594 263.015625 327.238281 263.226562 C 327.421875 263.4375 327.699219 263.511719 327.960938 263.417969 L 344.179688 257.609375 C 346.742188 256.691406 349.5625 258.023438 350.480469 260.585938 C 351.398438 263.148438 350.066406 265.96875 347.503906 266.886719 L 316.863281 277.863281 C 316.847656 277.871094 316.835938 277.875 316.820312 277.882812 C 315.316406 278.550781 313.511719 278.449219 312.046875 277.464844 C 311.035156 276.777344 310.351562 275.78125 310.050781 274.6875 C 310.046875 274.671875 310.039062 274.65625 310.035156 274.640625 L 299.054688 244 C 298.136719 241.4375 299.46875 238.617188 302.03125 237.699219 C 304.59375 236.78125 307.414062 238.113281 308.332031 240.675781 L 315.546875 260.804688 C 315.632812 261.050781 315.847656 261.214844 316.109375 261.238281 C 316.371094 261.261719 316.609375 261.136719 316.738281 260.90625 C 322.09375 251.511719 326.445312 241.492188 329.652344 230.996094 C 333.84375 217.28125 336.097656 202.675781 336.097656 187.5 C 336.097656 146.464844 319.464844 109.3125 292.574219 82.421875 C 265.683594 55.527344 228.53125 38.894531 187.496094 38.894531 C 172.320312 38.894531 157.714844 41.152344 144 45.339844 C 129.804688 49.675781 116.484375 56.109375 104.394531 64.28125 C 102.132812 65.804688 99.058594 65.210938 97.53125 62.945312 Z M 236.605469 186.578125 C 236.605469 214.609375 213.878906 237.335938 185.84375 237.335938 C 157.8125 237.335938 135.085938 214.609375 135.085938 186.578125 C 135.085938 158.542969 157.8125 135.820312 185.84375 135.820312 C 200.882812 135.820312 214.390625 142.355469 223.683594 152.746094 C 223.8125 152.886719 223.980469 152.964844 224.171875 152.964844 C 224.363281 152.964844 224.53125 152.894531 224.660156 152.75 L 248.222656 127.152344 C 250.066406 125.144531 253.191406 125.015625 255.199219 126.863281 C 257.207031 128.707031 257.335938 131.832031 255.488281 133.839844 L 246.726562 143.363281 L 246.722656 143.367188 C 246.71875 143.367188 246.71875 143.371094 246.714844 143.371094 L 185.710938 209.65625 C 185.582031 209.796875 185.417969 209.867188 185.230469 209.871094 C 185.039062 209.871094 184.875 209.804688 184.746094 209.667969 L 166.472656 190.4375 C 164.59375 188.464844 161.46875 188.386719 159.492188 190.265625 C 157.519531 192.144531 157.441406 195.269531 159.320312 197.242188 L 181.714844 220.804688 C 183.59375 222.78125 186.71875 222.859375 188.695312 220.980469 C 188.773438 220.90625 188.84375 220.832031 188.917969 220.753906 C 188.921875 220.75 188.925781 220.746094 188.933594 220.742188 L 233.523438 172.292969 C 233.6875 172.109375 233.921875 172.039062 234.160156 172.097656 C 234.398438 172.152344 234.574219 172.320312 234.640625 172.554688 C 235.917969 177.011719 236.605469 181.714844 236.605469 186.578125 Z M 95.558594 110.820312 C 95.566406 110.5 95.800781 110.234375 96.117188 110.1875 C 105.320312 108.800781 114.785156 106.855469 124.375 104.324219 C 148.34375 98.003906 169.832031 88.898438 187.152344 78.40625 C 187.371094 78.277344 187.621094 78.277344 187.835938 78.40625 C 205.160156 88.898438 226.648438 98 250.617188 104.324219 C 260.210938 106.855469 269.675781 108.800781 278.875 110.1875 C 279.195312 110.238281 279.429688 110.5 279.4375 110.824219 C 281.703125 193.210938 282.445312 280.179688 187.703125 311.0625 C 187.5625 311.109375 187.429688 311.109375 187.289062 311.0625 C 92.546875 280.179688 93.292969 193.207031 95.558594 110.820312 Z M 155.578125 254.503906 L 221.410156 254.503906 C 224.144531 254.503906 226.359375 256.71875 226.359375 259.453125 C 226.359375 262.183594 224.144531 264.398438 221.410156 264.398438 L 155.578125 264.398438 C 152.847656 264.398438 150.628906 262.183594 150.628906 259.453125 C 150.628906 256.71875 152.847656 254.503906 155.578125 254.503906 Z M 155.578125 254.503906 " fill-opacity="1" fill-rule="evenodd"/></svg>