<svg xmlns="http://www.w3.org/2000/svg" xmlns:xlink="http://www.w3.org/1999/xlink" zoomAndPan="magnify" preserveAspectRatio="xMidYMid meet" version="1.0" viewBox="21.5 116 339.76 62.75"><defs><g/><clipPath id="82f1d1507f"><path d="M 112.042969 116 L 152.542969 116 L 152.542969 143.414062 L 112.042969 143.414062 Z M 112.042969 116 " clip-rule="nonzero"/></clipPath></defs><g clip-path="url(#82f1d1507f)"><path fill="#002d00" d="M 151.824219 116.296875 C 151.359375 116.296875 140.363281 114.886719 136.316406 118.960938 C 132.273438 123.035156 134.34375 129.152344 134.441406 129.40625 C 133.113281 131.308594 132.105469 133.367188 131.425781 135.582031 C 131.117188 134.753906 130.75 133.949219 130.328125 133.171875 C 130.328125 132.917969 131.242188 127.082031 126.957031 123.910156 C 122.671875 120.738281 113.097656 122.261719 112.691406 122.332031 C 112.460938 122.363281 112.308594 122.488281 112.238281 122.710938 C 112.175781 122.925781 112.234375 123.105469 112.410156 123.246094 C 114.890625 125.832031 116.769531 128.796875 118.046875 132.144531 C 118.371094 132.910156 118.84375 133.574219 119.460938 134.136719 C 120.082031 134.695312 120.789062 135.097656 121.585938 135.34375 C 122.265625 135.558594 122.960938 135.660156 123.671875 135.652344 C 125.761719 135.570312 127.695312 134.980469 129.480469 133.890625 C 130.09375 135.078125 130.5625 136.316406 130.890625 137.613281 C 130.433594 140.183594 130.621094 142.707031 131.453125 145.183594 C 131.535156 145.425781 131.703125 145.550781 131.960938 145.550781 L 132.128906 145.550781 C 132.265625 145.503906 132.367188 145.414062 132.429688 145.285156 C 132.492188 145.15625 132.5 145.023438 132.453125 144.886719 C 131.679688 142.527344 131.519531 140.125 131.976562 137.683594 C 132.535156 134.871094 133.660156 132.304688 135.34375 129.984375 C 137.035156 130.617188 138.785156 130.953125 140.589844 131 C 141.976562 131.027344 143.292969 130.734375 144.535156 130.113281 C 145.316406 129.710938 145.976562 129.167969 146.519531 128.476562 C 147.058594 127.789062 147.433594 127.019531 147.636719 126.164062 C 149.316406 119.117188 151.992188 117.328125 152.007812 117.3125 C 152.222656 117.179688 152.300781 116.992188 152.234375 116.75 C 152.207031 116.5 152.070312 116.351562 151.824219 116.296875 Z M 121.894531 134.371094 C 121.257812 134.15625 120.695312 133.820312 120.203125 133.363281 C 119.710938 132.90625 119.335938 132.367188 119.078125 131.75 C 117.828125 128.648438 116.117188 125.828125 113.945312 123.289062 C 116.46875 122.964844 123.222656 122.484375 126.335938 124.769531 C 127.359375 125.621094 128.136719 126.660156 128.671875 127.878906 C 129.203125 129.101562 129.4375 130.375 129.367188 131.707031 C 128.203125 129.988281 126.660156 128.726562 124.742188 127.925781 C 124.605469 127.886719 124.46875 127.898438 124.339844 127.960938 C 124.207031 128.027344 124.117188 128.128906 124.066406 128.265625 C 124.019531 128.40625 124.03125 128.542969 124.097656 128.675781 C 124.164062 128.804688 124.265625 128.894531 124.40625 128.941406 C 126.339844 129.804688 127.847656 131.144531 128.929688 132.960938 C 125.5625 134.847656 123.261719 134.777344 121.894531 134.371094 Z M 146.636719 125.910156 C 146.46875 126.613281 146.160156 127.25 145.710938 127.816406 C 145.261719 128.382812 144.714844 128.828125 144.070312 129.152344 C 142.660156 129.902344 140.125 130.4375 136.023438 129.070312 C 137.800781 126.746094 139.855469 124.695312 142.183594 122.921875 C 142.300781 122.839844 142.371094 122.726562 142.398438 122.582031 C 142.421875 122.441406 142.394531 122.308594 142.308594 122.191406 C 142.226562 122.070312 142.113281 122 141.96875 121.972656 C 141.824219 121.949219 141.695312 121.980469 141.574219 122.0625 C 139.164062 123.867188 137.042969 125.96875 135.21875 128.363281 C 134.796875 126.757812 134.148438 122.613281 137.035156 119.707031 C 139.925781 116.804688 147.636719 117.015625 150.542969 117.242188 C 148.53125 119.8125 147.230469 122.703125 146.636719 125.910156 Z M 140.347656 152.695312 L 123.6875 152.695312 C 123.523438 152.695312 123.386719 152.636719 123.277344 152.515625 C 123.175781 152.386719 123.136719 152.238281 123.164062 152.078125 C 123.253906 151.558594 123.386719 151.050781 123.5625 150.554688 C 123.738281 150.058594 123.960938 149.585938 124.21875 149.128906 C 124.480469 148.671875 124.78125 148.238281 125.117188 147.835938 C 125.453125 147.429688 125.824219 147.058594 126.222656 146.71875 C 126.625 146.378906 127.054688 146.078125 127.511719 145.8125 C 127.964844 145.550781 128.4375 145.328125 128.933594 145.148438 C 129.425781 144.964844 129.933594 144.832031 130.453125 144.738281 C 130.96875 144.648438 131.492188 144.601562 132.019531 144.601562 C 132.542969 144.601562 133.066406 144.648438 133.585938 144.738281 C 134.101562 144.832031 134.609375 144.964844 135.101562 145.148438 C 135.597656 145.328125 136.070312 145.550781 136.527344 145.8125 C 136.980469 146.078125 137.410156 146.378906 137.8125 146.71875 C 138.214844 147.058594 138.582031 147.429688 138.917969 147.835938 C 139.257812 148.238281 139.554688 148.671875 139.816406 149.128906 C 140.078125 149.585938 140.296875 150.058594 140.472656 150.554688 C 140.652344 151.050781 140.78125 151.558594 140.871094 152.078125 C 140.902344 152.242188 140.859375 152.390625 140.746094 152.515625 C 140.625 152.597656 140.492188 152.625 140.351562 152.597656 Z M 124.335938 151.539062 L 139.699219 151.539062 C 139.484375 150.683594 139.136719 149.886719 138.65625 149.148438 C 138.171875 148.410156 137.585938 147.769531 136.890625 147.226562 C 136.191406 146.683594 135.425781 146.269531 134.59375 145.980469 C 133.757812 145.695312 132.898438 145.550781 132.019531 145.550781 C 131.136719 145.550781 130.277344 145.695312 129.441406 145.980469 C 128.609375 146.269531 127.84375 146.683594 127.148438 147.226562 C 126.453125 147.769531 125.863281 148.410156 125.378906 149.148438 C 124.898438 149.886719 124.550781 150.683594 124.335938 151.539062 Z M 124.335938 151.539062 " fill-opacity="1" fill-rule="nonzero"/></g><g fill="#002d00" fill-opacity="1"><g transform="translate(20.81748, 172.166045)"><g><path d="M 0.6875 -0.4375 L 3.125 -1.0625 C 3.414062 -1.1875 3.5625 -1.351562 3.5625 -1.5625 L 3.5625 -35.125 C 3.5625 -35.375 3.414062 -35.539062 3.125 -35.625 L 0.6875 -36.25 L 0.6875 -36.6875 L 13.6875 -36.6875 L 13.6875 -36.25 L 11.25 -35.625 C 10.914062 -35.539062 10.75 -35.375 10.75 -35.125 L 10.75 -1.5625 C 10.75 -1.351562 10.914062 -1.1875 11.25 -1.0625 L 13.6875 -0.4375 L 13.6875 0 L 0.6875 0 Z M 0.6875 -0.4375 "/></g></g></g><g fill="#002d00" fill-opacity="1"><g transform="translate(38.317542, 172.166045)"><g><path d="M 0.375 -18.3125 C 0.375 -21.476562 0.925781 -24.25 2.03125 -26.625 C 3.132812 -29 4.582031 -30.96875 6.375 -32.53125 C 8.164062 -34.09375 10.226562 -35.269531 12.5625 -36.0625 C 14.894531 -36.851562 17.269531 -37.25 19.6875 -37.25 C 22.144531 -37.25 24.53125 -36.851562 26.84375 -36.0625 C 29.15625 -35.269531 31.21875 -34.09375 33.03125 -32.53125 C 34.84375 -30.96875 36.289062 -29 37.375 -26.625 C 38.457031 -24.25 39 -21.476562 39 -18.3125 C 39 -14.6875 38.320312 -11.601562 36.96875 -9.0625 C 35.613281 -6.519531 33.8125 -4.457031 31.5625 -2.875 C 32.0625 -2.5 32.582031 -2.195312 33.125 -1.96875 C 33.664062 -1.738281 34.25 -1.625 34.875 -1.625 C 35.375 -1.625 35.894531 -1.707031 36.4375 -1.875 C 36.976562 -2.039062 37.476562 -2.394531 37.9375 -2.9375 L 38.1875 -2.875 C 37.8125 -1.457031 37.175781 -0.3125 36.28125 0.5625 C 35.382812 1.4375 34.226562 1.875 32.8125 1.875 C 31.601562 1.875 30.5625 1.632812 29.6875 1.15625 C 28.8125 0.675781 28.019531 0.0625 27.3125 -0.6875 C 26.101562 -0.226562 24.863281 0.113281 23.59375 0.34375 C 22.320312 0.570312 21.019531 0.6875 19.6875 0.6875 C 17.269531 0.6875 14.894531 0.289062 12.5625 -0.5 C 10.226562 -1.289062 8.164062 -2.476562 6.375 -4.0625 C 4.582031 -5.644531 3.132812 -7.625 2.03125 -10 C 0.925781 -12.375 0.375 -15.144531 0.375 -18.3125 Z M 12.875 -4.3125 C 12.789062 -6.519531 13.375 -8.289062 14.625 -9.625 C 15.875 -10.957031 17.601562 -11.625 19.8125 -11.625 C 20.851562 -11.625 21.789062 -11.445312 22.625 -11.09375 C 23.457031 -10.738281 24.21875 -10.269531 24.90625 -9.6875 C 25.59375 -9.101562 26.238281 -8.46875 26.84375 -7.78125 C 27.445312 -7.09375 28.039062 -6.394531 28.625 -5.6875 C 29.789062 -7.1875 30.664062 -9.007812 31.25 -11.15625 C 31.832031 -13.300781 32.125 -15.6875 32.125 -18.3125 C 32.125 -20.8125 31.851562 -23.101562 31.3125 -25.1875 C 30.769531 -27.269531 29.976562 -29.0625 28.9375 -30.5625 C 27.894531 -32.0625 26.59375 -33.226562 25.03125 -34.0625 C 23.46875 -34.894531 21.6875 -35.3125 19.6875 -35.3125 C 17.6875 -35.3125 15.914062 -34.894531 14.375 -34.0625 C 12.832031 -33.226562 11.53125 -32.0625 10.46875 -30.5625 C 9.40625 -29.0625 8.601562 -27.269531 8.0625 -25.1875 C 7.519531 -23.101562 7.25 -20.8125 7.25 -18.3125 C 7.25 -15.8125 7.519531 -13.507812 8.0625 -11.40625 C 8.601562 -9.300781 9.40625 -7.5 10.46875 -6 C 11.53125 -4.5 12.832031 -3.332031 14.375 -2.5 C 15.914062 -1.664062 17.6875 -1.25 19.6875 -1.25 C 21.894531 -1.25 23.851562 -1.769531 25.5625 -2.8125 C 25.0625 -3.5625 24.5625 -4.300781 24.0625 -5.03125 C 23.5625 -5.757812 23.039062 -6.425781 22.5 -7.03125 C 21.957031 -7.632812 21.375 -8.125 20.75 -8.5 C 20.125 -8.875 19.394531 -9.0625 18.5625 -9.0625 C 16.851562 -9.0625 15.613281 -8.613281 14.84375 -7.71875 C 14.070312 -6.820312 13.601562 -5.6875 13.4375 -4.3125 Z M 12.875 -4.3125 "/></g></g></g><g fill="#002d00" fill-opacity="1"><g transform="translate(80.81704, 172.166045)"><g><path d="M 0.6875 -0.4375 L 3.125 -1.0625 C 3.457031 -1.1875 3.625 -1.351562 3.625 -1.5625 L 3.625 -35.125 C 3.625 -35.332031 3.457031 -35.5 3.125 -35.625 L 0.6875 -36.1875 L 0.6875 -36.6875 L 13.375 -36.6875 C 15.707031 -36.6875 18.019531 -36.5 20.3125 -36.125 C 22.601562 -35.75 24.65625 -35.070312 26.46875 -34.09375 C 28.28125 -33.113281 29.75 -31.769531 30.875 -30.0625 C 32 -28.351562 32.5625 -26.1875 32.5625 -23.5625 C 32.5625 -21.519531 32.125 -19.675781 31.25 -18.03125 C 30.375 -16.382812 29.25 -14.988281 27.875 -13.84375 C 26.5 -12.695312 24.976562 -11.8125 23.3125 -11.1875 C 21.644531 -10.5625 20.019531 -10.207031 18.4375 -10.125 C 19.476562 -8.875 20.71875 -7.445312 22.15625 -5.84375 C 23.59375 -4.238281 25.164062 -2.738281 26.875 -1.34375 C 28.582031 0.0507812 30.382812 1.238281 32.28125 2.21875 C 34.175781 3.195312 36.125 3.6875 38.125 3.6875 C 39.25 3.6875 40.375 3.5 41.5 3.125 L 41.75 3.625 C 40.414062 4.582031 39.101562 5.269531 37.8125 5.6875 C 36.519531 6.101562 35.226562 6.3125 33.9375 6.3125 C 31.769531 6.3125 29.644531 5.78125 27.5625 4.71875 C 25.476562 3.65625 23.488281 2.300781 21.59375 0.65625 C 19.695312 -0.988281 17.894531 -2.800781 16.1875 -4.78125 C 14.476562 -6.757812 12.894531 -8.664062 11.4375 -10.5 L 12.4375 -12 C 13.9375 -11.832031 15.46875 -11.90625 17.03125 -12.21875 C 18.59375 -12.53125 20.019531 -13.144531 21.3125 -14.0625 C 22.601562 -14.976562 23.664062 -16.195312 24.5 -17.71875 C 25.332031 -19.238281 25.75 -21.125 25.75 -23.375 C 25.75 -25.457031 25.425781 -27.226562 24.78125 -28.6875 C 24.132812 -30.144531 23.25 -31.34375 22.125 -32.28125 C 21 -33.21875 19.6875 -33.894531 18.1875 -34.3125 C 16.6875 -34.726562 15.082031 -34.9375 13.375 -34.9375 L 11.5625 -34.9375 C 11.0625 -34.9375 10.8125 -34.6875 10.8125 -34.1875 L 10.8125 -1.5625 C 10.8125 -1.269531 10.957031 -1.101562 11.25 -1.0625 L 13.6875 -0.4375 L 13.6875 0 L 0.6875 0 Z M 0.6875 -0.4375 "/></g></g></g><g fill="#002d00" fill-opacity="1"><g transform="translate(116.941684, 172.166045)"><g><path d="M 8.875 -14.0625 L 14.875 -14.0625 L 11.6875 -25.4375 Z M 8.5625 0 L 0.0625 0 L 0.0625 -0.4375 L 2.4375 -1 C 2.726562 -1.082031 2.894531 -1.226562 2.9375 -1.4375 L 11.9375 -36.6875 L 16.5 -36.6875 L 26.375 -1.4375 C 26.414062 -1.226562 26.582031 -1.082031 26.875 -1 L 29.25 -0.4375 L 29.25 0 L 15.8125 0 L 15.8125 -0.4375 L 18.125 -0.9375 C 18.414062 -1.019531 18.519531 -1.1875 18.4375 -1.4375 L 15.25 -12.6875 L 8.5625 -12.6875 L 5.75 -1.5625 C 5.664062 -1.269531 5.8125 -1.082031 6.1875 -1 L 8.5625 -0.4375 Z M 8.5625 0 "/></g></g></g><g fill="#2d452b" fill-opacity="1"><g transform="translate(152.614331, 178.455569)"><g><path d="M 2.65625 -21.5625 C 2.65625 -21.957031 2.722656 -22.296875 2.859375 -22.578125 C 2.992188 -22.859375 3.175781 -23.085938 3.40625 -23.265625 C 3.644531 -23.441406 3.921875 -23.570312 4.234375 -23.65625 C 4.554688 -23.738281 4.90625 -23.78125 5.28125 -23.78125 C 5.632812 -23.78125 5.96875 -23.738281 6.28125 -23.65625 C 6.601562 -23.570312 6.882812 -23.441406 7.125 -23.265625 C 7.375 -23.085938 7.570312 -22.859375 7.71875 -22.578125 C 7.863281 -22.296875 7.9375 -21.957031 7.9375 -21.5625 C 7.9375 -21.1875 7.863281 -20.859375 7.71875 -20.578125 C 7.570312 -20.296875 7.375 -20.0625 7.125 -19.875 C 6.882812 -19.695312 6.601562 -19.5625 6.28125 -19.46875 C 5.96875 -19.382812 5.632812 -19.34375 5.28125 -19.34375 C 4.90625 -19.34375 4.554688 -19.382812 4.234375 -19.46875 C 3.921875 -19.5625 3.644531 -19.695312 3.40625 -19.875 C 3.175781 -20.0625 2.992188 -20.296875 2.859375 -20.578125 C 2.722656 -20.859375 2.65625 -21.1875 2.65625 -21.5625 Z M 0.890625 -1.640625 C 1.117188 -1.640625 1.359375 -1.660156 1.609375 -1.703125 C 1.867188 -1.753906 2.109375 -1.847656 2.328125 -1.984375 C 2.546875 -2.128906 2.726562 -2.332031 2.875 -2.59375 C 3.019531 -2.851562 3.09375 -3.207031 3.09375 -3.65625 L 3.09375 -13.03125 C 3.09375 -13.445312 3.019531 -13.773438 2.875 -14.015625 C 2.726562 -14.265625 2.539062 -14.457031 2.3125 -14.59375 C 2.09375 -14.726562 1.851562 -14.816406 1.59375 -14.859375 C 1.34375 -14.898438 1.109375 -14.921875 0.890625 -14.921875 L 0.53125 -14.921875 L 0.53125 -16.5625 L 7.78125 -16.5625 L 7.78125 -3.65625 C 7.78125 -3.207031 7.851562 -2.851562 8 -2.59375 C 8.144531 -2.332031 8.328125 -2.128906 8.546875 -1.984375 C 8.765625 -1.847656 9.003906 -1.753906 9.265625 -1.703125 C 9.523438 -1.660156 9.765625 -1.640625 9.984375 -1.640625 L 10.34375 -1.640625 L 10.34375 0 L 0.53125 0 L 0.53125 -1.640625 Z M 0.890625 -1.640625 "/></g></g></g><g fill="#2d452b" fill-opacity="1"><g transform="translate(163.48981, 178.455569)"><g><path d="M 12.9375 0 L 12.9375 -10.171875 C 12.9375 -10.828125 12.894531 -11.414062 12.8125 -11.9375 C 12.726562 -12.457031 12.585938 -12.890625 12.390625 -13.234375 C 12.191406 -13.585938 11.929688 -13.859375 11.609375 -14.046875 C 11.296875 -14.234375 10.914062 -14.328125 10.46875 -14.328125 C 9.957031 -14.328125 9.53125 -14.195312 9.1875 -13.9375 C 8.84375 -13.675781 8.566406 -13.328125 8.359375 -12.890625 C 8.148438 -12.453125 8 -11.941406 7.90625 -11.359375 C 7.820312 -10.785156 7.78125 -10.179688 7.78125 -9.546875 L 7.78125 -3.65625 C 7.78125 -3.21875 7.832031 -2.867188 7.9375 -2.609375 C 8.039062 -2.347656 8.1875 -2.144531 8.375 -2 C 8.570312 -1.851562 8.804688 -1.753906 9.078125 -1.703125 C 9.359375 -1.660156 9.671875 -1.640625 10.015625 -1.640625 L 10.109375 -1.640625 L 10.109375 0 L 0.625 0 L 0.625 -1.640625 L 0.671875 -1.640625 C 1.023438 -1.640625 1.347656 -1.660156 1.640625 -1.703125 C 1.929688 -1.753906 2.1875 -1.851562 2.40625 -2 C 2.625 -2.15625 2.789062 -2.375 2.90625 -2.65625 C 3.03125 -2.9375 3.09375 -3.304688 3.09375 -3.765625 L 3.09375 -12.90625 C 3.09375 -13.34375 3.039062 -13.691406 2.9375 -13.953125 C 2.832031 -14.210938 2.679688 -14.414062 2.484375 -14.5625 C 2.285156 -14.707031 2.050781 -14.800781 1.78125 -14.84375 C 1.507812 -14.894531 1.203125 -14.921875 0.859375 -14.921875 L 0.765625 -14.921875 L 0.765625 -16.5625 L 7.25 -16.5625 L 7.65625 -14.359375 L 7.8125 -14.359375 C 8.125 -14.941406 8.453125 -15.40625 8.796875 -15.75 C 9.148438 -16.09375 9.519531 -16.351562 9.90625 -16.53125 C 10.300781 -16.707031 10.71875 -16.820312 11.15625 -16.875 C 11.59375 -16.925781 12.050781 -16.953125 12.53125 -16.953125 C 13.320312 -16.953125 14.035156 -16.835938 14.671875 -16.609375 C 15.304688 -16.378906 15.84375 -16.019531 16.28125 -15.53125 C 16.71875 -15.050781 17.050781 -14.4375 17.28125 -13.6875 C 17.507812 -12.9375 17.625 -12.039062 17.625 -11 L 17.625 -3.828125 C 17.625 -3.347656 17.664062 -2.960938 17.75 -2.671875 C 17.84375 -2.390625 17.972656 -2.171875 18.140625 -2.015625 C 18.316406 -1.867188 18.535156 -1.769531 18.796875 -1.71875 C 19.054688 -1.664062 19.363281 -1.640625 19.71875 -1.640625 L 19.796875 -1.640625 L 19.796875 0 Z M 12.9375 0 "/></g></g></g><g fill="#2d452b" fill-opacity="1"><g transform="translate(184.094391, 178.455569)"><g><path d="M 9.703125 -2.1875 C 10.097656 -2.1875 10.476562 -2.210938 10.84375 -2.265625 C 11.21875 -2.328125 11.566406 -2.394531 11.890625 -2.46875 L 11.890625 -0.46875 C 11.722656 -0.382812 11.5 -0.296875 11.21875 -0.203125 C 10.945312 -0.117188 10.628906 -0.0390625 10.265625 0.03125 C 9.898438 0.113281 9.484375 0.175781 9.015625 0.21875 C 8.554688 0.269531 8.054688 0.296875 7.515625 0.296875 C 6.816406 0.296875 6.1875 0.210938 5.625 0.046875 C 5.0625 -0.117188 4.582031 -0.394531 4.1875 -0.78125 C 3.800781 -1.164062 3.5 -1.664062 3.28125 -2.28125 C 3.070312 -2.90625 2.96875 -3.664062 2.96875 -4.5625 L 2.96875 -14.453125 L 0.65625 -14.453125 L 0.65625 -16.03125 C 1.3125 -16.03125 1.898438 -16.160156 2.421875 -16.421875 C 2.953125 -16.679688 3.375 -16.984375 3.6875 -17.328125 C 4.3125 -17.992188 4.78125 -19.015625 5.09375 -20.390625 L 7.65625 -20.390625 L 7.65625 -16.5625 L 11.609375 -16.5625 L 11.609375 -14.453125 L 7.65625 -14.453125 L 7.65625 -4.890625 C 7.65625 -3.953125 7.8125 -3.265625 8.125 -2.828125 C 8.445312 -2.398438 8.972656 -2.1875 9.703125 -2.1875 Z M 9.703125 -2.1875 "/></g></g></g><g fill="#2d452b" fill-opacity="1"><g transform="translate(196.598929, 178.455569)"><g><path d="M 9.171875 -14.953125 C 8.304688 -14.953125 7.617188 -14.523438 7.109375 -13.671875 C 6.597656 -12.816406 6.320312 -11.5625 6.28125 -9.90625 L 11.609375 -9.90625 C 11.609375 -10.695312 11.5625 -11.398438 11.46875 -12.015625 C 11.382812 -12.640625 11.242188 -13.164062 11.046875 -13.59375 C 10.847656 -14.03125 10.59375 -14.363281 10.28125 -14.59375 C 9.976562 -14.832031 9.609375 -14.953125 9.171875 -14.953125 Z M 9.453125 0.296875 C 8.148438 0.296875 7 0.109375 6 -0.265625 C 5 -0.648438 4.160156 -1.203125 3.484375 -1.921875 C 2.804688 -2.648438 2.296875 -3.539062 1.953125 -4.59375 C 1.617188 -5.644531 1.453125 -6.84375 1.453125 -8.1875 C 1.453125 -9.632812 1.617188 -10.90625 1.953125 -12 C 2.296875 -13.101562 2.796875 -14.019531 3.453125 -14.75 C 4.109375 -15.488281 4.910156 -16.039062 5.859375 -16.40625 C 6.804688 -16.769531 7.890625 -16.953125 9.109375 -16.953125 C 10.222656 -16.953125 11.226562 -16.789062 12.125 -16.46875 C 13.019531 -16.15625 13.78125 -15.6875 14.40625 -15.0625 C 15.03125 -14.445312 15.503906 -13.675781 15.828125 -12.75 C 16.160156 -11.820312 16.328125 -10.742188 16.328125 -9.515625 L 16.328125 -7.9375 L 6.21875 -7.9375 C 6.25 -6.894531 6.359375 -6 6.546875 -5.25 C 6.742188 -4.507812 7.015625 -3.898438 7.359375 -3.421875 C 7.710938 -2.941406 8.132812 -2.582031 8.625 -2.34375 C 9.125 -2.113281 9.695312 -2 10.34375 -2 C 10.875 -2 11.363281 -2.0625 11.8125 -2.1875 C 12.269531 -2.320312 12.679688 -2.5 13.046875 -2.71875 C 13.421875 -2.945312 13.742188 -3.210938 14.015625 -3.515625 C 14.296875 -3.828125 14.523438 -4.160156 14.703125 -4.515625 C 15.253906 -4.210938 15.53125 -3.707031 15.53125 -3 C 15.53125 -2.5625 15.410156 -2.140625 15.171875 -1.734375 C 14.929688 -1.335938 14.554688 -0.988281 14.046875 -0.6875 C 13.546875 -0.382812 12.914062 -0.144531 12.15625 0.03125 C 11.40625 0.207031 10.503906 0.296875 9.453125 0.296875 Z M 9.453125 0.296875 "/></g></g></g><g fill="#2d452b" fill-opacity="1"><g transform="translate(214.231986, 178.455569)"><g><path d="M 10.9375 0 L 0.625 0 L 0.625 -1.640625 L 0.703125 -1.640625 C 1.054688 -1.640625 1.378906 -1.664062 1.671875 -1.71875 C 1.960938 -1.769531 2.210938 -1.875 2.421875 -2.03125 C 2.640625 -2.1875 2.804688 -2.410156 2.921875 -2.703125 C 3.035156 -2.992188 3.09375 -3.378906 3.09375 -3.859375 L 3.09375 -12.828125 C 3.09375 -13.273438 3.039062 -13.632812 2.9375 -13.90625 C 2.832031 -14.1875 2.679688 -14.398438 2.484375 -14.546875 C 2.285156 -14.703125 2.050781 -14.800781 1.78125 -14.84375 C 1.507812 -14.894531 1.203125 -14.921875 0.859375 -14.921875 L 0.765625 -14.921875 L 0.765625 -16.5625 L 7.015625 -16.5625 L 7.625 -14.140625 L 7.78125 -14.140625 C 7.976562 -14.609375 8.195312 -15.015625 8.4375 -15.359375 C 8.6875 -15.703125 8.976562 -15.988281 9.3125 -16.21875 C 9.644531 -16.457031 10.039062 -16.632812 10.5 -16.75 C 10.957031 -16.863281 11.503906 -16.921875 12.140625 -16.921875 C 13.359375 -16.921875 14.253906 -16.707031 14.828125 -16.28125 C 15.398438 -15.851562 15.6875 -15.234375 15.6875 -14.421875 C 15.6875 -13.472656 15.34375 -12.738281 14.65625 -12.21875 C 13.976562 -11.695312 13.015625 -11.4375 11.765625 -11.4375 C 11.765625 -11.851562 11.738281 -12.222656 11.6875 -12.546875 C 11.644531 -12.867188 11.566406 -13.132812 11.453125 -13.34375 C 11.335938 -13.5625 11.179688 -13.722656 10.984375 -13.828125 C 10.785156 -13.941406 10.539062 -14 10.25 -14 C 9.894531 -14 9.582031 -13.90625 9.3125 -13.71875 C 9.050781 -13.539062 8.832031 -13.304688 8.65625 -13.015625 C 8.476562 -12.734375 8.332031 -12.410156 8.21875 -12.046875 C 8.101562 -11.691406 8.007812 -11.328125 7.9375 -10.953125 C 7.875 -10.585938 7.832031 -10.238281 7.8125 -9.90625 C 7.789062 -9.570312 7.78125 -9.285156 7.78125 -9.046875 L 7.78125 -3.703125 C 7.78125 -3.253906 7.832031 -2.890625 7.9375 -2.609375 C 8.050781 -2.335938 8.203125 -2.128906 8.390625 -1.984375 C 8.585938 -1.847656 8.816406 -1.753906 9.078125 -1.703125 C 9.347656 -1.660156 9.632812 -1.640625 9.9375 -1.640625 L 10.9375 -1.640625 Z M 10.9375 0 "/></g></g></g><g fill="#2d452b" fill-opacity="1"><g transform="translate(230.386822, 178.455569)"><g><path d="M 12.9375 0 L 12.9375 -10.171875 C 12.9375 -10.828125 12.894531 -11.414062 12.8125 -11.9375 C 12.726562 -12.457031 12.585938 -12.890625 12.390625 -13.234375 C 12.191406 -13.585938 11.929688 -13.859375 11.609375 -14.046875 C 11.296875 -14.234375 10.914062 -14.328125 10.46875 -14.328125 C 9.957031 -14.328125 9.53125 -14.195312 9.1875 -13.9375 C 8.84375 -13.675781 8.566406 -13.328125 8.359375 -12.890625 C 8.148438 -12.453125 8 -11.941406 7.90625 -11.359375 C 7.820312 -10.785156 7.78125 -10.179688 7.78125 -9.546875 L 7.78125 -3.65625 C 7.78125 -3.21875 7.832031 -2.867188 7.9375 -2.609375 C 8.039062 -2.347656 8.1875 -2.144531 8.375 -2 C 8.570312 -1.851562 8.804688 -1.753906 9.078125 -1.703125 C 9.359375 -1.660156 9.671875 -1.640625 10.015625 -1.640625 L 10.109375 -1.640625 L 10.109375 0 L 0.625 0 L 0.625 -1.640625 L 0.671875 -1.640625 C 1.023438 -1.640625 1.347656 -1.660156 1.640625 -1.703125 C 1.929688 -1.753906 2.1875 -1.851562 2.40625 -2 C 2.625 -2.15625 2.789062 -2.375 2.90625 -2.65625 C 3.03125 -2.9375 3.09375 -3.304688 3.09375 -3.765625 L 3.09375 -12.90625 C 3.09375 -13.34375 3.039062 -13.691406 2.9375 -13.953125 C 2.832031 -14.210938 2.679688 -14.414062 2.484375 -14.5625 C 2.285156 -14.707031 2.050781 -14.800781 1.78125 -14.84375 C 1.507812 -14.894531 1.203125 -14.921875 0.859375 -14.921875 L 0.765625 -14.921875 L 0.765625 -16.5625 L 7.25 -16.5625 L 7.65625 -14.359375 L 7.8125 -14.359375 C 8.125 -14.941406 8.453125 -15.40625 8.796875 -15.75 C 9.148438 -16.09375 9.519531 -16.351562 9.90625 -16.53125 C 10.300781 -16.707031 10.71875 -16.820312 11.15625 -16.875 C 11.59375 -16.925781 12.050781 -16.953125 12.53125 -16.953125 C 13.320312 -16.953125 14.035156 -16.835938 14.671875 -16.609375 C 15.304688 -16.378906 15.84375 -16.019531 16.28125 -15.53125 C 16.71875 -15.050781 17.050781 -14.4375 17.28125 -13.6875 C 17.507812 -12.9375 17.625 -12.039062 17.625 -11 L 17.625 -3.828125 C 17.625 -3.347656 17.664062 -2.960938 17.75 -2.671875 C 17.84375 -2.390625 17.972656 -2.171875 18.140625 -2.015625 C 18.316406 -1.867188 18.535156 -1.769531 18.796875 -1.71875 C 19.054688 -1.664062 19.363281 -1.640625 19.71875 -1.640625 L 19.796875 -1.640625 L 19.796875 0 Z M 12.9375 0 "/></g></g></g><g fill="#2d452b" fill-opacity="1"><g transform="translate(250.991404, 178.455569)"><g><path d="M 6.1875 -4.59375 C 6.1875 -3.707031 6.328125 -3.046875 6.609375 -2.609375 C 6.890625 -2.171875 7.332031 -1.953125 7.9375 -1.953125 C 8.375 -1.953125 8.769531 -2.039062 9.125 -2.21875 C 9.488281 -2.40625 9.796875 -2.671875 10.046875 -3.015625 C 10.304688 -3.359375 10.503906 -3.773438 10.640625 -4.265625 C 10.773438 -4.753906 10.84375 -5.296875 10.84375 -5.890625 L 10.84375 -8.21875 L 9.453125 -8.125 C 8.835938 -8.09375 8.316406 -7.992188 7.890625 -7.828125 C 7.472656 -7.671875 7.140625 -7.445312 6.890625 -7.15625 C 6.640625 -6.863281 6.457031 -6.503906 6.34375 -6.078125 C 6.238281 -5.648438 6.1875 -5.15625 6.1875 -4.59375 Z M 8.921875 -15.0625 C 8.535156 -15.0625 8.207031 -14.976562 7.9375 -14.8125 C 7.675781 -14.65625 7.460938 -14.425781 7.296875 -14.125 C 7.140625 -13.832031 7.023438 -13.476562 6.953125 -13.0625 C 6.890625 -12.65625 6.859375 -12.210938 6.859375 -11.734375 C 5.472656 -11.734375 4.429688 -11.890625 3.734375 -12.203125 C 3.035156 -12.515625 2.6875 -13.046875 2.6875 -13.796875 C 2.6875 -14.359375 2.851562 -14.84375 3.1875 -15.25 C 3.53125 -15.65625 3.988281 -15.984375 4.5625 -16.234375 C 5.144531 -16.484375 5.816406 -16.664062 6.578125 -16.78125 C 7.347656 -16.894531 8.171875 -16.953125 9.046875 -16.953125 C 10.128906 -16.953125 11.078125 -16.859375 11.890625 -16.671875 C 12.703125 -16.484375 13.375 -16.179688 13.90625 -15.765625 C 14.445312 -15.359375 14.851562 -14.820312 15.125 -14.15625 C 15.394531 -13.488281 15.53125 -12.671875 15.53125 -11.703125 L 15.53125 -3.828125 C 15.53125 -3.410156 15.5625 -3.0625 15.625 -2.78125 C 15.695312 -2.5 15.800781 -2.273438 15.9375 -2.109375 C 16.082031 -1.941406 16.273438 -1.820312 16.515625 -1.75 C 16.753906 -1.675781 17.046875 -1.640625 17.390625 -1.640625 L 17.515625 -1.640625 L 17.515625 0 L 11.765625 0 L 11.109375 -2.125 L 10.84375 -2.125 C 10.5 -1.71875 10.175781 -1.359375 9.875 -1.046875 C 9.570312 -0.742188 9.25 -0.488281 8.90625 -0.28125 C 8.570312 -0.0820312 8.191406 0.0625 7.765625 0.15625 C 7.335938 0.25 6.832031 0.296875 6.25 0.296875 C 5.5625 0.296875 4.921875 0.195312 4.328125 0 C 3.742188 -0.195312 3.234375 -0.503906 2.796875 -0.921875 C 2.359375 -1.335938 2.015625 -1.859375 1.765625 -2.484375 C 1.515625 -3.117188 1.390625 -3.863281 1.390625 -4.71875 C 1.390625 -6.394531 1.960938 -7.632812 3.109375 -8.4375 C 4.265625 -9.25 6 -9.691406 8.3125 -9.765625 L 10.84375 -9.84375 L 10.84375 -11.546875 C 10.84375 -12.066406 10.820312 -12.539062 10.78125 -12.96875 C 10.738281 -13.40625 10.648438 -13.78125 10.515625 -14.09375 C 10.390625 -14.40625 10.195312 -14.644531 9.9375 -14.8125 C 9.6875 -14.976562 9.347656 -15.0625 8.921875 -15.0625 Z M 8.921875 -15.0625 "/></g></g></g><g fill="#2d452b" fill-opacity="1"><g transform="translate(269.499326, 178.455569)"><g><path d="M 9.703125 -2.1875 C 10.097656 -2.1875 10.476562 -2.210938 10.84375 -2.265625 C 11.21875 -2.328125 11.566406 -2.394531 11.890625 -2.46875 L 11.890625 -0.46875 C 11.722656 -0.382812 11.5 -0.296875 11.21875 -0.203125 C 10.945312 -0.117188 10.628906 -0.0390625 10.265625 0.03125 C 9.898438 0.113281 9.484375 0.175781 9.015625 0.21875 C 8.554688 0.269531 8.054688 0.296875 7.515625 0.296875 C 6.816406 0.296875 6.1875 0.210938 5.625 0.046875 C 5.0625 -0.117188 4.582031 -0.394531 4.1875 -0.78125 C 3.800781 -1.164062 3.5 -1.664062 3.28125 -2.28125 C 3.070312 -2.90625 2.96875 -3.664062 2.96875 -4.5625 L 2.96875 -14.453125 L 0.65625 -14.453125 L 0.65625 -16.03125 C 1.3125 -16.03125 1.898438 -16.160156 2.421875 -16.421875 C 2.953125 -16.679688 3.375 -16.984375 3.6875 -17.328125 C 4.3125 -17.992188 4.78125 -19.015625 5.09375 -20.390625 L 7.65625 -20.390625 L 7.65625 -16.5625 L 11.609375 -16.5625 L 11.609375 -14.453125 L 7.65625 -14.453125 L 7.65625 -4.890625 C 7.65625 -3.953125 7.8125 -3.265625 8.125 -2.828125 C 8.445312 -2.398438 8.972656 -2.1875 9.703125 -2.1875 Z M 9.703125 -2.1875 "/></g></g></g><g fill="#2d452b" fill-opacity="1"><g transform="translate(282.003863, 178.455569)"><g><path d="M 2.65625 -21.5625 C 2.65625 -21.957031 2.722656 -22.296875 2.859375 -22.578125 C 2.992188 -22.859375 3.175781 -23.085938 3.40625 -23.265625 C 3.644531 -23.441406 3.921875 -23.570312 4.234375 -23.65625 C 4.554688 -23.738281 4.90625 -23.78125 5.28125 -23.78125 C 5.632812 -23.78125 5.96875 -23.738281 6.28125 -23.65625 C 6.601562 -23.570312 6.882812 -23.441406 7.125 -23.265625 C 7.375 -23.085938 7.570312 -22.859375 7.71875 -22.578125 C 7.863281 -22.296875 7.9375 -21.957031 7.9375 -21.5625 C 7.9375 -21.1875 7.863281 -20.859375 7.71875 -20.578125 C 7.570312 -20.296875 7.375 -20.0625 7.125 -19.875 C 6.882812 -19.695312 6.601562 -19.5625 6.28125 -19.46875 C 5.96875 -19.382812 5.632812 -19.34375 5.28125 -19.34375 C 4.90625 -19.34375 4.554688 -19.382812 4.234375 -19.46875 C 3.921875 -19.5625 3.644531 -19.695312 3.40625 -19.875 C 3.175781 -20.0625 2.992188 -20.296875 2.859375 -20.578125 C 2.722656 -20.859375 2.65625 -21.1875 2.65625 -21.5625 Z M 0.890625 -1.640625 C 1.117188 -1.640625 1.359375 -1.660156 1.609375 -1.703125 C 1.867188 -1.753906 2.109375 -1.847656 2.328125 -1.984375 C 2.546875 -2.128906 2.726562 -2.332031 2.875 -2.59375 C 3.019531 -2.851562 3.09375 -3.207031 3.09375 -3.65625 L 3.09375 -13.03125 C 3.09375 -13.445312 3.019531 -13.773438 2.875 -14.015625 C 2.726562 -14.265625 2.539062 -14.457031 2.3125 -14.59375 C 2.09375 -14.726562 1.851562 -14.816406 1.59375 -14.859375 C 1.34375 -14.898438 1.109375 -14.921875 0.890625 -14.921875 L 0.53125 -14.921875 L 0.53125 -16.5625 L 7.78125 -16.5625 L 7.78125 -3.65625 C 7.78125 -3.207031 7.851562 -2.851562 8 -2.59375 C 8.144531 -2.332031 8.328125 -2.128906 8.546875 -1.984375 C 8.765625 -1.847656 9.003906 -1.753906 9.265625 -1.703125 C 9.523438 -1.660156 9.765625 -1.640625 9.984375 -1.640625 L 10.34375 -1.640625 L 10.34375 0 L 0.53125 0 L 0.53125 -1.640625 Z M 0.890625 -1.640625 "/></g></g></g><g fill="#2d452b" fill-opacity="1"><g transform="translate(292.879342, 178.455569)"><g><path d="M 17.484375 -8.34375 C 17.484375 -5.4375 16.800781 -3.269531 15.4375 -1.84375 C 14.070312 -0.414062 12.066406 0.296875 9.421875 0.296875 C 8.191406 0.296875 7.082031 0.117188 6.09375 -0.234375 C 5.101562 -0.585938 4.265625 -1.117188 3.578125 -1.828125 C 2.890625 -2.546875 2.363281 -3.445312 2 -4.53125 C 1.632812 -5.625 1.453125 -6.894531 1.453125 -8.34375 C 1.453125 -11.25 2.128906 -13.410156 3.484375 -14.828125 C 4.847656 -16.242188 6.859375 -16.953125 9.515625 -16.953125 C 10.753906 -16.953125 11.863281 -16.773438 12.84375 -16.421875 C 13.820312 -16.066406 14.65625 -15.53125 15.34375 -14.8125 C 16.03125 -14.101562 16.554688 -13.207031 16.921875 -12.125 C 17.296875 -11.050781 17.484375 -9.789062 17.484375 -8.34375 Z M 6.25 -8.34375 C 6.25 -7.25 6.304688 -6.28125 6.421875 -5.4375 C 6.535156 -4.601562 6.71875 -3.90625 6.96875 -3.34375 C 7.226562 -2.78125 7.5625 -2.351562 7.96875 -2.0625 C 8.382812 -1.78125 8.890625 -1.640625 9.484375 -1.640625 C 10.078125 -1.640625 10.578125 -1.78125 10.984375 -2.0625 C 11.390625 -2.351562 11.722656 -2.78125 11.984375 -3.34375 C 12.242188 -3.90625 12.425781 -4.601562 12.53125 -5.4375 C 12.644531 -6.28125 12.703125 -7.25 12.703125 -8.34375 C 12.703125 -9.445312 12.644531 -10.410156 12.53125 -11.234375 C 12.414062 -12.066406 12.226562 -12.757812 11.96875 -13.3125 C 11.707031 -13.863281 11.367188 -14.28125 10.953125 -14.5625 C 10.546875 -14.84375 10.046875 -14.984375 9.453125 -14.984375 C 8.859375 -14.984375 8.351562 -14.84375 7.9375 -14.5625 C 7.53125 -14.28125 7.203125 -13.863281 6.953125 -13.3125 C 6.703125 -12.757812 6.519531 -12.066406 6.40625 -11.234375 C 6.300781 -10.410156 6.25 -9.445312 6.25 -8.34375 Z M 6.25 -8.34375 "/></g></g></g><g fill="#2d452b" fill-opacity="1"><g transform="translate(311.809612, 178.455569)"><g><path d="M 12.9375 0 L 12.9375 -10.171875 C 12.9375 -10.828125 12.894531 -11.414062 12.8125 -11.9375 C 12.726562 -12.457031 12.585938 -12.890625 12.390625 -13.234375 C 12.191406 -13.585938 11.929688 -13.859375 11.609375 -14.046875 C 11.296875 -14.234375 10.914062 -14.328125 10.46875 -14.328125 C 9.957031 -14.328125 9.53125 -14.195312 9.1875 -13.9375 C 8.84375 -13.675781 8.566406 -13.328125 8.359375 -12.890625 C 8.148438 -12.453125 8 -11.941406 7.90625 -11.359375 C 7.820312 -10.785156 7.78125 -10.179688 7.78125 -9.546875 L 7.78125 -3.65625 C 7.78125 -3.21875 7.832031 -2.867188 7.9375 -2.609375 C 8.039062 -2.347656 8.1875 -2.144531 8.375 -2 C 8.570312 -1.851562 8.804688 -1.753906 9.078125 -1.703125 C 9.359375 -1.660156 9.671875 -1.640625 10.015625 -1.640625 L 10.109375 -1.640625 L 10.109375 0 L 0.625 0 L 0.625 -1.640625 L 0.671875 -1.640625 C 1.023438 -1.640625 1.347656 -1.660156 1.640625 -1.703125 C 1.929688 -1.753906 2.1875 -1.851562 2.40625 -2 C 2.625 -2.15625 2.789062 -2.375 2.90625 -2.65625 C 3.03125 -2.9375 3.09375 -3.304688 3.09375 -3.765625 L 3.09375 -12.90625 C 3.09375 -13.34375 3.039062 -13.691406 2.9375 -13.953125 C 2.832031 -14.210938 2.679688 -14.414062 2.484375 -14.5625 C 2.285156 -14.707031 2.050781 -14.800781 1.78125 -14.84375 C 1.507812 -14.894531 1.203125 -14.921875 0.859375 -14.921875 L 0.765625 -14.921875 L 0.765625 -16.5625 L 7.25 -16.5625 L 7.65625 -14.359375 L 7.8125 -14.359375 C 8.125 -14.941406 8.453125 -15.40625 8.796875 -15.75 C 9.148438 -16.09375 9.519531 -16.351562 9.90625 -16.53125 C 10.300781 -16.707031 10.71875 -16.820312 11.15625 -16.875 C 11.59375 -16.925781 12.050781 -16.953125 12.53125 -16.953125 C 13.320312 -16.953125 14.035156 -16.835938 14.671875 -16.609375 C 15.304688 -16.378906 15.84375 -16.019531 16.28125 -15.53125 C 16.71875 -15.050781 17.050781 -14.4375 17.28125 -13.6875 C 17.507812 -12.9375 17.625 -12.039062 17.625 -11 L 17.625 -3.828125 C 17.625 -3.347656 17.664062 -2.960938 17.75 -2.671875 C 17.84375 -2.390625 17.972656 -2.171875 18.140625 -2.015625 C 18.316406 -1.867188 18.535156 -1.769531 18.796875 -1.71875 C 19.054688 -1.664062 19.363281 -1.640625 19.71875 -1.640625 L 19.796875 -1.640625 L 19.796875 0 Z M 12.9375 0 "/></g></g></g><g fill="#2d452b" fill-opacity="1"><g transform="translate(332.414194, 178.455569)"><g><path d="M 6.1875 -4.59375 C 6.1875 -3.707031 6.328125 -3.046875 6.609375 -2.609375 C 6.890625 -2.171875 7.332031 -1.953125 7.9375 -1.953125 C 8.375 -1.953125 8.769531 -2.039062 9.125 -2.21875 C 9.488281 -2.40625 9.796875 -2.671875 10.046875 -3.015625 C 10.304688 -3.359375 10.503906 -3.773438 10.640625 -4.265625 C 10.773438 -4.753906 10.84375 -5.296875 10.84375 -5.890625 L 10.84375 -8.21875 L 9.453125 -8.125 C 8.835938 -8.09375 8.316406 -7.992188 7.890625 -7.828125 C 7.472656 -7.671875 7.140625 -7.445312 6.890625 -7.15625 C 6.640625 -6.863281 6.457031 -6.503906 6.34375 -6.078125 C 6.238281 -5.648438 6.1875 -5.15625 6.1875 -4.59375 Z M 8.921875 -15.0625 C 8.535156 -15.0625 8.207031 -14.976562 7.9375 -14.8125 C 7.675781 -14.65625 7.460938 -14.425781 7.296875 -14.125 C 7.140625 -13.832031 7.023438 -13.476562 6.953125 -13.0625 C 6.890625 -12.65625 6.859375 -12.210938 6.859375 -11.734375 C 5.472656 -11.734375 4.429688 -11.890625 3.734375 -12.203125 C 3.035156 -12.515625 2.6875 -13.046875 2.6875 -13.796875 C 2.6875 -14.359375 2.851562 -14.84375 3.1875 -15.25 C 3.53125 -15.65625 3.988281 -15.984375 4.5625 -16.234375 C 5.144531 -16.484375 5.816406 -16.664062 6.578125 -16.78125 C 7.347656 -16.894531 8.171875 -16.953125 9.046875 -16.953125 C 10.128906 -16.953125 11.078125 -16.859375 11.890625 -16.671875 C 12.703125 -16.484375 13.375 -16.179688 13.90625 -15.765625 C 14.445312 -15.359375 14.851562 -14.820312 15.125 -14.15625 C 15.394531 -13.488281 15.53125 -12.671875 15.53125 -11.703125 L 15.53125 -3.828125 C 15.53125 -3.410156 15.5625 -3.0625 15.625 -2.78125 C 15.695312 -2.5 15.800781 -2.273438 15.9375 -2.109375 C 16.082031 -1.941406 16.273438 -1.820312 16.515625 -1.75 C 16.753906 -1.675781 17.046875 -1.640625 17.390625 -1.640625 L 17.515625 -1.640625 L 17.515625 0 L 11.765625 0 L 11.109375 -2.125 L 10.84375 -2.125 C 10.5 -1.71875 10.175781 -1.359375 9.875 -1.046875 C 9.570312 -0.742188 9.25 -0.488281 8.90625 -0.28125 C 8.570312 -0.0820312 8.191406 0.0625 7.765625 0.15625 C 7.335938 0.25 6.832031 0.296875 6.25 0.296875 C 5.5625 0.296875 4.921875 0.195312 4.328125 0 C 3.742188 -0.195312 3.234375 -0.503906 2.796875 -0.921875 C 2.359375 -1.335938 2.015625 -1.859375 1.765625 -2.484375 C 1.515625 -3.117188 1.390625 -3.863281 1.390625 -4.71875 C 1.390625 -6.394531 1.960938 -7.632812 3.109375 -8.4375 C 4.265625 -9.25 6 -9.691406 8.3125 -9.765625 L 10.84375 -9.84375 L 10.84375 -11.546875 C 10.84375 -12.066406 10.820312 -12.539062 10.78125 -12.96875 C 10.738281 -13.40625 10.648438 -13.78125 10.515625 -14.09375 C 10.390625 -14.40625 10.195312 -14.644531 9.9375 -14.8125 C 9.6875 -14.976562 9.347656 -15.0625 8.921875 -15.0625 Z M 8.921875 -15.0625 "/></g></g></g><g fill="#2d452b" fill-opacity="1"><g transform="translate(350.922116, 178.455569)"><g><path d="M 0.890625 -1.640625 C 1.117188 -1.640625 1.359375 -1.660156 1.609375 -1.703125 C 1.867188 -1.753906 2.109375 -1.847656 2.328125 -1.984375 C 2.546875 -2.128906 2.726562 -2.332031 2.875 -2.59375 C 3.019531 -2.851562 3.09375 -3.207031 3.09375 -3.65625 L 3.09375 -19.953125 C 3.09375 -20.367188 3.019531 -20.695312 2.875 -20.9375 C 2.726562 -21.1875 2.539062 -21.378906 2.3125 -21.515625 C 2.09375 -21.648438 1.851562 -21.738281 1.59375 -21.78125 C 1.34375 -21.820312 1.109375 -21.84375 0.890625 -21.84375 L 0.53125 -21.84375 L 0.53125 -23.46875 L 7.78125 -23.46875 L 7.78125 -3.65625 C 7.78125 -3.207031 7.851562 -2.851562 8 -2.59375 C 8.144531 -2.332031 8.328125 -2.128906 8.546875 -1.984375 C 8.765625 -1.847656 9.003906 -1.753906 9.265625 -1.703125 C 9.523438 -1.660156 9.765625 -1.640625 9.984375 -1.640625 L 10.34375 -1.640625 L 10.34375 0 L 0.53125 0 L 0.53125 -1.640625 Z M 0.890625 -1.640625 "/></g></g></g></svg>